<svg width="58" height="68" viewBox="0 0 58 68" fill="none" xmlns="http://www.w3.org/2000/svg">
<rect x="19.4683" y="4.18404" width="33.6557" height="53.287" rx="5" transform="rotate(14.9143 19.4683 4.18404)" fill="#E7EFFD"/>
<path d="M31.3543 32.748C29.5812 32.9367 28.2901 34.5353 28.4787 36.3083C28.6673 38.0813 30.266 39.3725 32.039 39.1839C33.812 38.9952 35.1032 37.3966 34.9145 35.6236C34.7253 33.8453 33.1273 32.5594 31.3543 32.748Z" fill="#FCFDFE"/>
<path d="M23.9558 35.2065C23.5909 31.7768 26.0834 28.6909 29.513 28.326C32.334 28.0259 34.9273 29.6608 35.9589 32.1631C35.4237 28.0879 31.7173 25.1476 27.605 25.5851C23.4291 26.0294 20.3974 29.7829 20.8417 33.9588C21.2854 38.1294 25.0336 41.1616 29.2048 40.7232C26.4777 40.296 24.2616 38.0804 23.9558 35.2065Z" fill="#FCFDFE"/>
<path d="M29.606 29.1944C26.658 29.508 24.5102 32.1612 24.8244 35.1145C25.1341 38.0254 27.7204 40.1482 30.6228 39.909C29.046 39.4773 27.8151 38.1202 27.6321 36.4001C27.3939 34.1614 29.0203 32.1417 31.2644 31.903C33.1909 31.698 34.9482 32.8706 35.5583 34.6309C35.5622 34.4164 35.5497 34.1982 35.5261 33.9759C35.2125 31.0279 32.554 28.8807 29.606 29.1944Z" fill="#FCFDFE"/>
<path d="M24.0707 11.8251L23.4345 11.6451L24.5241 9.31331L25.1603 9.4933L24.0707 11.8251Z" fill="#012CA5"/>
<path d="M23.5894 9.04777L22.5066 10.5576L22.5375 10.1752L22.6342 9.01539C22.6342 9.01539 22.6706 8.78784 22.3947 8.70976L21.3917 8.42599L21.3681 8.46374C21.3681 8.46374 21.6572 8.61432 21.9551 8.93144L21.9074 11.212L22.5707 11.3997L24.2739 9.24146L23.5894 9.04777Z" fill="#012CA5"/>
<path d="M27.9024 12.9093L28.4868 13.0747L28.669 10.4861L28.1575 10.3414C27.9214 10.2746 27.8121 10.4407 27.8121 10.4407L26.2228 12.4341L26.8862 12.6218L27.1215 12.2965L27.9308 12.5254L27.9024 12.9093ZM27.4471 11.847L28.0403 11.0268L27.9699 11.9949L27.4471 11.847Z" fill="#012CA5"/>
<path d="M26.7966 10.5909L27.0361 10.0912C27.0361 10.0912 26.7858 9.90506 26.4939 9.82248C26.1781 9.73315 25.3888 9.65886 25.1989 10.3302C25.0202 10.9617 25.8983 11.2187 25.8044 11.5504C25.7106 11.882 24.9379 11.5997 24.7365 11.3163L24.4864 11.838C24.4864 11.838 24.7313 12.0563 25.1658 12.1793C25.6003 12.3022 26.3193 12.2627 26.4925 11.6505C26.6723 11.015 25.8008 10.7046 25.8791 10.428C25.957 10.1527 26.5664 10.3639 26.7966 10.5909Z" fill="#012CA5"/>
<path d="M22.5375 10.1752L22.6342 9.01539C22.6342 9.01539 22.6706 8.78784 22.3947 8.70976L21.3917 8.42599L21.3681 8.46374C21.3681 8.46374 21.822 8.70035 22.1785 9.20529C22.519 9.68849 22.5375 10.1752 22.5375 10.1752Z" fill="#F6A723"/>
</svg>
