<svg width="30" height="30" viewBox="0 0 30 30" fill="none" xmlns="http://www.w3.org/2000/svg">
<path d="M17.925 29.6293H12.5414C6.11802 29.6293 0.857422 24.3743 0.857422 17.9453V11.684C0.857422 5.2606 6.11243 0 12.5414 0H18.4338C24.5776 0 29.609 5.0258 29.609 11.1753V17.9453C29.609 24.3743 24.354 29.6293 17.925 29.6293Z" fill="#0B1F69"/>
<path d="M18.2554 22.0001C15.7357 22.0001 13.216 22.0001 10.6964 22.0001C10.6836 21.9931 10.6716 21.9823 10.658 21.9794C9.61474 21.7585 9 21.0112 9 19.9633C9 16.9385 9 13.914 9 10.8891C9 10.811 8.99973 10.7329 9.00354 10.6551C9.04792 9.74702 9.8143 8.96754 10.7315 8.90526C10.946 8.89077 11.1625 8.90312 11.3748 8.90312C11.4195 7.8273 12.3677 6.98178 13.4344 7.0003C15.2437 7.0317 17.0539 7.00781 18.8638 7.01291C18.9357 7.01318 19.0296 7.05049 19.0762 7.10283C20.1399 8.29381 21.1989 9.48854 22.255 10.686C22.3007 10.738 22.3279 10.8231 22.329 10.8932C22.3358 11.3224 22.3323 11.7518 22.3323 12.181C22.3323 14.1861 22.3334 16.1912 22.3317 18.1963C22.3309 19.1328 21.6225 19.9555 20.6838 20.0988C20.4467 20.1351 20.2025 20.1265 19.9621 20.1386C19.8564 20.8574 19.6084 21.2914 19.1099 21.6487C18.8527 21.8331 18.5595 21.9278 18.2554 22.0001ZM18.0471 7.94594C17.9812 7.94594 17.9371 7.94594 17.8927 7.94594C16.3853 7.94594 14.8778 7.9454 13.3701 7.9462C12.7595 7.94647 12.3334 8.36708 12.3331 8.96915C12.3326 12.0331 12.3326 15.0969 12.3331 18.1609C12.3331 18.7715 12.7581 19.1892 13.3797 19.1892C15.6954 19.1897 18.0111 19.1897 20.3269 19.1892C20.9577 19.1892 21.3797 18.7734 21.3799 18.1525C21.3802 16.0546 21.3802 13.9569 21.3802 11.8589C21.3802 11.8071 21.3802 11.7553 21.3802 11.6939C20.9062 11.6939 20.4508 11.6955 19.9953 11.6936C19.1176 11.6901 18.3329 11.1007 18.1113 10.2664C18.067 10.0989 18.052 9.92015 18.0498 9.74622C18.0427 9.15194 18.0471 8.55766 18.0471 7.94594ZM11.3808 9.83453C11.2079 9.83453 11.0508 9.83292 10.8935 9.8348C10.2828 9.84151 9.9477 10.3566 9.94879 10.8304C9.9556 13.9038 9.95178 16.9774 9.9526 20.0508C9.95287 20.6411 10.3833 21.0627 10.9855 21.0627C13.3111 21.0635 15.6366 21.0633 17.9621 21.0619C18.0509 21.0619 18.1413 21.0552 18.2279 21.0372C18.6596 20.9468 19.0179 20.5141 18.979 20.1262C18.921 20.1262 18.8619 20.1262 18.8028 20.1262C17.0027 20.1262 15.2026 20.1064 13.4031 20.1335C12.3007 20.1501 11.3645 19.2013 11.3732 18.1418C11.3955 15.4394 11.3805 12.7364 11.3805 10.0337C11.3808 9.97035 11.3808 9.90727 11.3808 9.83453ZM21.3802 10.7568C20.5809 9.81815 19.8031 8.90526 18.9994 7.9615C18.9994 8.41406 19.0046 8.81856 18.998 9.22307C18.991 9.67133 19.1448 10.0635 19.4105 10.4178C19.5815 10.6457 19.7974 10.7804 20.1058 10.7608C20.392 10.7426 20.6803 10.7571 20.9678 10.7571C21.0944 10.7568 21.221 10.7568 21.3802 10.7568Z" fill="white"/>
<path d="M16.8481 16.8508C16.1394 16.8508 15.4305 16.8529 14.7218 16.8497C14.476 16.8486 14.2886 16.6927 14.2445 16.4685C14.2032 16.2597 14.3213 16.0369 14.5282 15.9594C14.6091 15.929 14.7016 15.9186 14.7893 15.9169C15.0817 15.9118 15.3741 15.9151 15.6665 15.9151C16.737 15.9151 17.8077 15.9151 18.8782 15.9153C18.9376 15.9153 18.9977 15.9143 19.0563 15.9229C19.3124 15.9604 19.4867 16.1663 19.4731 16.4108C19.4595 16.654 19.2626 16.8438 19.0043 16.8492C18.717 16.8553 18.4293 16.8513 18.1418 16.8513C17.7105 16.8516 17.2793 16.8513 16.8481 16.8513C16.8481 16.8513 16.8481 16.851 16.8481 16.8508Z" fill="white"/>
<path d="M16.8574 14.5085C16.1435 14.5085 15.43 14.5091 14.7161 14.5082C14.5258 14.508 14.3832 14.4226 14.2939 14.2584C14.2068 14.0981 14.2087 13.9295 14.3227 13.7908C14.3927 13.7057 14.503 13.6458 14.6059 13.5967C14.6682 13.5669 14.7513 13.5742 14.8253 13.5742C16.1784 13.5731 17.5315 13.5725 18.8845 13.575C18.982 13.5752 19.0852 13.5838 19.1761 13.6152C19.3827 13.6861 19.5055 13.9107 19.469 14.1196C19.4315 14.3335 19.251 14.5002 19.028 14.5053C18.6961 14.5131 18.364 14.5091 18.0318 14.5093C17.6404 14.5096 17.2489 14.5093 16.8571 14.5093C16.8574 14.5091 16.8574 14.5088 16.8574 14.5085Z" fill="white"/>
</svg>
