<svg width="34" height="35" viewBox="0 0 34 35" fill="none" xmlns="http://www.w3.org/2000/svg">
<path d="M20.5043 34.9524H14.3042C6.90659 34.9524 0.848145 28.9004 0.848145 21.4963V14.2854C0.848145 6.88779 6.90015 0.829346 14.3042 0.829346H21.0902C28.1659 0.829346 33.9603 6.61738 33.9603 13.6995V21.4963C33.9603 28.9004 27.9019 34.9524 20.5043 34.9524Z" fill="#0B1F69"/>
<path d="M18.734 28.0952V19.2426H21.6184L22.0498 15.7916H18.734V13.5897C18.734 12.5918 19.0044 11.9093 20.3951 11.9093H22.1656V8.82539C21.8566 8.78032 20.8072 8.69019 19.5839 8.69019C17.0279 8.69019 15.2767 10.2998 15.2767 13.2549V15.7981H12.3859V19.249H15.2767V28.1017H18.734V28.0952Z" fill="white"/>
</svg>
