<svg width="210" height="67" viewBox="0 0 210 67" fill="none" xmlns="http://www.w3.org/2000/svg">
<path d="M132.134 66.9468C132.056 66.9468 131.986 66.9212 131.925 66.8701C131.87 66.819 131.842 66.7551 131.842 66.6784C131.842 66.6068 131.87 66.5454 131.925 66.4943C131.986 66.4432 132.056 66.4176 132.134 66.4176C132.212 66.4176 132.279 66.4432 132.334 66.4943C132.396 66.5454 132.426 66.6068 132.426 66.6784C132.426 66.7551 132.396 66.819 132.334 66.8701C132.279 66.9212 132.212 66.9468 132.134 66.9468Z" fill="#C4C4C4"/>
<path d="M133.459 66.9468C133.381 66.9468 133.311 66.9212 133.25 66.8701C133.194 66.819 133.166 66.7551 133.166 66.6784C133.166 66.6068 133.194 66.5454 133.25 66.4943C133.311 66.4432 133.381 66.4176 133.459 66.4176C133.536 66.4176 133.603 66.4432 133.659 66.4943C133.72 66.5454 133.751 66.6068 133.751 66.6784C133.751 66.7551 133.72 66.819 133.659 66.8701C133.603 66.9212 133.536 66.9468 133.459 66.9468Z" fill="#C4C4C4"/>
<path d="M134.783 66.9468C134.705 66.9468 134.636 66.9212 134.574 66.8701C134.519 66.819 134.491 66.7551 134.491 66.6784C134.491 66.6068 134.519 66.5454 134.574 66.4943C134.636 66.4432 134.705 66.4176 134.783 66.4176C134.861 66.4176 134.928 66.4432 134.983 66.4943C135.045 66.5454 135.075 66.6068 135.075 66.6784C135.075 66.7551 135.045 66.819 134.983 66.8701C134.928 66.9212 134.861 66.9468 134.783 66.9468Z" fill="#C4C4C4"/>
<path d="M137.485 66.9468C137.224 66.9468 136.984 66.8931 136.767 66.7857C136.55 66.6733 136.378 66.5173 136.25 66.3179C136.122 66.1185 136.058 65.8961 136.058 65.6507V61.126H136.325V65.6507C136.325 65.8552 136.375 66.0393 136.475 66.2029C136.581 66.3665 136.723 66.4969 136.901 66.594C137.079 66.686 137.274 66.7321 137.485 66.7321V66.9468Z" fill="#C4C4C4"/>
<path d="M138.841 62.6368C138.763 62.6368 138.693 62.6112 138.632 62.5601C138.577 62.509 138.549 62.4451 138.549 62.3684C138.549 62.2968 138.577 62.2354 138.632 62.1843C138.693 62.1332 138.763 62.1076 138.841 62.1076C138.919 62.1076 138.986 62.1332 139.041 62.1843C139.103 62.2354 139.133 62.2968 139.133 62.3684C139.133 62.4451 139.103 62.509 139.041 62.5601C138.986 62.6112 138.919 62.6368 138.841 62.6368ZM138.707 63.4267H138.975V66.8778H138.707V63.4267Z" fill="#C4C4C4"/>
<path d="M143.6 63.4267L141.755 66.9775L139.902 63.4267H140.194L141.755 66.4176L143.308 63.4267H143.6Z" fill="#C4C4C4"/>
<path d="M146.001 66.7551C146.29 66.7551 146.566 66.686 146.827 66.548C147.089 66.41 147.306 66.2208 147.479 65.9805V66.3716C147.273 66.5812 147.047 66.7346 146.802 66.8318C146.557 66.9238 146.279 66.9698 145.968 66.9698C145.623 66.9698 145.297 66.8854 144.991 66.7167C144.69 66.548 144.448 66.323 144.265 66.0418C144.086 65.7606 143.997 65.4616 143.997 65.1446C143.997 64.802 144.086 64.4952 144.265 64.2243C144.443 63.9482 144.685 63.7335 144.991 63.5801C145.303 63.4267 145.648 63.35 146.026 63.35C146.605 63.35 147.097 63.5596 147.504 63.9789L144.882 66.3563C145.066 66.4943 145.244 66.5966 145.417 66.663C145.589 66.7244 145.784 66.7551 146.001 66.7551ZM144.265 65.1216C144.265 65.5459 144.418 65.9089 144.724 66.2106L147.17 63.9789C146.986 63.8306 146.808 63.7258 146.635 63.6644C146.463 63.598 146.257 63.5647 146.018 63.5647C145.678 63.5647 145.375 63.6338 145.108 63.7718C144.846 63.9047 144.64 64.0888 144.49 64.324C144.34 64.5592 144.265 64.825 144.265 65.1216Z" fill="#C4C4C4"/>
<path d="M153.537 66.9621L152.686 65.2903L151.826 66.9621L150.023 63.4267H150.298L151.834 66.4253L152.56 65.0219L151.759 63.442H152.026L152.694 64.7764L153.378 63.4267H153.646L152.827 65.0295L153.537 66.433L155.048 63.4344H155.315L153.537 66.9621Z" fill="#C4C4C4"/>
<path d="M156.372 62.6368C156.294 62.6368 156.224 62.6112 156.163 62.5601C156.107 62.509 156.079 62.4451 156.079 62.3684C156.079 62.2968 156.107 62.2354 156.163 62.1843C156.224 62.1332 156.294 62.1076 156.372 62.1076C156.45 62.1076 156.516 62.1332 156.572 62.1843C156.633 62.2354 156.664 62.2968 156.664 62.3684C156.664 62.4451 156.633 62.509 156.572 62.5601C156.516 62.6112 156.45 62.6368 156.372 62.6368ZM156.238 63.4267H156.505V66.8778H156.238V63.4267Z" fill="#C4C4C4"/>
<path d="M159.261 66.9238C158.849 66.9238 158.507 66.8087 158.234 66.5787C157.967 66.3486 157.833 66.0316 157.833 65.6277V62.0386H158.1V63.4267H159.253V63.6414H158.1V65.6277C158.1 65.9652 158.209 66.231 158.426 66.4253C158.649 66.6145 158.927 66.7091 159.261 66.7091V66.9238Z" fill="#C4C4C4"/>
<path d="M160.13 61.126H160.397V64.1399C160.514 63.9098 160.712 63.7207 160.99 63.5724C161.274 63.419 161.56 63.3423 161.85 63.3423C162.378 63.3423 162.785 63.4753 163.068 63.7411C163.358 64.007 163.503 64.3828 163.503 64.8685V66.8778H163.235V64.8685C163.235 64.4492 163.113 64.1271 162.868 63.9022C162.629 63.6721 162.289 63.5571 161.85 63.5571C161.583 63.5571 161.338 63.6159 161.115 63.7335C160.892 63.8459 160.717 64.0044 160.589 64.2089C160.461 64.4083 160.397 64.6282 160.397 64.8685V66.8778H160.13V61.126Z" fill="#C4C4C4"/>
<path d="M166.51 67.0005C166.132 67.0005 165.789 66.9161 165.483 66.7474C165.177 66.5736 164.938 66.346 164.765 66.0648C164.593 65.7785 164.507 65.4692 164.507 65.1369C164.507 64.8097 164.593 64.5055 164.765 64.2243C164.944 63.9431 165.183 63.7207 165.483 63.5571C165.789 63.3883 166.129 63.304 166.502 63.304C166.869 63.304 167.203 63.3883 167.504 63.5571C167.81 63.7207 168.049 63.9431 168.221 64.2243C168.394 64.5055 168.48 64.8097 168.48 65.1369C168.48 65.4794 168.397 65.7939 168.23 66.0802C168.063 66.3614 167.829 66.5863 167.529 66.7551C167.234 66.9187 166.894 67.0005 166.51 67.0005ZM166.51 66.7857C166.827 66.7857 167.117 66.7116 167.378 66.5633C167.64 66.4151 167.843 66.2182 167.988 65.9728C168.138 65.7223 168.213 65.4488 168.213 65.1522C168.213 64.8608 168.138 64.5898 167.988 64.3393C167.837 64.0888 167.632 63.8894 167.37 63.7411C167.108 63.5929 166.819 63.5187 166.502 63.5187C166.185 63.5187 165.892 63.5954 165.625 63.7488C165.364 63.8971 165.155 64.0965 164.999 64.347C164.849 64.5975 164.774 64.8685 164.774 65.1599C164.774 65.4513 164.849 65.7223 164.999 65.9728C165.155 66.2182 165.364 66.4151 165.625 66.5633C165.892 66.7116 166.187 66.7857 166.51 66.7857Z" fill="#C4C4C4"/>
<path d="M171.133 66.9621C170.605 66.9621 170.196 66.8292 169.906 66.5633C169.622 66.2975 169.48 65.9217 169.48 65.436V63.4267H169.748V65.436C169.748 65.8552 169.867 66.1799 170.106 66.41C170.351 66.6349 170.694 66.7474 171.133 66.7474C171.4 66.7474 171.645 66.6937 171.868 66.5863C172.09 66.4739 172.266 66.3179 172.394 66.1185C172.522 65.9191 172.586 65.6916 172.586 65.436V63.4267H172.853V66.8778H172.586V66.2336C172.458 66.4483 172.266 66.6247 172.01 66.7627C171.754 66.8957 171.462 66.9621 171.133 66.9621Z" fill="#C4C4C4"/>
<path d="M175.418 66.9238C175.006 66.9238 174.664 66.8087 174.391 66.5787C174.124 66.3486 173.991 66.0316 173.991 65.6277V62.0386H174.258V63.4267H175.41V63.6414H174.258V65.6277C174.258 65.9652 174.366 66.231 174.583 66.4253C174.806 66.6145 175.084 66.7091 175.418 66.7091V66.9238Z" fill="#C4C4C4"/>
<path d="M180.259 66.9621C179.919 66.9621 179.591 66.8778 179.273 66.7091C178.962 66.5403 178.723 66.3179 178.556 66.0418V66.8778H178.288V61.126H178.556V64.301C178.706 64.0095 178.94 63.7769 179.257 63.6031C179.574 63.4292 179.908 63.3423 180.259 63.3423C180.62 63.3423 180.951 63.4241 181.252 63.5877C181.558 63.7514 181.8 63.9712 181.978 64.2473C182.156 64.5234 182.245 64.825 182.245 65.1522C182.245 65.4794 182.156 65.7811 181.978 66.0572C181.8 66.3333 181.558 66.5531 181.252 66.7167C180.951 66.8803 180.62 66.9621 180.259 66.9621ZM180.275 66.7474C180.581 66.7474 180.865 66.6758 181.127 66.5327C181.388 66.3844 181.594 66.1901 181.744 65.9498C181.9 65.7044 181.978 65.4385 181.978 65.1522C181.978 64.871 181.9 64.6077 181.744 64.3623C181.589 64.1169 181.38 63.9226 181.118 63.7795C180.857 63.6312 180.573 63.5571 180.267 63.5571C179.961 63.5571 179.674 63.6312 179.407 63.7795C179.145 63.9277 178.934 64.1246 178.773 64.37C178.617 64.6154 178.539 64.8787 178.539 65.1599C178.539 65.4411 178.617 65.7044 178.773 65.9498C178.934 66.1901 179.148 66.3844 179.415 66.5327C179.683 66.6758 179.969 66.7474 180.275 66.7474Z" fill="#C4C4C4"/>
<path d="M185.019 66.9621C184.663 66.9621 184.331 66.8803 184.025 66.7167C183.719 66.5531 183.477 66.3333 183.299 66.0572C183.121 65.776 183.032 65.4743 183.032 65.1522C183.032 64.8301 183.121 64.531 183.299 64.255C183.477 63.9738 183.719 63.7514 184.025 63.5877C184.331 63.4241 184.663 63.3423 185.019 63.3423C185.38 63.3423 185.723 63.4318 186.045 63.6108C186.368 63.7846 186.594 64.0121 186.722 64.2933V63.4267H186.989V66.8778H186.722V66.0188C186.571 66.3051 186.338 66.5352 186.02 66.7091C185.709 66.8778 185.375 66.9621 185.019 66.9621ZM185.035 66.7474C185.341 66.7474 185.625 66.6758 185.887 66.5327C186.148 66.3844 186.354 66.1901 186.505 65.9498C186.66 65.7044 186.738 65.4385 186.738 65.1522C186.738 64.871 186.66 64.6077 186.505 64.3623C186.349 64.1169 186.14 63.9226 185.879 63.7795C185.617 63.6312 185.333 63.5571 185.027 63.5571C184.721 63.5571 184.434 63.6312 184.167 63.7795C183.906 63.9277 183.694 64.1246 183.533 64.37C183.377 64.6154 183.299 64.8787 183.299 65.1599C183.299 65.4411 183.377 65.7044 183.533 65.9498C183.694 66.1901 183.908 66.3844 184.176 66.5327C184.443 66.6758 184.729 66.7474 185.035 66.7474Z" fill="#C4C4C4"/>
<path d="M188.209 63.4267H188.477V64.2243C188.588 63.9738 188.749 63.7769 188.961 63.6338C189.178 63.4906 189.423 63.419 189.695 63.419C189.868 63.419 190.043 63.4523 190.221 63.5187V63.8025C190.06 63.69 189.879 63.6338 189.679 63.6338C189.478 63.6338 189.284 63.69 189.094 63.8025C188.911 63.915 188.76 64.0658 188.644 64.255C188.532 64.4441 188.477 64.6461 188.477 64.8608V66.8778H188.209V63.4267Z" fill="#C4C4C4"/>
<path d="M191.05 63.4267H191.317V64.2243C191.429 63.9738 191.59 63.7769 191.802 63.6338C192.019 63.4906 192.264 63.419 192.536 63.419C192.709 63.419 192.884 63.4523 193.062 63.5187V63.8025C192.901 63.69 192.72 63.6338 192.52 63.6338C192.319 63.6338 192.124 63.69 191.935 63.8025C191.752 63.915 191.601 64.0658 191.484 64.255C191.373 64.4441 191.317 64.6461 191.317 64.8608V66.8778H191.05V63.4267Z" fill="#C4C4C4"/>
<path d="M194.217 62.6368C194.139 62.6368 194.069 62.6112 194.008 62.5601C193.952 62.509 193.925 62.4451 193.925 62.3684C193.925 62.2968 193.952 62.2354 194.008 62.1843C194.069 62.1332 194.139 62.1076 194.217 62.1076C194.295 62.1076 194.362 62.1332 194.417 62.1843C194.478 62.2354 194.509 62.2968 194.509 62.3684C194.509 62.4451 194.478 62.509 194.417 62.5601C194.362 62.6112 194.295 62.6368 194.217 62.6368ZM194.083 63.4267H194.35V66.8778H194.083V63.4267Z" fill="#C4C4C4"/>
<path d="M197.59 66.7551C197.88 66.7551 198.155 66.686 198.417 66.548C198.678 66.41 198.895 66.2208 199.068 65.9805V66.3716C198.862 66.5812 198.637 66.7346 198.392 66.8318C198.147 66.9238 197.868 66.9698 197.557 66.9698C197.212 66.9698 196.886 66.8854 196.58 66.7167C196.28 66.548 196.038 66.323 195.854 66.0418C195.676 65.7606 195.587 65.4616 195.587 65.1446C195.587 64.802 195.676 64.4952 195.854 64.2243C196.032 63.9482 196.274 63.7335 196.58 63.5801C196.892 63.4267 197.237 63.35 197.615 63.35C198.194 63.35 198.687 63.5596 199.093 63.9789L196.472 66.3563C196.655 66.4943 196.833 66.5966 197.006 66.663C197.178 66.7244 197.373 66.7551 197.59 66.7551ZM195.854 65.1216C195.854 65.5459 196.007 65.9089 196.313 66.2106L198.759 63.9789C198.575 63.8306 198.397 63.7258 198.225 63.6644C198.052 63.598 197.846 63.5647 197.607 63.5647C197.267 63.5647 196.964 63.6338 196.697 63.7718C196.435 63.9047 196.23 64.0888 196.079 64.324C195.929 64.5592 195.854 64.825 195.854 65.1216Z" fill="#C4C4C4"/>
<path d="M200.095 63.4267H200.362V64.2243C200.473 63.9738 200.635 63.7769 200.846 63.6338C201.063 63.4906 201.308 63.419 201.581 63.419C201.753 63.419 201.929 63.4523 202.107 63.5187V63.8025C201.945 63.69 201.764 63.6338 201.564 63.6338C201.364 63.6338 201.169 63.69 200.98 63.8025C200.796 63.915 200.646 64.0658 200.529 64.255C200.418 64.4441 200.362 64.6461 200.362 64.8608V66.8778H200.095V63.4267Z" fill="#C4C4C4"/>
<path d="M203.846 66.9621C203.578 66.9621 203.342 66.9212 203.136 66.8394C202.93 66.7525 202.783 66.6426 202.694 66.5097V66.1032C202.799 66.323 202.944 66.4866 203.128 66.594C203.311 66.6963 203.545 66.7474 203.829 66.7474C204.102 66.7474 204.321 66.6707 204.488 66.5173C204.655 66.3588 204.739 66.1569 204.739 65.9115C204.739 65.7018 204.692 65.5408 204.597 65.4283C204.502 65.3107 204.349 65.1931 204.138 65.0755L203.821 64.9068C203.592 64.779 203.42 64.6793 203.303 64.6077C203.192 64.531 203.103 64.4467 203.036 64.3546C202.969 64.2575 202.936 64.145 202.936 64.0172C202.936 63.8127 203.014 63.6491 203.169 63.5264C203.325 63.4037 203.528 63.3423 203.779 63.3423C204.085 63.3423 204.341 63.4062 204.547 63.5341V63.8715C204.374 63.6619 204.127 63.5571 203.804 63.5571C203.626 63.5571 203.481 63.598 203.37 63.6798C203.258 63.7616 203.203 63.8664 203.203 63.9942C203.203 64.1067 203.236 64.2064 203.303 64.2933C203.37 64.3751 203.462 64.4518 203.579 64.5234C203.701 64.5949 203.901 64.7023 204.18 64.8455C204.463 64.9937 204.672 65.1471 204.806 65.3056C204.939 65.459 205.006 65.6609 205.006 65.9115C205.006 66.2285 204.892 66.4841 204.664 66.6784C204.441 66.8675 204.168 66.9621 203.846 66.9621Z" fill="#C4C4C4"/>
<path d="M74.4577 54.262C69.9037 54.262 67.5938 52.282 67.5938 48.388V28.4561H70.1017V35.056H74.4577V37.432H70.1017V48.058C70.1017 50.83 71.5537 52.282 74.4577 52.282V54.262Z" fill="#C4C4C4"/>
<path d="M93.4657 45.3524H76.5697C76.7677 47.2664 77.5597 48.7844 79.0117 50.0384C80.3977 51.2924 82.1137 51.8864 84.0277 51.8864C86.9977 51.8204 89.1097 50.4344 90.4297 47.7284H93.1357C92.4097 49.7744 91.2217 51.3584 89.5717 52.5464C87.9217 53.7344 86.0077 54.3284 83.9617 54.3944C81.3877 54.4604 79.0777 53.4704 77.0977 51.5564C75.1177 49.6424 74.1277 47.3324 74.0617 44.6924C73.9957 41.8544 74.9857 39.4124 77.0317 37.4324C79.0777 35.3864 81.5197 34.4624 84.2917 34.5944C86.7997 34.7264 88.9777 35.7824 90.8257 37.6964C92.6077 39.6104 93.5317 41.7224 93.5317 44.0324V45.3524H93.4657ZM90.9577 43.0424C90.6277 41.2604 89.7697 39.8744 88.4497 38.7524C87.1297 37.6304 85.6117 37.1024 83.7637 37.1024C81.9817 37.1024 80.3977 37.6304 79.0117 38.7524C77.6257 39.8744 76.8337 41.3264 76.4377 43.1084H90.9577V43.0424Z" fill="#C4C4C4"/>
<path d="M98.217 53.8666H95.709V28.3906H98.217V53.8666Z" fill="#C4C4C4"/>
<path d="M103.563 53.8666H101.055V28.3906H103.563V53.8666Z" fill="#C4C4C4"/>
<path d="M125.872 45.3524H108.976C109.174 47.2664 109.966 48.7844 111.418 50.0384C112.804 51.2924 114.52 51.8864 116.434 51.8864C119.404 51.8204 121.516 50.4344 122.836 47.7284H125.542C124.816 49.7744 123.628 51.3584 121.978 52.5464C120.328 53.7344 118.414 54.3284 116.368 54.3944C113.794 54.4604 111.484 53.4704 109.504 51.5564C107.524 49.6424 106.534 47.3324 106.468 44.6924C106.402 41.8544 107.392 39.4124 109.438 37.4324C111.484 35.3864 113.926 34.4624 116.698 34.5944C119.206 34.7264 121.384 35.7824 123.232 37.6964C125.014 39.6104 125.938 41.7224 125.938 44.0324V45.3524H125.872ZM123.43 43.0424C123.1 41.2604 122.242 39.8744 120.922 38.7524C119.602 37.6304 118.084 37.1024 116.236 37.1024C114.454 37.1024 112.87 37.6304 111.484 38.7524C110.098 39.8744 109.306 41.3264 108.91 43.1084H123.43V43.0424Z" fill="#C4C4C4"/>
<path d="M135.574 37.2342C134.386 37.3002 133.462 37.6302 132.736 38.2242C132.01 38.8182 131.482 39.3462 131.218 39.8081C130.822 40.5341 130.558 41.5241 130.558 42.7121V53.9981H127.918V35.0562H130.294V37.7622C130.822 36.7722 131.614 35.9802 132.67 35.3862C133.594 34.8582 134.584 34.6602 135.574 34.6602V37.2342Z" fill="#C4C4C4"/>
<path d="M164.217 40.9961C164.217 44.6921 162.897 47.8601 160.323 50.4341C157.683 53.0741 154.581 54.3941 150.951 54.3941C147.321 54.3941 144.153 53.1401 141.513 50.5661C138.873 48.0581 137.553 44.9561 137.553 41.3921C137.553 37.7621 138.873 34.5941 141.447 31.9541C144.021 29.3141 147.189 27.9941 150.819 27.9941C154.449 27.9941 157.617 29.2481 160.323 31.7561C162.897 34.3301 164.217 37.3661 164.217 40.9961ZM161.775 41.1281C161.709 38.1581 160.653 35.6501 158.475 33.6041C156.297 31.5581 153.789 30.5021 150.819 30.5021C147.915 30.5021 145.341 31.5581 143.229 33.6701C141.117 35.7821 140.061 38.2901 140.061 41.2601C140.061 44.1641 141.117 46.6721 143.229 48.7841C145.341 50.8961 147.849 51.9521 150.819 51.9521C153.789 51.9521 156.363 50.8961 158.541 48.7841C160.719 46.6721 161.841 44.0981 161.775 41.1281Z" fill="#C4C4C4"/>
<path d="M183.292 53.8661H180.784V42.9101C180.784 41.3261 180.19 39.9402 179.068 38.8182C177.88 37.6962 176.56 37.1022 174.976 37.1022C173.392 37.1022 172.006 37.6962 170.884 38.8182C169.696 39.9402 169.168 41.3261 169.168 42.9101V53.9321H166.66V43.1741C166.66 40.7322 167.452 38.6862 169.036 37.1022C170.62 35.5182 172.6 34.6602 175.042 34.6602C177.418 34.6602 179.398 35.4522 180.982 37.1022C182.566 38.7522 183.358 40.7322 183.358 43.1741V53.8661H183.292Z" fill="#C4C4C4"/>
<path d="M203.76 38.9341L190.817 49.7947C192.199 51.1336 193.782 51.7874 195.7 51.8147C197.568 51.8844 199.264 51.2364 200.73 50.0061C202.963 48.0465 203.69 45.6271 202.962 42.7058L205.035 40.9664C205.794 43.0004 205.902 44.9774 205.402 46.9481C204.901 48.9187 203.817 50.6041 202.292 51.9698C200.363 53.6748 197.957 54.4013 195.21 54.2078C192.463 54.0143 190.219 52.8811 188.472 50.9012C186.597 48.7696 185.786 46.2625 186.08 43.4306C186.333 40.5482 187.609 38.2707 189.818 36.59C191.824 35.079 194.171 34.4879 196.817 34.7663C199.412 35.087 201.478 36.111 202.963 37.8805L203.811 38.8917L203.76 38.9341ZM200.354 38.7767C198.956 37.6237 197.408 37.1135 195.676 37.1025C193.943 37.0914 192.441 37.6627 191.025 38.8506C189.66 39.996 188.786 41.4187 188.446 43.1691C188.105 44.9195 188.432 46.5409 189.274 48.1605L200.397 38.8272L200.354 38.7767Z" fill="#C4C4C4"/>
<path d="M28.918 56.8359C44.3366 56.8359 56.8359 44.3366 56.8359 28.918C56.8359 13.4993 44.3366 1 28.918 1C13.4993 1 1 13.4993 1 28.918C1 44.3366 13.4993 56.8359 28.918 56.8359Z" stroke="#C4C4C4" stroke-width="1.75225" stroke-miterlimit="10"/>
<path d="M36.9695 52.1499C43.3848 52.1499 48.5855 46.9493 48.5855 40.534C48.5855 34.1186 43.3848 28.918 36.9695 28.918C30.5542 28.918 25.3535 34.1186 25.3535 40.534C25.3535 46.9493 30.5542 52.1499 36.9695 52.1499Z" stroke="#C4C4C4" stroke-width="1.78015" stroke-miterlimit="10"/>
<path d="M33.6047 54.5257C44.5399 54.5257 53.4046 45.661 53.4046 34.7258C53.4046 23.7905 44.5399 14.9258 33.6047 14.9258C22.6694 14.9258 13.8047 23.7905 13.8047 34.7258C13.8047 45.661 22.6694 54.5257 33.6047 54.5257Z" stroke="#C4C4C4" stroke-width="1.78015" stroke-miterlimit="10"/>
</svg>
