<svg width="137" height="41" viewBox="0 0 137 41" fill="none" xmlns="http://www.w3.org/2000/svg">
<path d="M131.954 0H5.81698C3.03043 0 0.771484 2.25894 0.771484 5.04549V35.3184C0.771484 38.105 3.03043 40.3639 5.81698 40.3639H131.954C134.741 40.3639 137 38.105 137 35.3184V5.04549C137 2.25894 134.741 0 131.954 0Z" fill="black"/>
<path d="M131.954 0.807077C133.078 0.808375 134.155 1.25535 134.95 2.04993C135.744 2.84452 136.191 3.92182 136.192 5.04549V35.3184C136.191 36.4421 135.744 37.5194 134.95 38.314C134.155 39.1086 133.078 39.5555 131.954 39.5569H5.81698C4.69329 39.5556 3.61601 39.1086 2.82147 38.314C2.02692 37.5194 1.58 36.4421 1.57876 35.3184V5.04549C1.57999 3.9218 2.0269 2.84449 2.82145 2.0499C3.61599 1.25532 4.69329 0.808353 5.81698 0.807077H131.954ZM131.954 0H5.81698C4.48003 0.00391338 3.19896 0.536747 2.2536 1.48211C1.30823 2.42748 0.775398 3.70855 0.771484 5.04549L0.771484 35.3184C0.775398 36.6554 1.30823 37.9364 2.2536 38.8818C3.19896 39.8272 4.48003 40.36 5.81698 40.3639H131.954C133.291 40.36 134.572 39.8272 135.518 38.8818C136.463 37.9364 136.996 36.6554 137 35.3184V5.04549C136.996 3.70855 136.463 2.42748 135.518 1.48211C134.572 0.536747 133.291 0.00391338 131.954 0Z" fill="#A6A6A6"/>
<path d="M48.62 10.3361C48.6383 10.7064 48.5811 11.0765 48.4518 11.424C48.3225 11.7714 48.1239 12.089 47.868 12.3572C47.5812 12.6546 47.2348 12.8882 46.8515 13.0426C46.4683 13.1969 46.0567 13.2686 45.6438 13.253C45.2283 13.2567 44.8162 13.1773 44.4318 13.0195C44.0474 12.8617 43.6984 12.6286 43.4054 12.334C43.1123 12.0394 42.8811 11.6892 42.7254 11.3039C42.5696 10.9187 42.4924 10.5062 42.4984 10.0907C42.4925 9.67516 42.5697 9.26265 42.7254 8.8774C42.8812 8.49214 43.1124 8.1419 43.4054 7.84726C43.6985 7.55261 44.0474 7.31949 44.4318 7.16161C44.8162 7.00372 45.2283 6.92424 45.6438 6.92785C46.0711 6.92656 46.494 7.01294 46.8865 7.18164C47.2511 7.32941 47.5756 7.56121 47.8336 7.85814L47.3014 8.39074C47.0986 8.15204 46.8436 7.96312 46.5562 7.83857C46.2688 7.71401 45.9567 7.65715 45.6438 7.67236C45.3289 7.67074 45.0169 7.73268 44.7265 7.85449C44.4361 7.9763 44.1732 8.15547 43.9537 8.38126C43.7342 8.60706 43.5625 8.87484 43.4489 9.16856C43.3353 9.46229 43.2821 9.77592 43.2926 10.0907C43.2851 10.5621 43.4178 11.0252 43.6738 11.4211C43.9298 11.8171 44.2976 12.1281 44.7306 12.3147C45.1636 12.5014 45.6423 12.5552 46.1059 12.4694C46.5696 12.3837 46.9973 12.1622 47.3349 11.833C47.6456 11.4982 47.8257 11.0629 47.8423 10.6065H45.6438V9.87926H48.5776C48.6053 10.03 48.6195 10.1828 48.62 10.3361Z" fill="white" stroke="white" stroke-width="0.2" stroke-miterlimit="10"/>
<path d="M53.2731 7.80748H50.5158V9.72709H53.0021V10.4545H50.5158V12.3741H53.2731V13.1181H49.7383V7.06348H53.2731V7.80748Z" fill="white" stroke="white" stroke-width="0.2" stroke-miterlimit="10"/>
<path d="M56.5536 13.1181H55.775V7.80748H54.084V7.06348H58.2446V7.80748H56.5536V13.1181Z" fill="white" stroke="white" stroke-width="0.2" stroke-miterlimit="10"/>
<path d="M61.2539 13.1181V7.06348H62.0314V13.1181H61.2539Z" fill="white" stroke="white" stroke-width="0.2" stroke-miterlimit="10"/>
<path d="M65.4831 13.1181H64.7046V7.80748H63.0137V7.06348H67.1742V7.80748H65.4831V13.1181Z" fill="white" stroke="white" stroke-width="0.2" stroke-miterlimit="10"/>
<path d="M75.0508 12.3364C74.4615 12.9239 73.6633 13.2538 72.8311 13.2538C71.9989 13.2538 71.2007 12.9239 70.6114 12.3364C70.3198 12.0411 70.0907 11.6902 69.9374 11.3045C69.7842 10.9189 69.7101 10.5064 69.7195 10.0915C69.7101 9.67667 69.7842 9.26416 69.9374 8.87852C70.0907 8.49288 70.3198 8.14198 70.6114 7.84669C70.9027 7.55533 71.2486 7.32427 71.6292 7.16676C72.0099 7.00924 72.418 6.92835 72.8299 6.92871C73.2419 6.92908 73.6498 7.01069 74.0302 7.16889C74.4106 7.32708 74.7561 7.55875 75.0469 7.85062C75.3386 8.14514 75.5683 8.49525 75.7221 8.88019C75.876 9.26513 75.951 9.67706 75.9427 10.0915C75.9518 10.5063 75.8776 10.9188 75.7244 11.3044C75.5712 11.69 75.3421 12.0409 75.0508 12.3364ZM71.1859 11.8294C71.6223 12.2651 72.2139 12.5098 72.8306 12.5098C73.4473 12.5098 74.0389 12.2651 74.4753 11.8294C74.6991 11.6002 74.8742 11.3281 74.9899 11.0294C75.1056 10.7307 75.1595 10.4117 75.1484 10.0915C75.1595 9.7714 75.1056 9.45235 74.9899 9.15365C74.8742 8.85495 74.6991 8.58281 74.4753 8.35366C74.0389 7.91794 73.4473 7.67321 72.8306 7.67321C72.2139 7.67321 71.6223 7.91794 71.1859 8.35366C70.9624 8.58299 70.7876 8.85519 70.6721 9.15386C70.5566 9.45253 70.5027 9.77149 70.5138 10.0915C70.5027 10.4116 70.5566 10.7305 70.6721 11.0292C70.7876 11.3279 70.9624 11.6001 71.1859 11.8294Z" fill="white" stroke="white" stroke-width="0.2" stroke-miterlimit="10"/>
<path d="M77.0352 13.1181V7.06348H77.9822L80.9247 11.7734H80.9582L80.9247 10.6066V7.06348H81.7032V13.1181H80.8912L77.8127 8.17994H77.7792L77.8127 9.34676V13.1181H77.0352Z" fill="white" stroke="white" stroke-width="0.2" stroke-miterlimit="10"/>
<path d="M69.5284 21.95C68.6802 21.9532 67.852 22.2077 67.1484 22.6812C66.4447 23.1548 65.8972 23.8262 65.5748 24.6107C65.2525 25.3953 65.1698 26.2577 65.3372 27.0892C65.5047 27.9206 65.9147 28.6839 66.5156 29.2825C67.1165 29.8811 67.8813 30.2882 68.7134 30.4525C69.5455 30.6168 70.4076 30.5308 71.1909 30.2055C71.9741 29.8802 72.6435 29.33 73.1144 28.6246C73.5852 27.9191 73.8365 27.09 73.8365 26.2418C73.8449 25.6745 73.739 25.1114 73.5252 24.5858C73.3115 24.0603 72.9942 23.5831 72.5922 23.1827C72.1903 22.7823 71.7119 22.4668 71.1856 22.255C70.6592 22.0433 70.0956 21.9395 69.5284 21.95ZM69.5284 28.843C69.006 28.8802 68.4846 28.7593 68.0319 28.4961C67.5793 28.2328 67.2163 27.8394 66.9904 27.367C66.7645 26.8945 66.686 26.365 66.7652 25.8474C66.8444 25.3298 67.0777 24.848 67.4345 24.4648C67.7914 24.0815 68.2554 23.8146 68.7661 23.6988C69.2768 23.5829 69.8105 23.6235 70.2978 23.8153C70.7851 24.007 71.2033 24.341 71.4981 24.7738C71.7929 25.2066 71.9506 25.7182 71.9506 26.2418C71.9665 26.5726 71.916 26.9033 71.8021 27.2143C71.6882 27.5253 71.5133 27.8104 71.2876 28.0528C71.0619 28.2952 70.79 28.49 70.4878 28.6257C70.1857 28.7614 69.8595 28.8353 69.5284 28.843ZM60.1302 21.95C59.2821 21.9532 58.4539 22.2077 57.7502 22.6812C57.0465 23.1547 56.499 23.8261 56.1766 24.6107C55.8542 25.3952 55.7716 26.2576 55.939 27.0891C56.1064 27.9206 56.5165 28.6838 57.1173 29.2824C57.7182 29.881 58.483 30.2882 59.3151 30.4525C60.1472 30.6168 61.0093 30.5308 61.7926 30.2055C62.5759 29.8802 63.2452 29.3301 63.7161 28.6246C64.187 27.9191 64.4383 27.09 64.4383 26.2418C64.4466 25.6745 64.3408 25.1114 64.127 24.5858C63.9133 24.0603 63.596 23.5831 63.194 23.1827C62.7921 22.7823 62.3137 22.4668 61.7874 22.255C61.2611 22.0433 60.6975 21.9396 60.1302 21.95ZM60.1302 28.843C59.6079 28.8802 59.0865 28.7593 58.6338 28.4961C58.1811 28.2328 57.8182 27.8394 57.5923 27.367C57.3663 26.8945 57.2879 26.365 57.3671 25.8474C57.4463 25.3298 57.6795 24.848 58.0364 24.4648C58.3933 24.0815 58.8572 23.8146 59.3679 23.6988C59.8786 23.5829 60.4123 23.6235 60.8996 23.8153C61.3869 24.007 61.8052 24.341 62.1 24.7738C62.3948 25.2066 62.5525 25.7182 62.5525 26.2418C62.5683 26.5727 62.5179 26.9033 62.404 27.2143C62.2901 27.5253 62.1152 27.8104 61.8895 28.0528C61.6638 28.2952 61.3918 28.49 61.0897 28.6257C60.7876 28.7614 60.4614 28.8353 60.1302 28.843ZM48.9506 23.2669V25.0876H53.3076C53.2448 25.9416 52.8953 26.7494 52.3159 27.3799C51.8793 27.8249 51.3542 28.1735 50.7746 28.4031C50.1949 28.6327 49.5736 28.7382 48.9506 28.7129C47.6771 28.6957 46.4616 28.1777 45.5672 27.271C44.6727 26.3643 44.1712 25.1419 44.1712 23.8683C44.1712 22.5947 44.6727 21.3723 45.5672 20.4656C46.4616 19.559 47.6771 19.041 48.9506 19.0237C50.1739 19.0078 51.354 19.4751 52.2347 20.3243L53.5189 19.04C52.9181 18.4451 52.2045 17.9762 51.42 17.6608C50.6356 17.3453 49.796 17.1897 48.9506 17.2029C48.0672 17.1901 47.1899 17.353 46.37 17.6822C45.55 18.0114 44.8037 18.5003 44.1744 19.1205C43.5451 19.7407 43.0453 20.4798 42.7043 21.2949C42.3632 22.11 42.1875 22.9848 42.1875 23.8683C42.1875 24.7519 42.3632 25.6267 42.7043 26.4417C43.0453 27.2568 43.5451 27.9959 44.1744 28.6162C44.8037 29.2364 45.55 29.7253 46.37 30.0545C47.1899 30.3837 48.0672 30.5466 48.9506 30.5337C49.8139 30.5695 50.6749 30.4213 51.4765 30.099C52.2781 29.7767 53.002 29.2876 53.6002 28.6642C54.6621 27.505 55.2282 25.9761 55.1772 24.4049C55.1813 24.0233 55.1486 23.6422 55.0795 23.2669H48.9506ZM94.6712 24.6812C94.4132 23.9038 93.9223 23.2246 93.2649 22.736C92.6076 22.2474 91.8158 21.973 90.997 21.95C90.4456 21.9535 89.9006 22.0687 89.3949 22.2887C88.8893 22.5087 88.4335 22.829 88.0551 23.2301C87.6768 23.6313 87.3837 24.105 87.1936 24.6227C87.0035 25.1403 86.9203 25.6911 86.9491 26.2418C86.9367 26.8061 87.0381 27.3671 87.2474 27.8913C87.4566 28.4155 87.7694 28.8921 88.1669 29.2927C88.5645 29.6933 89.0387 30.0097 89.5613 30.2229C90.0839 30.4361 90.6441 30.5418 91.2084 30.5337C91.9155 30.5376 92.6124 30.3659 93.2366 30.0339C93.8609 29.7019 94.3929 29.2201 94.7849 28.6317L93.3218 27.6563C93.1026 28.0203 92.7926 28.3211 92.4221 28.5291C92.0516 28.7372 91.6334 28.8453 91.2084 28.843C90.7712 28.8597 90.339 28.7446 89.9679 28.5128C89.5969 28.2809 89.3041 27.9428 89.1275 27.5425L94.8663 25.169L94.6712 24.6812ZM88.8187 26.1119C88.7985 25.7995 88.8408 25.4862 88.9431 25.1904C89.0454 24.8946 89.2057 24.6221 89.4146 24.389C89.6235 24.1558 89.8768 23.9667 90.1597 23.8327C90.4425 23.6986 90.7493 23.6223 91.062 23.6083C91.3876 23.5869 91.7124 23.6618 91.9957 23.8237C92.279 23.9856 92.5084 24.2273 92.6553 24.5187L88.8187 26.1119ZM84.1528 30.2736H86.0386V17.6582H84.1528V30.2736ZM81.064 22.9092H80.999C80.7123 22.5977 80.3624 22.351 79.9727 22.1856C79.583 22.0202 79.1625 21.9399 78.7392 21.95C77.6325 21.9971 76.5868 22.4699 75.8204 23.2696C75.054 24.0693 74.6261 25.1342 74.6261 26.2419C74.6261 27.3496 75.054 28.4144 75.8204 29.2141C76.5868 30.0139 77.6325 30.4866 78.7392 30.5337C79.1641 30.545 79.5864 30.4636 79.9767 30.2952C80.3669 30.1267 80.7158 29.8753 80.999 29.5583H81.064V30.1761C81.064 31.8181 80.1862 32.6959 78.7717 32.6959C78.3003 32.6846 77.843 32.5333 77.4579 32.2611C77.0729 31.989 76.7776 31.6083 76.6096 31.1677L74.9676 31.8506C75.2771 32.6041 75.8045 33.248 76.4822 33.6998C77.16 34.1516 77.9572 34.3908 78.7717 34.3867C80.9827 34.3867 82.8523 33.0861 82.8523 29.916V22.2101H81.064V22.9092ZM78.9019 28.843C78.2501 28.7877 77.6428 28.4897 77.2002 28.008C76.7576 27.5263 76.512 26.896 76.512 26.2419C76.512 25.5877 76.7576 24.9574 77.2002 24.4757C77.6428 23.994 78.2501 23.696 78.9019 23.6408C79.2262 23.6566 79.5439 23.7376 79.8363 23.8788C80.1286 24.0201 80.3895 24.2188 80.6034 24.463C80.8173 24.7073 80.9798 24.9921 81.0813 25.3005C81.1828 25.6089 81.2211 25.9345 81.194 26.2581C81.2194 26.5796 81.1797 26.9029 81.0772 27.2088C80.9747 27.5146 80.8116 27.7966 80.5976 28.0379C80.3836 28.2792 80.1231 28.4749 79.8318 28.6132C79.5404 28.7515 79.2241 28.8297 78.9019 28.843ZM103.505 17.6584H98.9928V30.2736H100.876V25.4941H103.505C104.037 25.5233 104.57 25.4436 105.071 25.2599C105.572 25.0762 106.03 24.7923 106.417 24.4257C106.804 24.059 107.113 23.6172 107.324 23.1273C107.534 22.6374 107.643 22.1096 107.643 21.5763C107.643 21.0429 107.534 20.5151 107.324 20.0252C107.113 19.5353 106.804 19.0935 106.417 18.7269C106.03 18.3602 105.572 18.0763 105.071 17.8926C104.57 17.7089 104.037 17.6292 103.505 17.6584ZM103.553 23.7385H100.876V19.4142H103.553C103.841 19.4082 104.127 19.4597 104.395 19.5657C104.662 19.6717 104.906 19.83 105.111 20.0314C105.317 20.2327 105.48 20.4731 105.592 20.7384C105.703 21.0037 105.761 21.2885 105.761 21.5763C105.761 21.8641 105.703 22.149 105.592 22.4142C105.48 22.6795 105.317 22.9199 105.111 23.1213C104.906 23.3226 104.662 23.4809 104.395 23.5869C104.127 23.6929 103.841 23.7444 103.553 23.7385ZM115.19 21.9268C114.503 21.8867 113.819 22.0481 113.222 22.3912C112.625 22.7342 112.142 23.2441 111.83 23.8581L113.502 24.556C113.668 24.2513 113.919 24.0014 114.224 23.8371C114.53 23.6728 114.877 23.6011 115.222 23.6309C115.7 23.5843 116.177 23.7289 116.548 24.0331C116.919 24.3373 117.154 24.7763 117.202 25.2538V25.3837C116.598 25.0625 115.923 24.8952 115.239 24.8968C113.437 24.8968 111.603 25.8868 111.603 27.737C111.621 28.1269 111.716 28.5094 111.884 28.8616C112.053 29.2139 112.29 29.5288 112.582 29.7876C112.874 30.0464 113.215 30.244 113.585 30.3684C113.955 30.4929 114.346 30.5418 114.735 30.5122C115.21 30.5401 115.682 30.4404 116.105 30.2235C116.527 30.0066 116.884 29.6804 117.138 29.2788H117.202V30.2526H119.02V25.4162C119.02 23.1765 117.348 21.9268 115.19 21.9268ZM114.963 28.8406C114.346 28.8406 113.486 28.5323 113.486 27.7694C113.486 26.7957 114.557 26.4224 115.482 26.4224C116.083 26.4064 116.677 26.5521 117.202 26.8444C117.133 27.3915 116.868 27.8952 116.457 28.2621C116.045 28.6291 115.514 28.8346 114.963 28.8406ZM125.642 22.2027L123.483 27.672H123.418L121.179 22.2027H119.15L122.509 29.8468L120.594 34.099H122.558L127.735 22.2027H125.642ZM108.682 30.2736H110.564V17.6584H108.682V30.2736Z" fill="white"/>
<path d="M11.3027 7.60646C10.9718 8.0021 10.8047 8.5093 10.8357 9.02415V31.3415C10.8046 31.8563 10.9717 32.3635 11.3027 32.7591L11.3774 32.8319L23.8791 20.3303V20.0353L11.3774 7.5332L11.3027 7.60646Z" fill="url(#paint0_linear)"/>
<path d="M28.0459 24.4991L23.8789 20.3301V20.0352L28.0469 15.8672L28.1408 15.9208L33.0781 18.7262C34.4885 19.5274 34.4885 20.8384 33.0781 21.6401L28.1408 24.4455L28.0459 24.4991Z" fill="url(#paint1_linear)"/>
<path d="M28.1391 24.4449L23.8772 20.1826L11.3008 32.7589C11.5881 33.0123 11.9551 33.1573 12.3381 33.1686C12.7211 33.1799 13.096 33.0569 13.3978 32.8209L28.1391 24.4449Z" fill="url(#paint2_linear)"/>
<path d="M28.1391 15.9207L13.3978 7.54474C13.096 7.30871 12.7211 7.18569 12.3381 7.19701C11.9551 7.20832 11.5881 7.35326 11.3008 7.6067L23.8772 20.1831L28.1391 15.9207Z" fill="url(#paint3_linear)"/>
<path opacity="0.2" d="M28.0451 24.3516L13.3978 32.6739C13.1076 32.8948 12.7534 33.0154 12.3887 33.0173C12.024 33.0192 11.6685 32.9025 11.376 32.6847L11.3008 32.7599L11.3755 32.8326L11.376 32.8321C11.6685 33.0501 12.0239 33.1669 12.3887 33.1649C12.7534 33.163 13.1076 33.0424 13.3978 32.8213L28.1391 24.4454L28.0451 24.3516Z" fill="black"/>
<path opacity="0.12" d="M11.3027 32.612C10.9718 32.2164 10.8047 31.7092 10.8357 31.1943V31.3418C10.8047 31.8566 10.9718 32.3638 11.3027 32.7594L11.3779 32.6843L11.3027 32.612Z" fill="black"/>
<path opacity="0.12" d="M33.0781 21.4927L28.0469 24.3517L28.1408 24.4455L33.0781 21.6401C33.3686 21.5141 33.6199 21.3125 33.8059 21.0563C33.992 20.8001 34.106 20.4988 34.136 20.1836C34.0736 20.469 33.9454 20.7359 33.7618 20.9632C33.5782 21.1904 33.3441 21.3717 33.0781 21.4927Z" fill="black"/>
<path opacity="0.25" d="M13.4 7.69219L33.0786 18.873C33.3446 18.9939 33.5788 19.1753 33.7624 19.4026C33.9461 19.63 34.0741 19.8971 34.1364 20.1826C34.1066 19.8673 33.9927 19.5658 33.8067 19.3095C33.6206 19.0532 33.3692 18.8515 33.0786 18.7256L13.4 7.54476C11.9896 6.74343 10.8359 7.40903 10.8359 9.0244V9.17183C10.8359 7.55657 11.9896 6.89096 13.4 7.69219Z" fill="white"/>
<defs>
<linearGradient id="paint0_linear" x1="22.7704" y1="8.78883" x2="5.83534" y2="25.7239" gradientUnits="userSpaceOnUse">
<stop stop-color="#00A0FF"/>
<stop offset="0.00657" stop-color="#00A1FF"/>
<stop offset="0.2601" stop-color="#00BEFF"/>
<stop offset="0.5122" stop-color="#00D2FF"/>
<stop offset="0.7604" stop-color="#00DFFF"/>
<stop offset="1" stop-color="#00E3FF"/>
</linearGradient>
<linearGradient id="paint1_linear" x1="34.9144" y1="20.1832" x2="10.4973" y2="20.1832" gradientUnits="userSpaceOnUse">
<stop stop-color="#FFE000"/>
<stop offset="0.4087" stop-color="#FFBD00"/>
<stop offset="0.7754" stop-color="#FFA500"/>
<stop offset="1" stop-color="#FF9C00"/>
</linearGradient>
<linearGradient id="paint2_linear" x1="25.8233" y1="22.4986" x2="2.85793" y2="45.4639" gradientUnits="userSpaceOnUse">
<stop stop-color="#FF3A44"/>
<stop offset="1" stop-color="#C31162"/>
</linearGradient>
<linearGradient id="paint3_linear" x1="8.13416" y1="0.1779" x2="18.3891" y2="10.4329" gradientUnits="userSpaceOnUse">
<stop stop-color="#32A071"/>
<stop offset="0.0685" stop-color="#2DA771"/>
<stop offset="0.4762" stop-color="#15CF74"/>
<stop offset="0.8009" stop-color="#06E775"/>
<stop offset="1" stop-color="#00F076"/>
</linearGradient>
</defs>
</svg>
