<svg width="35" height="35" viewBox="0 0 35 35" fill="none" xmlns="http://www.w3.org/2000/svg">
<path d="M20.6349 34.9524H14.4348C7.0372 34.9524 0.97876 28.9004 0.97876 21.4963V14.2854C0.97876 6.88779 7.03076 0.829346 14.4348 0.829346H21.2208C28.2965 0.829346 34.0909 6.61738 34.0909 13.6995V21.4963C34.0909 28.9004 28.0325 34.9524 20.6349 34.9524Z" fill="#0B1F69"/>
<path d="M17.5107 9.61107C20.1826 9.61107 20.4981 9.62394 21.5539 9.66901C22.5261 9.71408 23.0605 9.88148 23.4082 10.0231C23.8717 10.2098 24.2065 10.4352 24.5606 10.7957C24.9083 11.1563 25.1272 11.4975 25.3075 11.9804C25.4427 12.3409 25.6101 12.8882 25.6487 13.8925C25.6938 14.9806 25.7066 15.3025 25.7066 18.0581C25.7066 20.8073 25.6938 21.1356 25.6487 22.2237C25.6036 23.2281 25.4427 23.7753 25.3075 24.1359C25.1272 24.6188 24.9083 24.96 24.5606 25.3205C24.213 25.6811 23.8782 25.9064 23.4082 26.0931C23.0541 26.2348 22.5261 26.4022 21.5539 26.4472C20.4981 26.4987 20.1826 26.5052 17.5107 26.5052C14.8388 26.5052 14.5233 26.4923 13.4674 26.4472C12.4952 26.4022 11.9609 26.2348 11.6132 26.0931C11.1432 25.9064 10.8148 25.6811 10.4607 25.3205C10.1131 24.96 9.89416 24.6188 9.71389 24.1359C9.57868 23.7753 9.41129 23.2281 9.37266 22.2237C9.32759 21.1356 9.31471 20.8137 9.31471 18.0581C9.31471 15.309 9.32759 14.9806 9.37266 13.8925C9.41773 12.8882 9.57868 12.3409 9.71389 11.9804C9.89416 11.4975 10.1131 11.1563 10.4607 10.7957C10.8084 10.4352 11.1432 10.2098 11.6132 10.0231C11.9673 9.88148 12.4952 9.71408 13.4674 9.66901C14.5233 9.62394 14.8388 9.61107 17.5107 9.61107ZM17.5107 7.75684C14.7937 7.75684 14.4525 7.76971 13.3902 7.82122C12.3278 7.87273 11.6003 8.04656 10.9629 8.29765C10.3062 8.56162 9.74608 8.91573 9.19239 9.48874C8.63869 10.0618 8.29747 10.6348 8.03993 11.3172C7.79528 11.9739 7.62144 12.7208 7.57637 13.8217C7.52487 14.9227 7.51843 15.2703 7.51843 18.071C7.51843 20.8717 7.53131 21.2193 7.57637 22.3203C7.62144 23.4148 7.79528 24.1681 8.03993 24.8248C8.29747 25.5008 8.63869 26.0803 9.19239 26.6533C9.74608 27.2263 10.3062 27.5804 10.9629 27.8444C11.6003 28.1019 12.3278 28.2757 13.3902 28.3208C14.4589 28.3723 14.8001 28.3852 17.5107 28.3852C20.2276 28.3852 20.5689 28.3723 21.6312 28.3208C22.6935 28.2693 23.421 28.0954 24.0584 27.8444C24.7151 27.5804 25.2753 27.2263 25.829 26.6533C26.3827 26.0803 26.7303 25.5072 26.9814 24.8248C27.2261 24.1681 27.3999 23.4212 27.445 22.3203C27.4965 21.2193 27.5029 20.8717 27.5029 18.071C27.5029 15.2703 27.49 14.9227 27.445 13.8217C27.3999 12.7272 27.2261 11.9739 26.9814 11.3172C26.7239 10.6412 26.3827 10.0618 25.829 9.48874C25.2753 8.91573 24.7151 8.56162 24.0584 8.29765C23.421 8.04012 22.6935 7.86629 21.6312 7.82122C20.5624 7.76971 20.2276 7.75684 17.5107 7.75684Z" fill="white"/>
<path d="M17.5111 12.7722C14.6718 12.7722 12.3733 15.1415 12.3733 18.0645C12.3733 20.9875 14.6718 23.3568 17.5111 23.3568C20.3503 23.3568 22.6488 20.9875 22.6488 18.0645C22.6424 15.1415 20.3439 12.7722 17.5111 12.7722ZM17.5111 21.4961C15.6697 21.4961 14.176 19.9574 14.176 18.0581C14.176 16.1588 15.6697 14.62 17.5111 14.62C19.3524 14.62 20.8461 16.1588 20.8461 18.0581C20.8397 19.9574 19.3524 21.4961 17.5111 21.4961Z" fill="white"/>
<path d="M24.0465 12.5599C24.0465 13.2423 23.5121 13.796 22.849 13.796C22.1858 13.796 21.6514 13.2423 21.6514 12.5599C21.6514 11.8774 22.1858 11.3237 22.849 11.3237C23.5121 11.3237 24.0465 11.8774 24.0465 12.5599Z" fill="white"/>
</svg>
