<svg width="34" height="35" viewBox="0 0 34 35" fill="none" xmlns="http://www.w3.org/2000/svg">
<path d="M19.9506 34.9524H13.7505C6.3529 34.9524 0.294434 28.9004 0.294434 21.4963V14.2854C0.294434 6.88779 6.34646 0.829346 13.7505 0.829346H20.5365C27.6122 0.829346 33.4067 6.61738 33.4067 13.6995V21.4963C33.4067 28.9004 27.3547 34.9524 19.9506 34.9524Z" fill="#0B1F69"/>
<path d="M8.52364 14.607H12.0969V26.4406H8.52364V14.607ZM10.3135 8.72241C11.4531 8.72241 12.3802 9.67528 12.3802 10.8535C12.3802 12.0317 11.4531 12.9846 10.3135 12.9846C9.16747 12.9846 8.24036 12.0317 8.24036 10.8535C8.24036 9.68172 9.16747 8.72241 10.3135 8.72241Z" fill="white"/>
<path d="M14.3375 14.6072H17.7563V16.2232H17.8078C18.2842 15.2897 19.4495 14.311 21.1879 14.311C24.7998 14.311 25.4694 16.764 25.4694 19.951V26.4408H21.9026V20.685C21.9026 19.3136 21.8768 17.5431 20.0483 17.5431C18.1876 17.5431 17.9043 19.0367 17.9043 20.5819V26.4344H14.3375V14.6072V14.6072Z" fill="white"/>
</svg>
