<svg width="370" height="339" viewBox="0 0 370 339" fill="none" xmlns="http://www.w3.org/2000/svg">
<path d="M105.715 187.449C104.678 187.103 103.943 186.887 102.776 186.499C103.857 185.246 104.548 184.21 105.456 183.346C115.007 174.277 124.602 165.25 134.196 156.224C137.74 152.899 140.722 149.185 143.099 144.952C143.964 143.397 145.087 141.843 146.427 140.806C147.248 140.158 148.977 140.029 149.928 140.461C151.354 141.108 150.662 142.577 150.057 143.656C146.6 149.876 142.883 155.965 139.642 162.314C137.87 165.725 136.573 169.44 135.579 173.154C134.671 176.609 137.351 178.898 140.679 177.473C143.402 176.306 145.952 174.579 148.329 172.765C150.922 170.735 153.212 168.274 155.719 166.114C156.41 165.509 157.491 165.294 158.355 164.948C158.528 165.164 158.658 165.38 158.831 165.553C158.096 166.762 157.491 168.058 156.627 169.18C150.576 176.695 143.402 182.957 135.449 188.399C134.931 188.745 134.326 189.047 133.721 189.306C130.739 190.645 128.664 189.781 127.627 186.715C126.114 182.31 126.33 177.775 126.892 173.283C127.022 172.247 127.238 171.167 127.497 169.483C125.034 171.469 123.046 173.111 121.014 174.752C119.07 176.35 117.254 177.904 116.174 180.366C115.31 182.31 113.883 183.994 112.457 185.635C106.623 192.588 100.702 199.412 94.8239 206.322C84.6676 218.242 71.5291 225.065 56.5322 228.65C51.0435 229.946 45.5547 231.025 39.8931 230.032C34.7933 229.125 31.8976 226.577 30.8172 221.524C29.9528 217.508 29.0884 213.491 28.7427 209.431C28.3969 205.372 28.6562 201.269 28.6562 196.993C19.6668 201.614 11.8442 208.438 3.58944 214.657C3.37334 214.484 3.15725 214.355 2.98438 214.182C3.24369 213.275 3.33012 212.239 3.84875 211.548C5.57749 209.259 7.17658 206.797 9.29429 204.897C14.6102 200.146 20.1854 195.741 25.6309 191.12C26.5817 190.299 27.3597 189.22 28.0944 188.183C28.7427 187.319 29.0884 186.24 29.7799 185.419C34.4475 179.632 37.0839 172.895 39.6338 165.985C45.8572 149.012 54.5874 133.162 63.4472 117.442C72.8257 100.771 81.988 83.971 90.1995 66.7391C95.04 56.5899 101.869 47.7365 109.086 39.2285C116.563 30.4613 124.256 21.9102 132.208 13.5749C138.432 7.09676 145.865 2.47567 154.725 0.445847C155.157 0.359472 155.589 0.273096 155.978 0.186721C163.455 -0.849786 166.826 2.43248 166.048 9.94716C165.616 14.0068 165.53 18.1096 164.881 22.1261C163.542 30.6341 160.214 38.4511 155.676 45.6634C150.057 54.6033 144.05 63.3272 138.172 72.1375C136.832 74.1674 135.363 76.154 134.196 78.3134C121.792 101.16 105.888 121.458 89.0759 141.152C76.2399 156.181 62.7989 170.562 47.7156 183.389C47.2402 183.778 46.8513 184.339 46.6784 184.901C45.1225 189.436 43.6531 194.013 42.1404 198.591C40.9735 202.09 40.2388 205.631 40.9735 209.388C41.6218 212.627 43.3073 215.132 46.1598 216.687C51.5189 219.667 57.3534 220.66 63.2743 218.976C66.559 218.026 69.541 216.169 72.6096 214.614C77.5797 212.066 82.5498 209.388 87.4768 206.754C88.0386 206.452 88.6437 206.106 89.0326 205.631C94.5646 199.671 100.053 193.668 105.715 187.449ZM154.336 25.9266C153.947 22.8603 152.996 21.3919 150.101 20.96C148.329 20.7009 146.124 20.5282 144.698 21.3055C140.809 23.4217 136.746 25.5811 133.677 28.6475C128.318 34.0027 123.262 39.7899 118.724 45.8794C107.012 61.5997 97.2874 78.6157 88.2547 95.934C80.0432 111.741 72.1774 127.72 64.3548 143.743C62.6261 147.241 61.8049 151.171 60.6812 154.972C60.4651 155.749 60.638 157.217 61.1566 157.477C61.9778 157.908 63.2743 157.952 64.1387 157.563C65.5217 157.001 66.8183 156.138 67.8987 155.101C71.5723 151.56 75.3755 148.148 78.7466 144.304C100.745 119.299 121.36 93.2564 137.092 63.7591C141.759 55.0352 146.384 46.2249 150.662 37.3282C152.391 33.7868 153.126 29.7272 154.336 25.9266Z" fill="#122D97"/>
<path d="M105.715 187.449C104.678 187.103 103.943 186.887 102.776 186.499C103.857 185.246 104.548 184.21 105.456 183.346C115.007 174.277 124.602 165.25 134.196 156.224C137.74 152.899 140.722 149.185 143.099 144.952C143.964 143.397 145.087 141.843 146.427 140.806C147.248 140.158 148.977 140.029 149.928 140.461C151.354 141.108 150.662 142.577 150.057 143.656C146.6 149.876 142.883 155.965 139.642 162.314C137.87 165.725 136.573 169.44 135.579 173.154C134.671 176.609 137.351 178.898 140.679 177.473C143.402 176.306 145.952 174.579 148.329 172.765C150.922 170.735 153.212 168.274 155.719 166.114C156.41 165.509 157.491 165.294 158.355 164.948C158.528 165.164 158.658 165.38 158.831 165.553C158.096 166.762 157.491 168.058 156.627 169.18C150.576 176.695 143.402 182.957 135.449 188.399C134.931 188.745 134.326 189.047 133.721 189.306C130.739 190.645 128.664 189.781 127.627 186.715C126.114 182.31 126.33 177.775 126.892 173.283C127.022 172.247 127.238 171.167 127.497 169.483C125.034 171.469 123.046 173.111 121.014 174.752C119.07 176.35 117.254 177.904 116.174 180.366C115.31 182.31 113.883 183.994 112.457 185.635C106.623 192.588 100.702 199.412 94.8239 206.322C84.6676 218.242 71.5291 225.065 56.5322 228.65C51.0435 229.946 45.5547 231.025 39.8931 230.032C34.7933 229.125 31.8976 226.577 30.8172 221.524C29.9528 217.508 29.0884 213.491 28.7427 209.431C28.3969 205.372 28.6562 201.269 28.6562 196.993C19.6668 201.614 11.8442 208.438 3.58944 214.657C3.37334 214.484 3.15725 214.355 2.98438 214.182C3.24369 213.275 3.33012 212.239 3.84875 211.548C5.57749 209.259 7.17658 206.797 9.29429 204.897C14.6102 200.146 20.1854 195.741 25.6309 191.12C26.5817 190.299 27.3597 189.22 28.0944 188.183C28.7427 187.319 29.0884 186.24 29.7799 185.419C34.4475 179.632 37.0839 172.895 39.6338 165.985C45.8572 149.012 54.5874 133.162 63.4472 117.442C72.8257 100.771 81.988 83.971 90.1995 66.7391C95.04 56.5899 101.869 47.7365 109.086 39.2285C116.563 30.4613 124.256 21.9102 132.208 13.5749C138.432 7.09676 145.865 2.47567 154.725 0.445847C155.157 0.359472 155.589 0.273096 155.978 0.186721C163.455 -0.849786 166.826 2.43248 166.048 9.94716C165.616 14.0068 165.53 18.1096 164.881 22.1261C163.542 30.6341 160.214 38.4511 155.676 45.6634C150.057 54.6033 144.05 63.3272 138.172 72.1375C136.832 74.1674 135.363 76.154 134.196 78.3134C121.792 101.16 105.888 121.458 89.0759 141.152C76.2399 156.181 62.7989 170.562 47.7156 183.389C47.2402 183.778 46.8513 184.339 46.6784 184.901C45.1225 189.436 43.6531 194.013 42.1404 198.591C40.9735 202.09 40.2388 205.631 40.9735 209.388C41.6218 212.627 43.3073 215.132 46.1598 216.687C51.5189 219.667 57.3534 220.66 63.2743 218.976C66.559 218.026 69.541 216.169 72.6096 214.614C77.5797 212.066 82.5498 209.388 87.4768 206.754C88.0386 206.452 88.6437 206.106 89.0326 205.631C94.5646 199.671 100.053 193.668 105.715 187.449ZM154.336 25.9266C153.947 22.8603 152.996 21.3919 150.101 20.96C148.329 20.7009 146.124 20.5282 144.698 21.3055C140.809 23.4217 136.746 25.5811 133.677 28.6475C128.318 34.0027 123.262 39.7899 118.724 45.8794C107.012 61.5997 97.2874 78.6157 88.2547 95.934C80.0432 111.741 72.1774 127.72 64.3548 143.743C62.6261 147.241 61.8049 151.171 60.6812 154.972C60.4651 155.749 60.638 157.217 61.1566 157.477C61.9778 157.908 63.2743 157.952 64.1387 157.563C65.5217 157.001 66.8183 156.138 67.8987 155.101C71.5723 151.56 75.3755 148.148 78.7466 144.304C100.745 119.299 121.36 93.2564 137.092 63.7591C141.759 55.0352 146.384 46.2249 150.662 37.3282C152.391 33.7868 153.126 29.7272 154.336 25.9266Z" fill="#122D97"/>
<path d="M215.016 160.458C225.259 151 235.459 141.499 245.788 132.041C253.049 125.39 260.266 118.652 267.786 112.304C272.843 108.028 278.504 104.53 284.987 102.63C288.92 101.464 291.643 103.018 292.637 106.992C292.81 107.726 292.68 108.503 292.68 109.799C288.618 106.905 284.944 107.769 281.789 109.713C275.609 113.513 269.385 117.357 263.81 121.935C255.123 129.104 246.782 136.791 238.614 144.565C234.292 148.668 230.661 153.462 226.685 157.91C220.764 164.518 214.368 170.564 207.323 176.006C202.051 180.065 197.34 184.902 192.37 189.351C190.641 190.906 188.999 192.46 187.14 193.842C185.973 194.749 184.59 195.527 183.164 195.915C182.127 196.218 180.874 195.829 179.707 195.786C179.88 194.706 179.663 193.367 180.225 192.547C182.948 188.573 185.714 184.643 188.696 180.843C193.926 174.149 199.976 168.146 203.996 160.545C209.744 149.791 214.498 138.648 216.442 126.513C216.788 124.267 216.27 121.848 215.967 119.516C215.665 117.4 214.065 116.839 212.25 117.357C210.392 117.875 208.49 118.523 206.891 119.516C195.525 126.556 185.671 135.323 177.416 145.818C175.082 148.754 173.742 152.037 174.261 156.01C174.866 160.976 176.984 163.74 181.824 165.079C182.905 165.382 184.288 165.598 183.769 166.98C183.553 167.584 181.997 168.146 181.133 168.016C178.799 167.671 176.508 167.066 174.261 166.332C169.421 164.777 167.13 161.192 166.828 156.269C166.784 155.362 167.173 154.326 167.605 153.419C172.057 144.392 178.41 136.835 185.541 129.795C190.9 124.526 196.475 119.516 203.045 115.845C206.848 113.729 210.91 111.915 215.059 110.62C221.413 108.633 225.864 112.045 226.253 118.696C226.599 124.396 225.086 129.838 223.314 135.15C220.764 142.794 217.998 150.352 215.319 157.91C215.103 158.558 214.887 159.249 214.671 159.897C214.671 160.199 214.843 160.329 215.016 160.458Z" fill="#122D97"/>
<path d="M215.016 160.458C225.259 151 235.459 141.499 245.788 132.041C253.049 125.39 260.266 118.652 267.786 112.304C272.843 108.028 278.504 104.53 284.987 102.63C288.92 101.464 291.643 103.018 292.637 106.992C292.81 107.726 292.68 108.503 292.68 109.799C288.618 106.905 284.944 107.769 281.789 109.713C275.609 113.513 269.385 117.357 263.81 121.935C255.123 129.104 246.782 136.791 238.614 144.565C234.292 148.668 230.661 153.462 226.685 157.91C220.764 164.518 214.368 170.564 207.323 176.006C202.051 180.065 197.34 184.902 192.37 189.351C190.641 190.906 188.999 192.46 187.14 193.842C185.973 194.749 184.59 195.527 183.164 195.915C182.127 196.218 180.874 195.829 179.707 195.786C179.88 194.706 179.663 193.367 180.225 192.547C182.948 188.573 185.714 184.643 188.696 180.843C193.926 174.149 199.976 168.146 203.996 160.545C209.744 149.791 214.498 138.648 216.442 126.513C216.788 124.267 216.27 121.848 215.967 119.516C215.665 117.4 214.065 116.839 212.25 117.357C210.392 117.875 208.49 118.523 206.891 119.516C195.525 126.556 185.671 135.323 177.416 145.818C175.082 148.754 173.742 152.037 174.261 156.01C174.866 160.976 176.984 163.74 181.824 165.079C182.905 165.382 184.288 165.598 183.769 166.98C183.553 167.584 181.997 168.146 181.133 168.016C178.799 167.671 176.508 167.066 174.261 166.332C169.421 164.777 167.13 161.192 166.828 156.269C166.784 155.362 167.173 154.326 167.605 153.419C172.057 144.392 178.41 136.835 185.541 129.795C190.9 124.526 196.475 119.516 203.045 115.845C206.848 113.729 210.91 111.915 215.059 110.62C221.413 108.633 225.864 112.045 226.253 118.696C226.599 124.396 225.086 129.838 223.314 135.15C220.764 142.794 217.998 150.352 215.319 157.91C215.103 158.558 214.887 159.249 214.671 159.897C214.671 160.199 214.843 160.329 215.016 160.458Z" fill="#122D97"/>
<path d="M355.91 116.363C355.651 117.313 355.608 118.393 355.046 119.127C344.544 133.336 331.362 143.744 313.902 147.976C306.555 149.747 300.59 147.804 296.312 141.628C294.281 138.734 292.984 135.279 291.385 132.083C291.039 131.392 290.823 130.615 290.434 129.665C287.149 134.545 284.297 139.512 279.197 142.535C278.808 142.751 278.29 142.751 277.166 143.01C278.074 141.369 278.635 140.159 279.37 139.08C282.266 134.891 285.118 130.615 288.187 126.555C290.521 123.489 291.515 120.034 291.817 116.363C292.249 110.36 293.892 104.789 297.695 99.9948C300.72 96.1511 303.27 91.8323 306.728 88.5069C314.118 81.3809 323.28 78.4873 333.437 79.6966C339.141 80.3876 342.037 85.311 340.395 90.839C339.574 93.5599 338.364 96.2375 336.851 98.656C330.584 108.589 323.54 117.918 313.729 124.828C310.315 127.203 307.246 130.097 304.091 132.818C301.455 135.063 301.973 138.216 305.215 139.468C308.716 140.807 312.346 140.937 316.02 139.944C326.003 137.266 334.776 132.386 342.685 125.778C346.013 123.014 349.298 120.25 352.669 117.529C353.404 116.924 354.311 116.493 355.132 115.974C355.392 116.061 355.651 116.233 355.91 116.363ZM300.677 118.695C300.807 122.15 302.579 123.316 305.647 121.805C306.814 121.243 307.938 120.552 308.888 119.688C312.735 116.104 316.495 112.476 320.255 108.805C323.799 105.35 326.651 101.463 328.207 96.6694C329.158 93.7326 328.423 91.8323 325.484 91.055C324.231 90.7095 322.718 90.6231 321.465 90.8822C315.458 92.1778 310.315 95.0282 307.419 100.643C305.172 105.048 303.4 109.669 301.541 114.247C301.023 115.629 300.979 117.184 300.677 118.695Z" fill="#122D97"/>
<path d="M355.91 116.363C355.651 117.313 355.608 118.393 355.046 119.127C344.544 133.336 331.362 143.744 313.902 147.976C306.555 149.747 300.59 147.804 296.312 141.628C294.281 138.734 292.984 135.279 291.385 132.083C291.039 131.392 290.823 130.615 290.434 129.665C287.149 134.545 284.297 139.512 279.197 142.535C278.808 142.751 278.29 142.751 277.166 143.01C278.074 141.369 278.635 140.159 279.37 139.08C282.266 134.891 285.118 130.615 288.187 126.555C290.521 123.489 291.515 120.034 291.817 116.363C292.249 110.36 293.892 104.789 297.695 99.9948C300.72 96.1511 303.27 91.8323 306.728 88.5069C314.118 81.3809 323.28 78.4873 333.437 79.6966C339.141 80.3876 342.037 85.311 340.395 90.839C339.574 93.5599 338.364 96.2375 336.851 98.656C330.584 108.589 323.54 117.918 313.729 124.828C310.315 127.203 307.246 130.097 304.091 132.818C301.455 135.063 301.973 138.216 305.215 139.468C308.716 140.807 312.346 140.937 316.02 139.944C326.003 137.266 334.776 132.386 342.685 125.778C346.013 123.014 349.298 120.25 352.669 117.529C353.404 116.924 354.311 116.493 355.132 115.974C355.392 116.061 355.651 116.233 355.91 116.363ZM300.677 118.695C300.807 122.15 302.579 123.316 305.647 121.805C306.814 121.243 307.938 120.552 308.888 119.688C312.735 116.104 316.495 112.476 320.255 108.805C323.799 105.35 326.651 101.463 328.207 96.6694C329.158 93.7326 328.423 91.8323 325.484 91.055C324.231 90.7095 322.718 90.6231 321.465 90.8822C315.458 92.1778 310.315 95.0282 307.419 100.643C305.172 105.048 303.4 109.669 301.541 114.247C301.023 115.629 300.979 117.184 300.677 118.695Z" fill="#122D97"/>
<path d="M312.045 195.612C305.303 195.914 299.079 196.174 292.856 196.476C292.078 196.519 291.257 196.778 290.479 196.649C289.744 196.519 289.096 196.044 288.404 195.698C289.009 195.18 289.528 194.36 290.219 194.23C293.331 193.669 296.443 193.107 299.598 192.848C304.136 192.503 308.674 192.503 313.169 192.114C314.292 192.028 315.675 191.337 316.41 190.516C321.639 184.297 326.782 177.992 331.882 171.686C334.821 168.058 337.976 164.69 342.86 163.826C344.027 163.61 345.972 163.74 346.317 164.431C346.836 165.337 346.663 167.238 346.015 168.145C343.335 171.686 340.526 175.141 337.457 178.38C334.13 181.878 330.499 185.031 326.999 188.357C326.653 188.702 326.35 189.091 326.048 189.479C339.748 188.4 353.103 186.37 365.766 181.015C366.414 180.756 367.192 180.28 367.797 180.41C368.575 180.54 369.266 181.231 370.001 181.662C369.569 182.267 369.266 183.217 368.705 183.433C358.807 186.975 348.738 189.911 338.235 191.121C333.654 191.639 329.073 192.243 324.535 192.891C323.714 193.021 322.72 193.539 322.201 194.23C319.176 198.419 315.589 202.349 313.428 206.97C306.297 222.259 296.227 235.69 287.065 249.683C285.898 251.454 284.471 253.138 282.872 254.607C282.181 255.254 280.539 255.643 279.847 255.254C279.199 254.866 278.939 253.268 279.026 252.274C279.112 251.281 279.761 250.245 280.366 249.381C283.521 245.105 286.762 240.873 289.917 236.597C291.17 234.913 292.38 233.229 293.504 231.458C300.246 220.661 306.34 209.519 311.181 197.728C311.353 197.21 311.569 196.735 312.045 195.612Z" fill="#122D97"/>
<path d="M312.045 195.612C305.303 195.914 299.079 196.174 292.856 196.476C292.078 196.519 291.257 196.778 290.479 196.649C289.744 196.519 289.096 196.044 288.404 195.698C289.009 195.18 289.528 194.36 290.219 194.23C293.331 193.669 296.443 193.107 299.598 192.848C304.136 192.503 308.674 192.503 313.169 192.114C314.292 192.028 315.675 191.337 316.41 190.516C321.639 184.297 326.782 177.992 331.882 171.686C334.821 168.058 337.976 164.69 342.86 163.826C344.027 163.61 345.972 163.74 346.317 164.431C346.836 165.337 346.663 167.238 346.015 168.145C343.335 171.686 340.526 175.141 337.457 178.38C334.13 181.878 330.499 185.031 326.999 188.357C326.653 188.702 326.35 189.091 326.048 189.479C339.748 188.4 353.103 186.37 365.766 181.015C366.414 180.756 367.192 180.28 367.797 180.41C368.575 180.54 369.266 181.231 370.001 181.662C369.569 182.267 369.266 183.217 368.705 183.433C358.807 186.975 348.738 189.911 338.235 191.121C333.654 191.639 329.073 192.243 324.535 192.891C323.714 193.021 322.72 193.539 322.201 194.23C319.176 198.419 315.589 202.349 313.428 206.97C306.297 222.259 296.227 235.69 287.065 249.683C285.898 251.454 284.471 253.138 282.872 254.607C282.181 255.254 280.539 255.643 279.847 255.254C279.199 254.866 278.939 253.268 279.026 252.274C279.112 251.281 279.761 250.245 280.366 249.381C283.521 245.105 286.762 240.873 289.917 236.597C291.17 234.913 292.38 233.229 293.504 231.458C300.246 220.661 306.34 209.519 311.181 197.728C311.353 197.21 311.569 196.735 312.045 195.612Z" fill="#122D97"/>
<path d="M158.918 230.896C155.288 230.896 152.003 230.896 148.719 230.896C147.509 230.896 146.255 230.896 145.088 230.767C144.57 230.68 144.138 230.162 143.662 229.86C144.051 229.342 144.31 228.651 144.829 228.348C145.477 228.003 146.298 227.916 147.076 227.873C151.528 227.614 155.979 227.485 160.431 227.139C161.425 227.053 162.635 226.448 163.283 225.671C168.556 219.408 173.742 213.017 178.885 206.668C181.824 203.04 184.979 199.672 189.863 198.851C190.987 198.635 192.802 198.808 193.364 199.499C193.925 200.19 193.709 202.177 193.104 202.997C190.381 206.582 187.529 210.123 184.417 213.405C181.262 216.774 177.805 219.797 174.391 222.95C173.872 223.425 173.094 223.598 172.446 223.943C172.662 224.202 172.921 224.418 173.137 224.677C177.2 224.159 181.262 223.641 185.325 223.166C186.362 223.036 187.788 222.734 187.832 224.202C187.832 224.807 186.535 225.887 185.671 226.016C182.429 226.621 179.101 227.312 175.86 227.312C171.322 227.312 168.21 229.298 165.963 232.969C163.111 237.72 160.085 242.341 157.622 247.308C153.343 255.816 148.459 263.892 142.798 271.579C139.643 275.855 136.963 280.476 133.938 284.881C132.728 286.652 131.302 288.336 129.746 289.761C129.097 290.366 127.542 290.711 126.893 290.323C126.245 289.977 125.899 288.466 126.029 287.559C126.159 286.479 126.72 285.356 127.412 284.449C130.437 280.26 133.635 276.157 136.661 271.968C138.217 269.809 139.686 267.606 141.112 265.403C147.811 255.082 153.43 244.155 158.184 232.797C158.356 232.192 158.573 231.76 158.918 230.896Z" fill="#122D97"/>
<path d="M158.918 230.896C155.288 230.896 152.003 230.896 148.719 230.896C147.509 230.896 146.255 230.896 145.088 230.767C144.57 230.68 144.138 230.162 143.662 229.86C144.051 229.342 144.31 228.651 144.829 228.348C145.477 228.003 146.298 227.916 147.076 227.873C151.528 227.614 155.979 227.485 160.431 227.139C161.425 227.053 162.635 226.448 163.283 225.671C168.556 219.408 173.742 213.017 178.885 206.668C181.824 203.04 184.979 199.672 189.863 198.851C190.987 198.635 192.802 198.808 193.364 199.499C193.925 200.19 193.709 202.177 193.104 202.997C190.381 206.582 187.529 210.123 184.417 213.405C181.262 216.774 177.805 219.797 174.391 222.95C173.872 223.425 173.094 223.598 172.446 223.943C172.662 224.202 172.921 224.418 173.137 224.677C177.2 224.159 181.262 223.641 185.325 223.166C186.362 223.036 187.788 222.734 187.832 224.202C187.832 224.807 186.535 225.887 185.671 226.016C182.429 226.621 179.101 227.312 175.86 227.312C171.322 227.312 168.21 229.298 165.963 232.969C163.111 237.72 160.085 242.341 157.622 247.308C153.343 255.816 148.459 263.892 142.798 271.579C139.643 275.855 136.963 280.476 133.938 284.881C132.728 286.652 131.302 288.336 129.746 289.761C129.097 290.366 127.542 290.711 126.893 290.323C126.245 289.977 125.899 288.466 126.029 287.559C126.159 286.479 126.72 285.356 127.412 284.449C130.437 280.26 133.635 276.157 136.661 271.968C138.217 269.809 139.686 267.606 141.112 265.403C147.811 255.082 153.43 244.155 158.184 232.797C158.356 232.192 158.573 231.76 158.918 230.896Z" fill="#122D97"/>
<path d="M47.9766 291.92C48.452 291.359 48.9274 290.797 49.446 290.279C52.8603 286.997 56.1017 283.542 58.1762 279.137C59.2566 276.848 61.8497 275.898 64.6157 276.545C64.1835 277.323 63.881 278.1 63.4056 278.748C62.2387 280.389 60.8125 281.858 59.7752 283.585C58.8676 285.097 57.9168 286.781 57.7872 288.508C57.6575 290.063 58.0897 292.223 59.0837 293.13C60.4667 294.382 62.2387 293 63.492 291.92C68.4622 287.558 73.3459 283.11 78.3592 278.748C79.31 277.927 80.4337 276.114 81.7303 277.409C83.0701 278.748 81.0388 279.698 80.3905 280.735C79.1372 282.635 77.6245 284.362 76.5008 286.349C75.7229 287.774 75.6797 289.588 77.1491 290.668C78.6618 291.791 80.088 290.927 81.471 289.934C90.8062 283.369 97.1593 274.17 103.253 264.842C105.846 260.868 106.495 256.29 105.976 251.583C105.63 248.387 104.247 245.839 101.481 244.111C97.5483 241.65 93.1832 240.44 88.6453 239.836C81.082 238.799 73.5188 239.361 66.258 241.477C63.0599 242.427 60.1642 245.191 57.7007 247.696C55.1076 250.33 55.4966 254.088 55.8856 257.543C56.361 261.862 58.4355 264.798 62.9734 265.576C63.6217 265.705 64.2268 266.094 64.875 266.31C64.875 266.569 64.8318 266.828 64.8318 267.13C63.7514 267.174 62.5845 267.476 61.5472 267.26C54.3297 265.576 50.44 256.377 53.8543 249.812C56.8796 243.982 61.4175 240.527 67.7707 238.929C78.2728 236.294 88.7749 236.122 99.3635 238.238C105.803 239.533 109.909 244.673 110.255 251.41C110.514 256.593 109.347 261.43 106.97 265.964C102.302 274.904 96.4678 282.98 89.0342 289.804C85.4471 293.13 81.2981 295.505 76.5008 296.714C73.4323 297.491 72.3519 296.757 72.2222 293.605C72.1358 291.1 71.5307 290.668 69.2833 291.963C67.5114 293 65.9123 294.382 64.1835 295.548C62.3251 296.8 60.5532 298.139 58.5651 299.089C56.5771 300.04 55.2805 299.349 54.6322 297.189C54.1568 295.591 53.8975 293.95 53.4221 292.395C52.7306 290.02 52.0823 289.847 50.1807 291.359C49.6189 291.791 48.9274 292.093 48.3223 292.439C48.2359 292.223 48.1062 292.093 47.9766 291.92Z" fill="#122D97"/>
<path d="M47.9766 291.92C48.452 291.359 48.9274 290.797 49.446 290.279C52.8603 286.997 56.1017 283.542 58.1762 279.137C59.2566 276.848 61.8497 275.898 64.6157 276.545C64.1835 277.323 63.881 278.1 63.4056 278.748C62.2387 280.389 60.8125 281.858 59.7752 283.585C58.8676 285.097 57.9168 286.781 57.7872 288.508C57.6575 290.063 58.0897 292.223 59.0837 293.13C60.4667 294.382 62.2387 293 63.492 291.92C68.4622 287.558 73.3459 283.11 78.3592 278.748C79.31 277.927 80.4337 276.114 81.7303 277.409C83.0701 278.748 81.0388 279.698 80.3905 280.735C79.1372 282.635 77.6245 284.362 76.5008 286.349C75.7229 287.774 75.6797 289.588 77.1491 290.668C78.6618 291.791 80.088 290.927 81.471 289.934C90.8062 283.369 97.1593 274.17 103.253 264.842C105.846 260.868 106.495 256.29 105.976 251.583C105.63 248.387 104.247 245.839 101.481 244.111C97.5483 241.65 93.1832 240.44 88.6453 239.836C81.082 238.799 73.5188 239.361 66.258 241.477C63.0599 242.427 60.1642 245.191 57.7007 247.696C55.1076 250.33 55.4966 254.088 55.8856 257.543C56.361 261.862 58.4355 264.798 62.9734 265.576C63.6217 265.705 64.2268 266.094 64.875 266.31C64.875 266.569 64.8318 266.828 64.8318 267.13C63.7514 267.174 62.5845 267.476 61.5472 267.26C54.3297 265.576 50.44 256.377 53.8543 249.812C56.8796 243.982 61.4175 240.527 67.7707 238.929C78.2728 236.294 88.7749 236.122 99.3635 238.238C105.803 239.533 109.909 244.673 110.255 251.41C110.514 256.593 109.347 261.43 106.97 265.964C102.302 274.904 96.4678 282.98 89.0342 289.804C85.4471 293.13 81.2981 295.505 76.5008 296.714C73.4323 297.491 72.3519 296.757 72.2222 293.605C72.1358 291.1 71.5307 290.668 69.2833 291.963C67.5114 293 65.9123 294.382 64.1835 295.548C62.3251 296.8 60.5532 298.139 58.5651 299.089C56.5771 300.04 55.2805 299.349 54.6322 297.189C54.1568 295.591 53.8975 293.95 53.4221 292.395C52.7306 290.02 52.0823 289.847 50.1807 291.359C49.6189 291.791 48.9274 292.093 48.3223 292.439C48.2359 292.223 48.1062 292.093 47.9766 291.92Z" fill="#122D97"/>
<path d="M206.804 254.693C203.865 256.895 200.969 259.098 198.031 261.3C196.129 262.726 194.357 264.324 192.369 265.576C191.029 266.397 189.387 267.131 187.874 267.088C184.287 267.044 182.558 264.496 183.552 261.085C184.114 259.184 185.065 257.37 185.843 255.513C186.621 253.656 187.485 251.842 188.004 249.899C188.609 247.653 186.967 246.357 184.719 247.049C178.625 248.862 175.082 253.311 172.488 258.709C170.889 261.991 169.463 265.403 167.734 268.599C167.173 269.636 165.833 270.24 164.839 271.018C164.882 269.765 164.623 268.383 165.012 267.26C166.222 263.892 167.691 260.653 169.204 256.982C165.141 260.782 161.381 264.28 157.664 267.735C157.405 267.563 157.189 267.347 156.93 267.174C157.319 266.526 157.535 265.706 158.097 265.317C166.611 259.184 171.624 249.899 178.885 242.6C179.533 241.952 180.095 241.175 180.613 240.398C185.022 233.574 189.214 226.578 193.838 219.883C198.895 212.628 204.211 205.545 209.656 198.592C211.342 196.432 213.719 194.748 215.966 193.15C216.615 192.675 217.911 193.064 218.948 193.064C218.819 194.057 219.035 195.31 218.516 196.001C212.811 203.645 207.063 211.289 201.186 218.804C195.697 225.8 189.992 232.581 184.417 239.534C183.423 240.743 182.688 242.168 181.953 243.593C181.694 244.069 181.91 244.76 181.91 245.364C182.472 245.321 183.077 245.451 183.509 245.235C185.281 244.414 186.967 243.421 188.739 242.643C191.764 241.348 193.104 241.909 193.06 245.191C193.017 248.171 192.326 251.281 191.375 254.131C190.554 256.55 188.911 258.666 187.701 260.955C186.707 262.855 187.226 264.064 189.43 264.064C190.77 264.064 192.326 263.633 193.449 262.898C197.382 260.221 201.142 257.327 204.946 254.477C205.637 253.959 206.329 253.44 207.193 252.792C207.193 253.44 207.193 253.829 207.193 254.218C206.977 254.39 206.89 254.52 206.804 254.693Z" fill="#122D97"/>
<path d="M206.804 254.693C203.865 256.895 200.969 259.098 198.031 261.3C196.129 262.726 194.357 264.324 192.369 265.576C191.029 266.397 189.387 267.131 187.874 267.088C184.287 267.044 182.558 264.496 183.552 261.085C184.114 259.184 185.065 257.37 185.843 255.513C186.621 253.656 187.485 251.842 188.004 249.899C188.609 247.653 186.967 246.357 184.719 247.049C178.625 248.862 175.082 253.311 172.488 258.709C170.889 261.991 169.463 265.403 167.734 268.599C167.173 269.636 165.833 270.24 164.839 271.018C164.882 269.765 164.623 268.383 165.012 267.26C166.222 263.892 167.691 260.653 169.204 256.982C165.141 260.782 161.381 264.28 157.664 267.735C157.405 267.563 157.189 267.347 156.93 267.174C157.319 266.526 157.535 265.706 158.097 265.317C166.611 259.184 171.624 249.899 178.885 242.6C179.533 241.952 180.095 241.175 180.613 240.398C185.022 233.574 189.214 226.578 193.838 219.883C198.895 212.628 204.211 205.545 209.656 198.592C211.342 196.432 213.719 194.748 215.966 193.15C216.615 192.675 217.911 193.064 218.948 193.064C218.819 194.057 219.035 195.31 218.516 196.001C212.811 203.645 207.063 211.289 201.186 218.804C195.697 225.8 189.992 232.581 184.417 239.534C183.423 240.743 182.688 242.168 181.953 243.593C181.694 244.069 181.91 244.76 181.91 245.364C182.472 245.321 183.077 245.451 183.509 245.235C185.281 244.414 186.967 243.421 188.739 242.643C191.764 241.348 193.104 241.909 193.06 245.191C193.017 248.171 192.326 251.281 191.375 254.131C190.554 256.55 188.911 258.666 187.701 260.955C186.707 262.855 187.226 264.064 189.43 264.064C190.77 264.064 192.326 263.633 193.449 262.898C197.382 260.221 201.142 257.327 204.946 254.477C205.637 253.959 206.329 253.44 207.193 252.792C207.193 253.44 207.193 253.829 207.193 254.218C206.977 254.39 206.89 254.52 206.804 254.693Z" fill="#122D97"/>
<path d="M206.807 254.692C206.893 254.52 206.98 254.347 207.11 254.174C207.542 253.094 208.276 252.058 208.406 250.935C208.882 247.307 210.74 244.845 214.068 243.377C214.975 242.988 215.796 242.384 216.618 241.866C219.34 240.181 221.977 238.065 225.564 239.62C225.866 239.749 226.471 239.447 226.86 239.231C227.422 238.929 227.898 238.454 228.46 238.108C230.88 236.683 231.658 237.115 231.787 239.879C231.917 243.42 231.744 246.875 229.756 250.158C233.516 249.812 235.98 247.523 238.486 245.277C242.895 241.304 247.303 237.244 251.798 233.314C252.878 232.364 254.304 231.803 255.601 231.025C255.817 231.155 256.076 231.285 256.292 231.457C255.99 232.364 255.947 233.444 255.385 234.092C253.829 235.949 252.1 237.676 250.371 239.404C248.427 241.347 246.395 243.161 244.537 245.148C243.759 245.968 242.981 246.962 242.678 247.998C242.376 248.992 242.246 250.417 242.722 251.151C243.067 251.712 244.666 251.799 245.574 251.583C250.933 250.374 255.385 247.48 259.058 243.507C261.003 241.39 262.689 238.929 264.115 236.424C265.671 233.746 267.616 231.889 270.684 231.371C271.419 231.241 272.154 231.371 273.277 231.371C271.592 234.221 270.079 236.553 268.739 239.015C268.394 239.663 268.134 240.959 268.48 241.304C269.042 241.822 270.165 242.081 270.943 241.909C274.617 241.045 278.074 239.663 280.884 236.985C281.186 236.726 281.532 236.553 282.31 236.64C281.791 237.331 281.446 238.281 280.797 238.67C276.821 240.959 272.802 243.161 268.739 245.234C267.486 245.882 266.319 245.666 265.887 243.809C265.498 242.038 264.331 242.081 263.25 243.248C257.719 249.078 250.285 251.367 243.111 254.001C238.486 255.686 236.844 254.476 235.98 249.596C231.398 251.928 226.644 253.699 223.403 258.234C220.118 262.812 214.889 265.273 209.832 267.519C206.807 268.858 204.041 266.223 204.516 262.423C204.733 260.609 205.51 258.838 206.072 257.068C206.159 256.29 206.504 255.513 206.807 254.692ZM209.314 259.313C209.184 262.509 210.481 263.503 212.771 262.423C215.105 261.343 217.309 259.961 219.513 258.666C223.489 256.377 225.305 252.619 226.299 248.387C226.428 247.739 226.385 246.875 226.039 246.357C224.699 244.241 220.032 243.636 218.174 245.364C214.889 248.43 212.166 251.928 210.351 256.074C209.876 257.284 209.53 258.622 209.314 259.313Z" fill="#122D97"/>
<path d="M206.807 254.692C206.893 254.52 206.98 254.347 207.11 254.174C207.542 253.094 208.276 252.058 208.406 250.935C208.882 247.307 210.74 244.845 214.068 243.377C214.975 242.988 215.796 242.384 216.618 241.866C219.34 240.181 221.977 238.065 225.564 239.62C225.866 239.749 226.471 239.447 226.86 239.231C227.422 238.929 227.898 238.454 228.46 238.108C230.88 236.683 231.658 237.115 231.787 239.879C231.917 243.42 231.744 246.875 229.756 250.158C233.516 249.812 235.98 247.523 238.486 245.277C242.895 241.304 247.303 237.244 251.798 233.314C252.878 232.364 254.304 231.803 255.601 231.025C255.817 231.155 256.076 231.285 256.292 231.457C255.99 232.364 255.947 233.444 255.385 234.092C253.829 235.949 252.1 237.676 250.371 239.404C248.427 241.347 246.395 243.161 244.537 245.148C243.759 245.968 242.981 246.962 242.678 247.998C242.376 248.992 242.246 250.417 242.722 251.151C243.067 251.712 244.666 251.799 245.574 251.583C250.933 250.374 255.385 247.48 259.058 243.507C261.003 241.39 262.689 238.929 264.115 236.424C265.671 233.746 267.616 231.889 270.684 231.371C271.419 231.241 272.154 231.371 273.277 231.371C271.592 234.221 270.079 236.553 268.739 239.015C268.394 239.663 268.134 240.959 268.48 241.304C269.042 241.822 270.165 242.081 270.943 241.909C274.617 241.045 278.074 239.663 280.884 236.985C281.186 236.726 281.532 236.553 282.31 236.64C281.791 237.331 281.446 238.281 280.797 238.67C276.821 240.959 272.802 243.161 268.739 245.234C267.486 245.882 266.319 245.666 265.887 243.809C265.498 242.038 264.331 242.081 263.25 243.248C257.719 249.078 250.285 251.367 243.111 254.001C238.486 255.686 236.844 254.476 235.98 249.596C231.398 251.928 226.644 253.699 223.403 258.234C220.118 262.812 214.889 265.273 209.832 267.519C206.807 268.858 204.041 266.223 204.516 262.423C204.733 260.609 205.51 258.838 206.072 257.068C206.159 256.29 206.504 255.513 206.807 254.692ZM209.314 259.313C209.184 262.509 210.481 263.503 212.771 262.423C215.105 261.343 217.309 259.961 219.513 258.666C223.489 256.377 225.305 252.619 226.299 248.387C226.428 247.739 226.385 246.875 226.039 246.357C224.699 244.241 220.032 243.636 218.174 245.364C214.889 248.43 212.166 251.928 210.351 256.074C209.876 257.284 209.53 258.622 209.314 259.313Z" fill="#122D97"/>
<path d="M154.771 107.163C154.684 108.243 154.641 109.323 154.555 110.402C154.209 115.498 155.462 120.076 159.006 123.877C159.914 124.87 160.865 125.907 161.513 127.073C161.902 127.807 162.118 128.973 161.815 129.621C161.556 130.182 160.26 130.657 159.611 130.485C157.839 129.923 155.808 129.362 154.512 128.109C152.567 126.252 150.795 124.05 149.628 121.631C147.251 116.751 145.176 111.698 143.318 106.602C142.065 103.104 143.145 100.858 146.43 99.0871C147.942 98.2666 149.585 97.7051 151.227 97.2301C153.215 96.6686 154.512 97.5324 154.641 99.6054C154.814 102.11 154.684 104.615 154.684 107.12C154.771 107.163 154.771 107.163 154.771 107.163Z" fill="#122D97"/>
<path d="M154.771 107.163C154.684 108.243 154.641 109.323 154.555 110.402C154.209 115.498 155.462 120.076 159.006 123.877C159.914 124.87 160.865 125.907 161.513 127.073C161.902 127.807 162.118 128.973 161.815 129.621C161.556 130.182 160.26 130.657 159.611 130.485C157.839 129.923 155.808 129.362 154.512 128.109C152.567 126.252 150.795 124.05 149.628 121.631C147.251 116.751 145.176 111.698 143.318 106.602C142.065 103.104 143.145 100.858 146.43 99.0871C147.942 98.2666 149.585 97.7051 151.227 97.2301C153.215 96.6686 154.512 97.5324 154.641 99.6054C154.814 102.11 154.684 104.615 154.684 107.12C154.771 107.163 154.771 107.163 154.771 107.163Z" fill="#122D97"/>
<path d="M131.041 270.5C128.188 274.387 124.558 277.497 120.322 279.785C118.68 280.649 117.859 279.31 117.773 277.928C117.6 276.028 117.729 274.085 117.729 271.925C114.402 273.955 111.722 276.978 108.308 278.835C108.135 278.619 107.962 278.403 107.789 278.188C108.308 277.669 108.74 277.108 109.302 276.633C112.586 273.739 115.957 270.932 119.112 267.909C121.273 265.836 123.132 263.461 125.077 261.172C125.811 260.308 126.373 259.185 128.102 260.092C127.713 260.912 127.367 261.733 126.935 262.51C125.379 265.188 123.78 267.822 122.311 270.5C121.878 271.277 121.576 272.228 121.446 273.135C121.144 274.819 122.181 275.726 123.694 274.948C125.336 274.128 126.762 272.919 128.275 271.839C129.053 271.278 129.787 270.63 130.565 270.025C130.695 270.155 130.868 270.327 131.041 270.5Z" fill="#122D97"/>
<path d="M131.041 270.5C128.188 274.387 124.558 277.497 120.322 279.785C118.68 280.649 117.859 279.31 117.773 277.928C117.6 276.028 117.729 274.085 117.729 271.925C114.402 273.955 111.722 276.978 108.308 278.835C108.135 278.619 107.962 278.403 107.789 278.188C108.308 277.669 108.74 277.108 109.302 276.633C112.586 273.739 115.957 270.932 119.112 267.909C121.273 265.836 123.132 263.461 125.077 261.172C125.811 260.308 126.373 259.185 128.102 260.092C127.713 260.912 127.367 261.733 126.935 262.51C125.379 265.188 123.78 267.822 122.311 270.5C121.878 271.277 121.576 272.228 121.446 273.135C121.144 274.819 122.181 275.726 123.694 274.948C125.336 274.128 126.762 272.919 128.275 271.839C129.053 271.278 129.787 270.63 130.565 270.025C130.695 270.155 130.868 270.327 131.041 270.5Z" fill="#122D97"/>
<path d="M130.309 244.242C129.358 248.129 129.791 251.325 132.384 254.045C132.643 254.304 132.729 255.125 132.513 255.341C132.254 255.6 131.519 255.73 131.174 255.514C130.396 255.082 129.402 254.564 129.013 253.829C127.63 251.022 126.333 248.129 125.209 245.192C124.993 244.587 125.555 243.292 126.16 242.86C127.025 242.255 128.278 241.823 129.315 241.953C129.791 242.039 130.05 243.637 130.309 244.242Z" fill="#122D97"/>
<path d="M130.309 244.242C129.358 248.129 129.791 251.325 132.384 254.045C132.643 254.304 132.729 255.125 132.513 255.341C132.254 255.6 131.519 255.73 131.174 255.514C130.396 255.082 129.402 254.564 129.013 253.829C127.63 251.022 126.333 248.129 125.209 245.192C124.993 244.587 125.555 243.292 126.16 242.86C127.025 242.255 128.278 241.823 129.315 241.953C129.791 242.039 130.05 243.637 130.309 244.242Z" fill="#122D97"/>
<path d="M10.7788 327.699C11.8605 327.892 12.7781 328.462 13.5314 329.408C14.2848 330.355 14.6614 331.427 14.6614 332.625C14.6614 333.648 14.391 334.576 13.8501 335.406C13.3286 336.218 12.5656 336.865 11.5611 337.348C10.5566 337.811 9.38796 338.043 8.0551 338.043H0V317.905H7.67842C9.04991 317.905 10.2282 318.137 11.2134 318.601C12.1986 319.064 12.9422 319.692 13.4445 320.484C13.9467 321.257 14.1978 322.126 14.1978 323.092C14.1978 324.251 13.8888 325.217 13.2706 325.989C12.6525 326.762 11.8219 327.332 10.7788 327.699ZM3.30317 326.366H7.38867C8.47041 326.366 9.31069 326.125 9.90951 325.642C10.5276 325.139 10.8367 324.425 10.8367 323.498C10.8367 322.59 10.5276 321.885 9.90951 321.382C9.31069 320.861 8.47041 320.6 7.38867 320.6H3.30317V326.366ZM7.76535 335.348C8.88572 335.348 9.76464 335.078 10.4021 334.537C11.0395 333.996 11.3583 333.243 11.3583 332.277C11.3583 331.292 11.0202 330.51 10.3441 329.93C9.66805 329.351 8.76982 329.061 7.64945 329.061H3.30317V335.348H7.76535Z" fill="#122D97"/>
<path d="M60.8155 333.929H52.3837L50.935 338.043H47.4869L54.7017 317.876H58.5265L65.7413 338.043H62.2643L60.8155 333.929ZM59.8883 331.234L56.6141 321.875L53.3109 331.234H59.8883Z" fill="#122D97"/>
<path d="M109.762 338.043L105.126 329.988H102.605V338.043H99.3022V317.905H106.256C107.802 317.905 109.106 318.176 110.168 318.717C111.25 319.257 112.051 319.982 112.573 320.89C113.114 321.798 113.384 322.812 113.384 323.932C113.384 325.246 112.998 326.443 112.225 327.525C111.472 328.587 110.303 329.312 108.719 329.698L113.703 338.043H109.762ZM102.605 327.351H106.256C107.493 327.351 108.42 327.042 109.038 326.424C109.675 325.806 109.994 324.975 109.994 323.932C109.994 322.889 109.685 322.078 109.067 321.498C108.449 320.899 107.512 320.6 106.256 320.6H102.605V327.351Z" fill="#122D97"/>
<path d="M158.494 338.043L153.858 329.988H151.337V338.043H148.034V317.905H154.988C156.533 317.905 157.837 318.176 158.899 318.717C159.981 319.257 160.783 319.982 161.304 320.89C161.845 321.798 162.116 322.812 162.116 323.932C162.116 325.246 161.729 326.443 160.957 327.525C160.203 328.587 159.035 329.312 157.451 329.698L162.434 338.043H158.494ZM151.337 327.351H154.988C156.224 327.351 157.151 327.042 157.769 326.424C158.407 325.806 158.726 324.975 158.726 323.932C158.726 322.889 158.417 322.078 157.798 321.498C157.18 320.899 156.243 320.6 154.988 320.6H151.337V327.351Z" fill="#122D97"/>
<path d="M200.068 317.905V338.043H196.765V317.905H200.068Z" fill="#122D97"/>
<path d="M238.132 320.571V326.482H245.086V329.177H238.132V335.348H245.956V338.043H234.829V317.876H245.956V320.571H238.132Z" fill="#122D97"/>
<path d="M290.908 338.043L286.272 329.988H283.751V338.043H280.448V317.905H287.402C288.947 317.905 290.251 318.176 291.314 318.717C292.395 319.257 293.197 319.982 293.719 320.89C294.26 321.798 294.53 322.812 294.53 323.932C294.53 325.246 294.144 326.443 293.371 327.525C292.618 328.587 291.449 329.312 289.865 329.698L294.849 338.043H290.908ZM283.751 327.351H287.402C288.638 327.351 289.566 327.042 290.184 326.424C290.821 325.806 291.14 324.975 291.14 323.932C291.14 322.889 290.831 322.078 290.213 321.498C289.595 320.899 288.658 320.6 287.402 320.6H283.751V327.351Z" fill="#122D97"/>
<path d="M335.815 338.246C334.463 338.246 333.246 338.014 332.164 337.55C331.082 337.068 330.232 336.391 329.614 335.522C328.996 334.653 328.687 333.639 328.687 332.48H332.222C332.299 333.349 332.637 334.064 333.236 334.624C333.854 335.184 334.714 335.464 335.815 335.464C336.955 335.464 337.843 335.194 338.481 334.653C339.118 334.093 339.437 333.378 339.437 332.509C339.437 331.833 339.234 331.282 338.828 330.857C338.442 330.432 337.949 330.104 337.351 329.872C336.771 329.64 335.96 329.389 334.917 329.119C333.603 328.771 332.531 328.423 331.7 328.076C330.889 327.709 330.194 327.148 329.614 326.395C329.035 325.642 328.745 324.637 328.745 323.382C328.745 322.223 329.035 321.208 329.614 320.339C330.194 319.47 331.005 318.804 332.048 318.34C333.091 317.876 334.298 317.645 335.67 317.645C337.621 317.645 339.215 318.137 340.451 319.122C341.706 320.088 342.402 321.421 342.537 323.121H338.886C338.828 322.387 338.481 321.759 337.843 321.237C337.206 320.716 336.365 320.455 335.322 320.455C334.376 320.455 333.603 320.697 333.004 321.18C332.405 321.662 332.106 322.358 332.106 323.266C332.106 323.884 332.29 324.396 332.657 324.801C333.043 325.188 333.526 325.497 334.105 325.729C334.685 325.96 335.477 326.212 336.481 326.482C337.814 326.849 338.896 327.216 339.727 327.583C340.576 327.95 341.291 328.52 341.871 329.293C342.47 330.046 342.769 331.06 342.769 332.335C342.769 333.359 342.489 334.325 341.929 335.232C341.388 336.14 340.586 336.874 339.524 337.435C338.481 337.975 337.244 338.246 335.815 338.246Z" fill="#122D97"/>
</svg>
