<svg width="1440" height="390" viewBox="0 0 1440 390" fill="none" xmlns="http://www.w3.org/2000/svg">
<g opacity="0.12">
<path fill-rule="evenodd" clip-rule="evenodd" d="M467.837 31.4687C467.729 6.14176 424.655 -22.3391 406.255 -37.0226C369.874 -66.0647 332.036 -92.8836 294.549 -120.131C257.061 -147.378 219.473 -174.552 183.726 -204.465C160.516 -223.883 133.244 -245.754 117.502 -273.481C83.9689 -332.57 189.697 -323.795 217.084 -325.088C286.756 -328.389 366.669 -326.883 431.975 -357.653C470.96 -376.022 486.506 -406.83 478.133 -451.73C475.434 -466.332 467.445 -483.135 474.213 -497.361C481.439 -512.554 498.064 -521.321 511.862 -527.201C562.189 -548.62 620.053 -551.102 673.302 -553.791C730.72 -556.745 788.679 -555.881 845.693 -556.11C869.868 -556.206 895.116 -565.712 918.137 -573.438C948.317 -583.564 978.14 -594.939 1008.07 -605.937C1073.92 -630.074 1141.77 -655.497 1211.43 -661.628C1255.06 -665.469 1302.74 -660.276 1336.63 -626.869C1353.65 -610.095 1362.55 -585.159 1372.39 -563.009C1384.3 -536.249 1395.74 -509.23 1408.41 -482.892C1449.26 -398.062 1507.56 -315.168 1602.21 -311.002C1616.52 -310.375 1630.59 -312.421 1644.84 -312.805C1653.91 -313.041 1661.99 -310.64 1665.36 -300.248C1673.84 -274.183 1647.18 -233.035 1636.25 -212.354C1612.32 -167.084 1585.33 -123.846 1560.05 -79.4852C1543.32 -50.1477 1514.37 -10.056 1514.07 25.5893C1513.8 57.3495 1552.39 80.3055 1573.4 95.9493C1593.09 110.596 1628.76 131.092 1630.92 160.888C1631.97 175.335 1623.27 187.308 1614.18 196.6C1598.25 212.849 1579.89 224.312 1565.56 242.851C1542.06 273.267 1522.43 315.117 1525.62 356.102C1527.83 384.502 1542.64 403.1 1561.47 420.878C1569.38 428.353 1575.81 433.642 1576.22 445.777C1576.9 465.047 1570 485.44 1564.32 503.307C1544 567.249 1515.13 629.078 1483.03 686.807C1466.98 715.657 1449.65 744.419 1428.37 769.029C1414.44 785.19 1395.65 804.423 1374.4 804.401C1349.79 804.401 1323.75 794.681 1299.83 787.413C1255.16 773.83 1211.03 758.127 1167.07 742.018C1065.41 704.748 964.708 664.459 864.963 621.152C794.704 590.596 722.954 559.995 656.9 519.372C644.017 511.394 631.858 502.093 620.586 491.593C608.542 480.565 593.597 475.631 578.443 471.953C484.387 449.123 381.344 466.65 286.897 477.64C262.924 480.425 238.952 483.224 214.911 485.174C194.245 486.851 169.503 491.659 149.417 484.436C109.838 470.217 144.437 417.813 159.065 396.46C210.566 321.277 277.013 257.668 338.601 192.729C367.884 161.804 397.389 130.959 425.08 98.2832C439.498 81.2952 467.931 53.6713 467.837 31.4687Z" stroke="white"/>
<path fill-rule="evenodd" clip-rule="evenodd" d="M485.584 27.1989C469.799 0.399248 442.103 -19.4089 419.113 -38.0506C386.029 -64.8872 351.905 -90.2324 318.295 -116.309C286.514 -140.967 254.666 -165.906 225.235 -193.909C207.288 -210.986 184.771 -231.407 176.271 -256.664C157.831 -311.407 257.029 -303.102 281.518 -304.534C342.399 -308.078 411.423 -308.89 467.746 -337.712C502.916 -355.712 517.365 -385.56 509.864 -427C507.271 -441.338 502.599 -453.578 508.514 -467.842C515.353 -484.35 531.085 -494.642 545.507 -501.906C590.683 -524.668 644.083 -529.503 693.054 -533.527C743.645 -537.684 796.357 -540.615 845.321 -537.573C864.901 -536.362 887.439 -543.236 906.816 -548.507C936.632 -556.628 966.145 -565.997 995.812 -574.709C1056.11 -592.427 1117.97 -609.496 1180.69 -611.438C1225.97 -612.841 1273.19 -605.237 1310.87 -575.846C1349.05 -546.041 1365.99 -499.839 1387.16 -455.919C1423.73 -379.986 1473.12 -287.664 1557.72 -271.621C1570.55 -269.185 1582.88 -270.506 1595.69 -269.908C1602.28 -269.606 1609.78 -268.646 1613.12 -261.536C1621.8 -243.079 1598.03 -209.332 1590.03 -195.194C1567.92 -156.124 1543.07 -118.966 1519.9 -80.6495C1501.5 -50.2248 1478.18 -16.4188 1471.07 19.6463C1462.43 63.4117 1518.85 94.5525 1538.7 125.368C1573.1 178.805 1507.92 209.252 1475.79 234.73C1438.89 263.981 1408.44 317.344 1441.51 362.601C1454.17 379.906 1469.74 390.22 1475.39 412.804C1484.22 448.124 1477.54 488.486 1470.37 523.399C1459.57 575.884 1442.47 627.8 1419.23 675.234C1402.58 709.195 1374.96 762.448 1334.51 758.454C1307.28 755.788 1279.6 746.05 1253.08 737.442C1213.38 724.559 1174.18 709.875 1135.19 694.622C1045.18 659.509 956.165 620.793 868.898 578.209C809.354 549.143 643.26 430.361 630.762 426.123C593.499 413.498 551.131 415.72 512.713 417.677C461.609 420.276 410.761 427.009 359.953 433.247C335.769 436.2 311.462 439.811 287.149 441.265C269.844 442.299 247.117 443.185 231.959 432.177C202.373 410.7 235.335 361.56 248.967 340.77C290.727 277.034 343.553 221.84 393.085 165.406C417.391 137.698 442.069 110.034 464.134 80.1043C473.033 68.0186 495.341 43.7512 485.584 27.1989Z" stroke="white"/>
<path fill-rule="evenodd" clip-rule="evenodd" d="M507.423 13.4548C464.313 -40.1744 404.811 -80.0602 353.458 -124.85C327.683 -147.337 301.746 -170.437 279.516 -197.222C267.952 -211.15 253.512 -228.763 251.284 -248.177C245.33 -300.115 334.737 -293.092 361.498 -295.064C413.236 -298.89 471.684 -301.792 518.623 -328.296C547.3 -344.499 561.423 -371.092 556.063 -406.044C553.687 -421.553 549.987 -434.727 556.063 -449.955C562.22 -465.382 575.046 -476.267 588.035 -484.428C625.36 -507.897 671.745 -515.4 713.769 -520.99C763.067 -527.502 812.736 -530.044 862.375 -528.597C905.85 -527.349 949.116 -541.387 991.565 -550.641C1047.8 -562.892 1105.05 -573.593 1162.6 -571.976C1208.04 -570.691 1253.85 -560.596 1292.7 -533.766C1332.18 -506.442 1355.91 -465.545 1377.31 -421.412C1409.66 -354.697 1449.98 -265.296 1520.95 -239.958C1531.27 -236.266 1540.89 -235.859 1551.54 -235.217C1556.71 -234.907 1563.39 -234.811 1565.95 -228.91C1572.12 -214.702 1549.31 -187.156 1542.94 -177.556C1522.62 -146.908 1500.6 -117.642 1479.77 -87.4008C1460.33 -59.1683 1439.15 -29.7469 1427.07 3.33748C1407.85 56.0287 1469.3 86.8385 1467.58 137.048C1466.51 168.22 1439.23 190.574 1417.62 206.038C1391.02 225.054 1352.73 237.557 1339.41 272.259C1329.5 298.106 1345.06 313.149 1357.04 332.763C1377.35 365.995 1378.73 411.043 1376.62 449.511C1373.77 501.493 1362.64 554.244 1343.69 602.024C1335.1 623.684 1324.58 646.215 1309.1 663.038C1294.59 678.805 1280.86 682.844 1261.47 679.617C1202.12 669.721 1142.19 642.139 1085.27 617.503C1013.76 586.545 943.236 552.368 874.816 513.915C828.161 487.691 780.454 459.946 739.503 423.715C728.83 414.27 717.9 404.005 710.096 391.547C704.196 382.183 701.692 374.451 691.748 369.104C662.274 353.264 621.276 357.406 589.696 359.053C539.199 361.675 488.946 368.654 438.761 374.938C409.476 378.631 354.308 390.247 330.923 362.384C310.738 338.324 335.095 297.301 347.537 276.106C379.009 222.507 419.494 175.465 457.056 127.027C474.27 104.828 492.16 82.4593 506.377 57.779C510.009 51.487 515.828 43.1495 516.827 35.5061C517.948 26.7476 512.716 20.0642 507.423 13.4548Z" stroke="white"/>
<path fill-rule="evenodd" clip-rule="evenodd" d="M511.13 25.9393C471.294 -21.4787 423.302 -60.4345 380.536 -104.808C361.36 -124.703 341.996 -145.574 327.385 -169.845C319.526 -182.897 311.181 -199.326 313.348 -215.548C319.567 -262.109 393.101 -257.904 422.809 -260.631C466.952 -264.636 517.665 -268.672 556.698 -293.778C582.267 -310.222 591.854 -334.507 587.081 -365.828C581.956 -399.426 593.414 -423.815 619.49 -442.557C652.182 -466.037 693.449 -475.608 731.408 -482.407C777.141 -490.56 823.453 -494.174 869.78 -493.205C914.835 -492.259 958.485 -500.522 1003.24 -505.895C1062.59 -513.012 1123.83 -516.522 1182.5 -501.933C1233.59 -489.229 1279.73 -461.233 1314.32 -417.939C1350.45 -372.753 1368.33 -315.824 1397.67 -265.834C1415.97 -234.653 1441.48 -193.406 1475.68 -181.285C1487.08 -177.243 1507.86 -182.697 1498.75 -162.809C1493.55 -151.435 1483.8 -141.458 1476.11 -132.16C1463.67 -117.135 1450.82 -102.524 1438.18 -87.7058C1411.22 -56.1184 1382.36 -23.8585 1362.16 13.5452C1336.7 60.6381 1374.54 96.8815 1369.93 144.632C1367.45 170.329 1351.12 190.838 1333.85 206.949C1322.68 217.385 1310.45 226.424 1297.97 234.856C1284.93 243.666 1269.5 250.377 1258.13 261.765C1241.93 277.973 1248.96 297.159 1252 318.111C1257.35 354.933 1258.52 392.336 1255.5 429.473C1251.8 474.991 1243.12 521.811 1224.85 563.176C1217.74 579.28 1208.73 596.352 1195.35 607.15C1181.98 617.947 1168.14 617.208 1152.82 613.956C1107.36 604.349 1061.99 581.992 1018.87 560.803C964.893 534.279 911.979 504.635 861.448 470.912C826.568 447.631 791.573 422.481 762.392 390.916C753.905 381.729 745.83 371.893 739.301 360.91C734.818 353.379 732.414 343.661 725.919 337.999C705.596 320.328 664.794 325.605 640.96 326.633C593.394 328.68 546.577 338.413 499.071 340.778C473.144 342.072 432.538 345.323 413.498 321.164C395.592 298.452 411.81 262.682 422.512 240.798C443.544 197.77 471.8 159.435 497.126 119.438C507.538 102.979 518.948 85.7587 525.693 66.9644C531.689 50.2174 521.338 38.0968 511.13 25.9393Z" stroke="white"/>
<path fill-rule="evenodd" clip-rule="evenodd" d="M520.927 26.7152C489.219 -15.0112 450.994 -52.0514 419.057 -94.4568C400.363 -119.291 368.169 -161.039 382.626 -196.05C398.487 -234.522 453.774 -235.57 485.732 -238.669C523.768 -242.359 568.435 -247.4 600.987 -271.422C611.282 -279.016 620.052 -289.067 623.769 -302.307C627.75 -316.477 623.398 -328.875 622.832 -343.059C621.644 -372.815 637.876 -396.705 659.357 -413.11C689.715 -436.306 727.677 -447.272 763.534 -454.918C804.158 -463.541 845.457 -467.793 886.838 -467.612C926.385 -467.464 965.514 -468.423 1005.1 -469.53C1056.87 -471.006 1109.37 -468.623 1159.59 -453.575C1209.07 -438.741 1254.04 -410.941 1289.37 -370.048C1323.84 -330.144 1347.1 -281.37 1367.46 -231.688C1379.02 -203.489 1398.54 -161.349 1426.11 -147.106C1438.37 -140.766 1450.4 -141.202 1437.36 -124.715C1420.95 -103.955 1398.83 -87.2983 1379.82 -69.542C1352.39 -43.9187 1324.28 -17.7935 1301.26 12.6711C1286.56 32.1248 1280.01 51.0028 1281.02 76.1907C1281.81 95.3787 1285.35 114.367 1283.56 133.629C1279.36 178.839 1246.82 209.842 1218.05 238.713C1199.55 257.281 1182.65 271.443 1173.12 297.856C1161.85 329.074 1157.13 363.036 1149.6 395.449C1141.33 431.043 1131.77 468.068 1113.72 499.419C1097.65 527.33 1078.1 539.846 1048.85 532.326C1003.23 520.607 958.255 491.736 917.75 465.028C876.523 437.855 836.004 407.302 801.84 369.951C783.396 349.782 770.807 326.099 754.427 304.432C733.823 277.229 687.212 287.532 659.512 289.834C613.528 293.657 468.839 322.262 482.19 229.613C487.762 190.942 509.708 155.253 525.758 121.128C532.41 106.965 542.037 89.9692 543.541 73.7406C545.181 56.0655 530.46 39.276 520.927 26.7152Z" stroke="white"/>
<path fill-rule="evenodd" clip-rule="evenodd" d="M537.669 30.2582C513.438 -7.55448 484.44 -43.2775 463.648 -84.1175C450.161 -110.566 436.916 -145.905 454.315 -173.89C473.953 -205.471 517.255 -212.833 549.073 -216.857C581.854 -220.999 620.989 -224.484 647.782 -248.43C656.306 -256.058 663.333 -266.343 664.642 -278.66C665.903 -290.474 662.342 -302.288 663.522 -314.316C666.166 -341.326 681.13 -363.581 700.424 -379.722C757.498 -427.473 842.443 -438.091 911.304 -439.339C945.772 -439.96 981.245 -436.703 1015.93 -434.37C1060.95 -431.343 1106.03 -424.845 1148.96 -409.184C1240.24 -375.897 1301.42 -302.074 1344.15 -210.211C1357.6 -181.296 1367.89 -150.011 1388.96 -126.774C1399.83 -114.775 1397.45 -106.158 1386.35 -95.2154C1368.98 -78.1145 1347.8 -65.045 1328.53 -50.7721C1301.11 -30.4739 1273.11 -9.87299 1248.87 14.442C1232.16 31.2033 1220.29 47.3518 1216.69 72.4864C1214.12 90.4069 1214.72 108.667 1213.18 126.699C1210.24 160.952 1200.17 194.947 1182.35 223.36C1168.18 245.881 1151.32 266.349 1133.9 285.865C1111.25 311.272 1092.09 337.086 1074.88 367.242C1052.08 407.159 1020.03 480.791 966.307 461.305C907.056 439.803 851.52 385.17 813.505 332.235C800.739 314.462 790.259 292.665 773.042 279.559C747.267 259.969 721.115 260.656 690.457 260.737C644.558 260.848 544.682 271.754 543.603 196.498C543.178 166.682 554.967 138.491 560.611 109.812C566.977 77.692 554.218 56.0278 537.669 30.2582Z" stroke="white"/>
<path fill-rule="evenodd" clip-rule="evenodd" d="M555.716 33.6291C531.749 -15.6531 478.004 -96.6341 518.881 -151.436C540.473 -180.397 578.665 -191.28 610.702 -197.766C636.484 -203.012 667.577 -204.983 687.057 -227.222C701.376 -243.573 695.02 -267.369 700.505 -287.838C707.314 -313.213 722.941 -333.977 742.145 -349.582C795.808 -393.198 870.423 -406.583 934.977 -409.431C1002.02 -412.382 1075.89 -398.577 1138.98 -372.021C1217.65 -338.898 1276.58 -276.179 1317.79 -196.755C1325.4 -182.094 1332.31 -167.049 1339.61 -152.21C1344.51 -142.256 1351.79 -132.627 1355.65 -122.157C1362.09 -104.699 1354.51 -90.4286 1342.35 -79.0507C1324.86 -62.67 1303.37 -51.0117 1283.43 -38.7189C1256.17 -21.8955 1228.29 -5.37461 1202.93 14.3633C1185.88 27.645 1168.04 41.9522 1161.94 64.9959C1157.78 80.7124 1156.92 97.3587 1157.07 113.636C1157.39 148.537 1155.72 176.761 1140.83 208.725C1116.34 261.202 1078.67 308.389 1038.88 347.651C1007.65 378.464 958.242 426.33 912.743 405.728C871.921 387.282 848.041 343.128 821.145 307.43C808.068 290.075 793.379 274.226 776.119 261.881C754.358 246.319 733.872 239.789 708.09 237.244C664.696 232.957 599.265 231.842 585.851 174.879C580.898 153.857 583.725 132.083 581.127 110.788C577.733 82.6309 567.808 58.4879 555.716 33.6291Z" stroke="white"/>
<path fill-rule="evenodd" clip-rule="evenodd" d="M580.638 35.4544C563.571 -18.4698 541.15 -86.4291 582.371 -134.355C602.338 -157.572 630.423 -170.551 657.604 -180.25C677.072 -187.201 707.983 -189.247 719.918 -210.617C728.684 -226.344 729.898 -248.039 737.828 -264.889C748.725 -288.054 765.232 -307.134 784.599 -322.071C835.051 -360.992 900.763 -376.032 960.69 -380.338C1090.9 -389.683 1223.39 -315.26 1293.07 -192.815C1313.84 -156.316 1340.66 -117.469 1307.09 -80.1798C1270.43 -39.5003 1215.21 -20.4421 1171.46 8.46277C1154.74 19.4988 1133.44 32.7656 1124.12 52.7471C1118.51 64.7582 1118.12 79.8274 1117.87 93.0499C1117.19 126.727 1114.64 157.013 1102.26 188.437C1083.15 236.998 1052.68 281.8 1018.15 318.498C988.033 350.498 945.086 388.104 901.35 365.035C867.816 347.306 846.548 309.678 820.493 281.94C791.497 251.048 755.637 230.232 716.257 220.06C677.949 210.191 635.932 203.536 615.743 161.608C608.818 147.225 601.582 128.603 598.986 112.684C594.795 86.4378 588.659 60.6091 580.638 35.4544Z" stroke="white"/>
<path fill-rule="evenodd" clip-rule="evenodd" d="M608.426 35.8338C600.531 -18.6182 599.653 -75.3965 636.338 -118.313C653.459 -138.334 675.101 -152.558 696.986 -165.446C713.088 -174.929 729.716 -182.927 741.741 -198.473C752.883 -212.867 761.352 -229.58 772.109 -244.351C786.299 -263.925 803.277 -280.87 822.392 -294.534C870.306 -328.72 928.592 -344.71 984.354 -350.256C1011.35 -352.952 1040.63 -354.355 1067.44 -347.007C1093.33 -339.917 1118.94 -328.706 1142.75 -315.634C1193.36 -287.872 1237.22 -247.216 1269.02 -195.814C1290.83 -160.557 1302.62 -126.274 1274.38 -90.5069C1242.55 -50.1904 1192.64 -27.9458 1151.5 -1.7796C1123.28 16.1667 1091.66 33.7586 1086.39 71.8964C1082.19 102.243 1078.78 131.045 1067.93 159.73C1051.77 202.04 1028.01 240.367 998.053 272.437C970.661 301.654 936.008 326.446 896.827 310.841C865.784 298.456 841.699 270.709 814.577 250.872C784.351 228.716 751.142 216.501 716.172 206.679C684.744 197.816 655.152 184.198 634.84 155.284C630.683 149.376 626.316 142.943 623.111 136.333C619.021 127.899 619.339 119.539 618.536 110.086C616.444 85.1383 611.996 60.4787 608.426 35.8338Z" stroke="white"/>
<path fill-rule="evenodd" clip-rule="evenodd" d="M639.066 31.3833C639.74 -20.338 651.106 -69.2189 682.236 -109.526C695.544 -126.769 711.436 -140.972 726.08 -156.772C737.871 -169.51 749.014 -181.346 762.572 -191.842C794.733 -216.697 820.871 -248.86 855.05 -270.993C900.675 -300.581 952.937 -316.937 1004.79 -323.476C1030.12 -326.671 1056.27 -327.788 1081.89 -324.179C1103.9 -321.079 1124.97 -310.198 1144.52 -299.065C1182.83 -277.258 1220.03 -246.264 1244.91 -207.051C1299.75 -120.6 1191.62 -57.7458 1136.12 -20.9373C1110.59 -4.00505 1071.59 15.605 1061.14 49.144C1053.66 73.1035 1049.11 97.4699 1039.49 120.69C1013.63 183.048 961.146 256.392 891.204 246.627C861.276 242.455 833.998 225.508 806.059 214.131C777.29 202.414 747.597 195.882 717.696 188.715C689.75 182.02 667.477 172.492 649.427 146.95C640.799 134.752 641.562 120.15 640.793 105.185C639.538 80.6043 638.762 55.8828 639.066 31.3833Z" stroke="white"/>
<path fill-rule="evenodd" clip-rule="evenodd" d="M666.966 24.7591C678.202 -53.3096 719.934 -138.538 781.297 -183.877C853.477 -237.209 931.674 -282.119 1017.91 -295.03C1057.9 -301.017 1101.7 -303.962 1139.42 -284.386C1168.14 -269.497 1201.49 -247.241 1217.29 -215.943C1255.95 -139.387 1169.96 -78.4442 1120.97 -43.0269C1094.59 -23.96 1061.02 -5.38037 1041.14 22.4633C1029.6 38.6071 1023.71 59.9622 1014.4 77.693C986.183 131.424 939.73 174.762 881.866 182.513C855.111 186.093 828.161 181.664 801.609 178.143C774.429 174.541 746.912 172.585 719.9 167.558C698.339 163.542 672.928 156.743 664.987 131.491C654.973 99.6683 662.38 56.6405 666.966 24.7591Z" stroke="white"/>
<path fill-rule="evenodd" clip-rule="evenodd" d="M694.324 12.2181C710.712 -61.1796 745.414 -132.775 803.752 -176.592C834.688 -199.826 870.601 -215.865 905.08 -231.712C944.163 -249.672 984.997 -263.613 1026.7 -270.527C1078.63 -279.142 1162.73 -286.906 1189.86 -222.152C1216.79 -157.878 1148.75 -100.992 1108.51 -68.5748C1082.71 -47.8077 1055.1 -28.7472 1030.45 -6.04455C1017.08 6.26351 1006.79 20.485 995.476 34.9208C964.215 74.9183 919.649 106.582 874.225 123.486C830.199 139.872 775.736 147.127 729.263 141.711C709.211 139.384 694.879 131.531 688.814 109.205C680.411 78.1689 687.55 42.5376 694.324 12.2181Z" stroke="white"/>
<path fill-rule="evenodd" clip-rule="evenodd" d="M721.51 -7.55069C737.79 -72.1746 772.904 -131.2 824.124 -169.986C881.538 -213.466 955.469 -237.626 1023.42 -249.913C1059.54 -256.438 1137.81 -274.132 1156.22 -223.493C1174.63 -172.855 1121.41 -122.953 1090.78 -95.4816C1053.6 -62.1912 1013.52 -30.0484 973.481 -0.178946C938.697 25.7913 901.58 52.3427 863.903 72.3979C842.654 83.7751 820.518 93.0644 797.759 100.156C780.906 105.365 759.476 113.134 741.807 109.256C697.241 99.4643 713.724 23.3487 721.51 -7.55069Z" stroke="white"/>
<path fill-rule="evenodd" clip-rule="evenodd" d="M755.067 -26.9031C790.787 -149.115 903.959 -209.22 1012.92 -230.171C1038.25 -235.034 1109.23 -252.567 1123.38 -215.235C1137.1 -179.038 1093.48 -136.112 1073.06 -115.774C1009.78 -52.7534 931.598 -6.02657 857.516 40.2649C834.392 54.7139 792.687 86.0693 764.003 71.6055C732.86 55.8725 747.667 -1.56201 755.067 -26.9031Z" stroke="white"/>
<path fill-rule="evenodd" clip-rule="evenodd" d="M791.655 -50.425C822.719 -140.425 913.071 -192.043 996.141 -209.059C1016.49 -213.223 1068.16 -226.187 1083.57 -201.072C1097.83 -177.839 1063.8 -144.175 1051.07 -130.798C1022.72 -101.01 989.129 -76.4703 955.942 -52.8833C925.256 -31.0607 894.239 -8.69189 861.952 9.76428C844.945 19.4796 813.05 40.2096 793.724 25.2084C772.918 9.07036 784.758 -30.4406 791.655 -50.425Z" stroke="white"/>
<path fill-rule="evenodd" clip-rule="evenodd" d="M-207.146 100.728C-208.002 43.0693 -235.997 -16.854 -222.171 -75.6042C-210.819 -123.856 -153.663 -127.884 -119.376 -149.745C-92.1289 -167.112 -76.6661 -197.878 -61.931 -227.397C-48.6916 -253.898 -36.7997 -281.197 -22.8529 -307.263C-13.8245 -324.114 1.67871 -357.204 21.2582 -357.801C40.0022 -358.377 57.1898 -332.591 68.0778 -317.348C82.2739 -297.48 94.8597 -276.298 108.645 -256.112C131.876 -222.063 159.75 -196.86 191.666 -173.007C227.986 -145.866 264.906 -119.653 302.425 -94.3662C330.049 -75.6927 357.862 -57.1595 384.415 -36.6415C401.07 -23.7671 437.831 0.388169 438 24.1229C438.08 35.4479 428.277 47.9904 421.667 57.043C410.483 72.3669 397.735 86.3776 384.947 100.086C361.13 125.621 336.302 149.997 311.743 174.669C279.868 206.689 249.42 238.185 221.399 274.536C192.427 312.163 164.749 351.03 136.505 389.366C117.377 415.336 98.2689 444.501 70.6785 460.437C36.1213 480.357 7.75601 459.352 -27.1919 459.109C-57.2551 458.895 -55.0384 382.637 -58.8586 361.433C-62.6923 339.971 -71.1413 319.991 -74.4158 298.477C-78.4988 271.622 -78.5527 244.147 -79.5566 217.003C-80.7761 183.803 -81.2612 152.196 -113.676 139.535C-132.123 132.342 -152.08 130.829 -171.174 126.521C-183.545 123.724 -206.877 118.944 -207.146 100.728Z" stroke="white"/>
<path fill-rule="evenodd" clip-rule="evenodd" d="M-192.366 90.4709C-195.518 42.139 -214.135 -19.7222 -196.53 -69.6132C-181.489 -112.248 -134.45 -117.775 -102.776 -140.171C-76.628 -158.644 -64.988 -188.873 -51.9175 -218.569C-41.4314 -242.392 -31.2625 -266.443 -19.3593 -289.504C-10.5872 -306.499 2.80727 -335.191 21.0466 -338.708C37.4438 -341.871 55.0286 -316.541 64.2326 -303.654C77.6607 -284.842 89.1455 -264.411 101.008 -244.409C121.852 -209.274 143.195 -177.678 173.702 -151.868C204.344 -125.947 237.867 -106.566 271.748 -86.3937C298.253 -70.6107 324.624 -54.3696 349.807 -36.1481C368.566 -22.5818 395.537 -5.21749 404.12 18.9743C410.915 38.112 376.454 69.8702 366.292 81.0794C345.373 104.126 323.207 125.761 301 147.263C273.928 173.465 245.992 196.378 222.084 226.267C179.323 279.705 143.58 346.251 88.5584 385.967C55.3727 409.922 18.4419 416.048 -18.4686 412.464C-33.0844 411.045 -36.5932 388.457 -38.4354 375.282C-41.4989 353.396 -41.8835 331.133 -44.2385 309.158C-46.445 288.586 -51.3439 269.042 -55.2914 248.87C-59.2861 228.432 -60.4063 207.491 -63.3483 186.913C-65.1702 174.137 -66.9719 159.27 -74.941 149C-83.1869 138.367 -96.7905 133.911 -108.68 130.527C-131.009 124.231 -190.14 124.579 -192.366 90.4709Z" stroke="white"/>
<path fill-rule="evenodd" clip-rule="evenodd" d="M-173.344 70.238C-178.644 25.873 -186.064 -29.3841 -164.473 -70.2586C-146.826 -103.68 -109.188 -110.89 -82.3047 -132.666C-59.9448 -150.775 -51.4991 -179.577 -40.4002 -206.342C-31.2928 -228.296 -22.1382 -250.346 -11.1001 -271.237C-2.72861 -287.08 8.05978 -308.562 24.6812 -314.089C38.8924 -318.812 54.9467 -297.655 62.8253 -287.125C76.2399 -269.178 87.1768 -249.069 98.0395 -229.226C115.809 -196.756 132.16 -162.073 157.45 -135.662C182.024 -110.034 211.216 -94.9058 240.955 -77.8963C263.734 -64.8643 286.37 -51.3304 307.832 -35.7894C324.312 -23.8643 344.734 -9.73268 353.322 10.1106C360.748 27.2234 341.683 47.4799 332.157 59.5526C316.427 79.477 298.968 97.7558 281.753 116.108C263.173 135.907 242.596 154.171 224.617 174.457C186.811 217.147 156.606 264.412 110.009 297.118C79.8315 318.304 39.2232 337.55 3.54999 334.089C-22.1045 331.595 -20.4167 269.445 -22.8809 249.587C-26.9316 217.118 -34.7562 183.003 -47.1851 153.094C-57.8587 127.465 -83.2229 119.562 -106.555 113.813C-121.171 110.205 -136.49 108.257 -150.627 102.678C-166.992 96.2135 -171.123 88.8341 -173.344 70.238Z" stroke="white"/>
<path fill-rule="evenodd" clip-rule="evenodd" d="M-155.601 49.4435C-158.756 11.9352 -158.047 -32.4191 -137.607 -64.8652C-119.695 -93.2852 -87.8021 -100.768 -65.1192 -123.156C-47.4161 -140.622 -40.4632 -169.101 -30.9427 -192.2C-19.3074 -220.442 -3.00294 -272.605 26.3491 -283.233C53.6537 -293.113 82.2084 -229.997 92.0938 -211.176C107.743 -181.387 120.831 -148.719 139.811 -121.209C156.156 -97.526 178.055 -84.4336 201.299 -70.3642C230.935 -52.3945 275.929 -31.087 291.774 3.93467C303.585 30.0307 265.179 68.8269 252.063 86.9076C238.347 105.795 228.016 128.183 213.86 146.404C191.522 175.157 155.325 198.308 125.439 215.974C96.3844 233.159 58.6538 252.18 25.6936 251.047C4.031 250.307 -0.0907097 213.687 -4.71243 195.799C-11.3342 170.369 -20.1384 147.581 -39.051 130.285C-58.3014 112.678 -80.9911 104.381 -104.843 97.1209C-117.087 93.4204 -131.053 90.5341 -142.006 83.059C-154.108 74.9253 -154.385 63.8607 -155.601 49.4435Z" stroke="white"/>
<path fill-rule="evenodd" clip-rule="evenodd" d="M-133.982 27.8231C-133.807 -4.58134 -127.038 -39.1363 -106.968 -64.1319C-90.2515 -84.9518 -64.0861 -91.9114 -48.0837 -113.195C-35.4084 -130.046 -28.9563 -153.701 -20.4702 -173.269C-10.0916 -197.248 4.58397 -239.138 30.3925 -247.46C55.5814 -255.561 77.8608 -209.422 87.5188 -191.165C101.662 -164.394 113.112 -136.018 127.383 -109.321C138.563 -88.3764 152.235 -74.877 170.44 -61.3776C191.81 -45.5215 221.626 -27.9568 233.042 -1.72387C241.272 17.2696 221.35 47.6193 214.117 64.3518C209.267 75.5903 204.829 87.0055 202.391 99.1866C200.492 108.672 200.303 117.451 194.801 125.596C180.947 146.085 150.572 148.758 129.963 155.512C102.592 164.474 73.5504 174.66 44.9064 176.604C27.3011 177.819 18.3167 160.063 8.26804 147.572C-3.60577 132.806 -20.4163 122.186 -35.0986 111.044C-54.4752 96.3144 -75.5625 87.1528 -97.3772 77.7702C-107.217 73.5355 -118.774 69.3819 -126.398 60.9641C-134.359 52.2369 -134.042 39.5182 -133.982 27.8231Z" stroke="white"/>
<path fill-rule="evenodd" clip-rule="evenodd" d="M-111.276 8.5863C-107.797 -18.6291 -96.9558 -44.6406 -78.6449 -63.8797C-64.6084 -78.6506 -45.9671 -86.9667 -34.7014 -104.714C-24.2044 -121.257 -16.8894 -140.068 -8.21939 -157.756C0.956291 -176.456 14.5883 -207.711 35.7511 -212.8C58.5588 -218.28 76.1281 -186.751 85.8566 -169.277C98.1471 -147.195 107.485 -123.436 118.474 -100.593C126.753 -83.5668 137.313 -67.9953 149.803 -54.3968C162.903 -40.0617 180.668 -26.3321 187.295 -6.62035C193.153 10.8389 182.191 31.9612 180.256 49.6641C178.187 68.5783 181.814 88.4451 170.339 104.686C146.675 138.179 87.2859 131.968 53.3339 132.684C19.8335 133.422 -7.10024 112.928 -34.2093 93.4303C-52.1157 80.5575 -70.7637 69.6566 -89.1218 57.6626C-107.837 45.4249 -114.336 32.5373 -111.276 8.5863Z" stroke="white"/>
<path fill-rule="evenodd" clip-rule="evenodd" d="M-90.1792 -6.99035C-79.8916 -46.4176 -47.7607 -67.373 -24.7907 -97.1689C-5.9965 -121.561 8.09579 -172.076 39.7478 -178.758C75.6834 -186.342 97.1963 -119.41 109.69 -93.5839C123.553 -64.9411 148.243 -41.6426 158.51 -11.3219C163.907 4.59242 159.272 19.4423 156.399 35.3492C153.248 52.8157 150.881 70.674 140.006 84.733C118.601 112.4 76.7965 112.208 46.6894 112.969C15.5231 113.76 -12.0476 94.8005 -36.8795 75.8778C-63.2156 55.8389 -100.716 33.4421 -90.1792 -6.99035Z" stroke="white"/>
<path fill-rule="evenodd" clip-rule="evenodd" d="M-72.9486 -17.6818C-61.3564 -45.7725 -36.9965 -68.6095 -17.23 -90.168C-0.731913 -108.141 17.0165 -144.321 42.1714 -146.9C71.7362 -149.942 89.6545 -111.308 101.287 -87.6183C112.737 -64.3404 129.235 -39.762 135.575 -14.2137C142.186 12.4001 124.58 48.2428 107.79 67.0753C89.0633 88.0753 58.4249 95.8346 32.1353 94.9969C4.60893 94.1446 -20.6479 76.789 -41.4948 58.7869C-63.7822 39.543 -86.4297 14.9278 -72.9486 -17.6818Z" stroke="white"/>
<path fill-rule="evenodd" clip-rule="evenodd" d="M-56.9603 -22.9701C-45.8874 -46.334 -26.6933 -66.0984 -8.99567 -83.7281C4.66187 -97.3387 24.8149 -120.482 44.519 -121.049C66.1956 -121.674 84.5666 -102.249 93.1842 -82.3369C101.679 -62.6976 110.63 -38.0749 111.902 -16.5292C114.664 30.3901 58.4418 82.948 16.2245 78.6712C-23.8027 74.6153 -79.0382 23.5812 -56.9603 -22.9701Z" stroke="white"/>
<path fill-rule="evenodd" clip-rule="evenodd" d="M-42.1741 -25.547C-26.8984 -55.9884 10.2067 -99.3867 44.5584 -100.417C83.9884 -101.595 93.8867 -53.3013 88.7472 -18.3029C83.5261 17.4169 38.066 69.1194 1.8176 62.133C-33.5607 55.3159 -60.2779 10.5556 -42.1741 -25.547Z" stroke="white"/>
<path fill-rule="evenodd" clip-rule="evenodd" d="M-26.5621 -30.4692C-13.6286 -55.9572 13.9704 -87.7934 42.7556 -88.757C77.0538 -89.8972 76.4068 -49.1236 68.6292 -23.7459C60.5416 2.60275 24.9224 47.6059 -5.10966 40.5001C-34.3127 33.5635 -38.9564 -6.04038 -26.5621 -30.4692Z" stroke="white"/>
<path fill-rule="evenodd" clip-rule="evenodd" d="M-12.9644 -33.402C-4.42738 -51.5889 16.9387 -74.5751 37.2504 -75.3106C62.0772 -76.1947 57.2511 -43.855 50.8366 -28.2461C43.2121 -9.67284 17.6552 22.6 -3.79199 17.3698C-24.908 12.2213 -20.0075 -18.4171 -12.9644 -33.402Z" stroke="white"/>
</g>
</svg>
