<svg width="34" height="35" viewBox="0 0 34 35" fill="none" xmlns="http://www.w3.org/2000/svg">
<path d="M19.9711 34.9524H13.771C6.37339 34.9524 0.314941 28.9004 0.314941 21.4963V14.2854C0.314941 6.88779 6.36695 0.829346 13.771 0.829346H20.557C27.6327 0.829346 33.4272 6.61738 33.4272 13.6995V21.4963C33.4272 28.9004 27.3751 34.9524 19.9711 34.9524Z" fill="#0B1F69"/>
<path d="M17.1121 28.1083C17.0606 28.1083 17.0091 28.1083 16.9576 28.1019C16.9254 28.1019 16.8868 28.1083 16.8546 28.1083C15.6378 28.1083 14.8587 27.5418 14.1055 26.9881C13.584 26.6082 13.0946 26.2541 12.5152 26.1511C12.2319 26.106 11.9486 26.0803 11.6782 26.0803C11.1889 26.0803 10.8026 26.1575 10.5193 26.2155C10.3455 26.2477 10.1974 26.2799 10.0879 26.2799C9.97206 26.2799 9.84329 26.2541 9.78534 26.0609C9.74028 25.8936 9.70165 25.7262 9.66946 25.5716C9.58576 25.166 9.52137 24.9149 9.35398 24.8892C7.42892 24.5801 6.87523 24.1616 6.7529 23.8655C6.73359 23.8204 6.72715 23.7818 6.72071 23.7367C6.71427 23.6208 6.79153 23.5243 6.90098 23.5049C9.86261 23.0028 11.1889 19.8802 11.2468 19.7514C11.2468 19.745 11.2533 19.745 11.2533 19.7385C11.4336 19.3587 11.4722 19.0303 11.3563 18.7599C11.1503 18.2642 10.4936 18.0517 10.0493 17.9036C9.93987 17.8714 9.83686 17.8328 9.7596 17.8006C8.88399 17.4465 8.81316 17.0795 8.84536 16.8928C8.9033 16.5773 9.31535 16.352 9.65015 16.352C9.74028 16.352 9.82398 16.3713 9.88836 16.4035C10.2811 16.5966 10.6352 16.6868 10.9442 16.6868C11.3692 16.6868 11.5494 16.5065 11.5752 16.4808C11.5623 16.2747 11.5494 16.0558 11.5366 15.8369C11.4464 14.3947 11.337 12.5984 11.7812 11.5748C13.1075 8.50369 15.9275 8.26547 16.758 8.26547C16.7774 8.26547 17.125 8.25903 17.125 8.25903H17.1765C18.0071 8.25903 20.8335 8.49725 22.1598 11.5683C22.604 12.592 22.4946 14.3883 22.4044 15.8305L22.398 15.8949C22.3851 16.0945 22.3722 16.2876 22.3658 16.4743C22.3851 16.4936 22.559 16.6675 22.9388 16.6803C23.2285 16.6675 23.5633 16.5709 23.9303 16.3971C24.0398 16.3455 24.1557 16.3327 24.2394 16.3327C24.3617 16.3327 24.4904 16.3584 24.5935 16.4035H24.5999C24.8961 16.5129 25.0892 16.7254 25.0956 16.9507C25.1021 17.1632 24.9411 17.4787 24.175 17.7942C24.0977 17.8264 23.9947 17.8585 23.8853 17.8972C23.4474 18.0388 22.7843 18.2577 22.5783 18.7535C22.4688 19.0239 22.501 19.3522 22.6813 19.7321C22.6813 19.7385 22.6877 19.7385 22.6877 19.745C22.7457 19.8802 24.072 22.9963 27.0336 23.4985C27.143 23.5178 27.2203 23.6208 27.2139 23.7303C27.2139 23.7753 27.201 23.814 27.1817 23.859C27.0593 24.1552 26.5056 24.5737 24.5806 24.8763C24.4261 24.9021 24.3617 25.1145 24.2651 25.5588C24.2329 25.7197 24.1943 25.8807 24.1492 26.0481C24.1106 26.1897 24.0205 26.2605 23.8724 26.2605H23.8466C23.7436 26.2605 23.602 26.2412 23.4152 26.2026C23.0869 26.1382 22.7199 26.0738 22.2564 26.0738C21.9859 26.0738 21.7027 26.0996 21.4194 26.1446C20.8399 26.2412 20.3506 26.6018 19.8291 26.9816C19.108 27.5418 18.329 28.1083 17.1121 28.1083Z" fill="white"/>
</svg>
