<svg width="137" height="41" viewBox="0 0 137 41" fill="none" xmlns="http://www.w3.org/2000/svg">
<path d="M125.38 0.000131183H10.8545C10.437 0.000131183 10.0246 0.000131183 9.60823 0.00214938C9.2597 0.00416758 8.91395 0.0100304 8.56207 0.0149649C7.79764 0.0229386 7.035 0.0825505 6.28079 0.193283C5.52764 0.306425 4.79808 0.519732 4.11679 0.825987C3.43633 1.13483 2.81457 1.53615 2.27408 2.01537C1.73075 2.49325 1.27784 3.04561 0.932766 3.65121C0.586743 4.25561 0.34681 4.90328 0.221252 5.57185C0.0945015 6.23957 0.0262957 6.915 0.0172471 7.59206C0.00668254 7.90145 0.00556689 8.21187 0 8.5213V31.8459C0.00556689 32.1592 0.00668254 32.4627 0.0172471 32.7761C0.0262985 33.4532 0.0945043 34.1286 0.221252 34.7963C0.346463 35.4652 0.586411 36.1133 0.932766 36.7179C1.27768 37.3215 1.73065 37.8716 2.27408 38.3469C2.81252 38.8282 3.43468 39.2298 4.11679 39.5363C4.79807 39.8434 5.52755 40.0579 6.28079 40.1728C7.03513 40.2827 7.79769 40.3423 8.56207 40.3512C8.91395 40.3581 9.2597 40.362 9.60823 40.362C10.0246 40.3641 10.4371 40.3641 10.8545 40.3641H125.38C125.789 40.3641 126.205 40.3641 126.614 40.362C126.961 40.362 127.317 40.3581 127.663 40.3512C128.426 40.3428 129.188 40.2831 129.94 40.1728C130.696 40.0571 131.428 39.8426 132.113 39.5363C132.794 39.2296 133.416 38.8281 133.954 38.3469C134.496 37.8698 134.95 37.3201 135.299 36.7179C135.643 36.1128 135.88 35.4648 136.004 34.7963C136.131 34.1285 136.201 33.4532 136.215 32.7761C136.219 32.4627 136.219 32.1592 136.219 31.8459C136.228 31.4792 136.228 31.1147 136.228 30.7421V9.62302C136.228 9.25348 136.228 8.88689 136.219 8.5213C136.219 8.21187 136.219 7.90145 136.215 7.59202C136.201 6.9149 136.131 6.23962 136.004 5.57181C135.88 4.90362 135.642 4.25601 135.299 3.65117C134.596 2.4373 133.482 1.44922 132.113 0.825896C131.428 0.520389 130.696 0.30714 129.94 0.193192C129.188 0.0819718 128.426 0.0223392 127.663 0.0148237C127.317 0.00989925 126.961 0.00398594 126.614 0.0020182C126.205 0 125.789 0 125.38 0V0.000131183Z" fill="#A6A6A6"/>
<path d="M9.51568 39.484C9.16822 39.484 8.82916 39.4801 8.48443 39.4732C7.7703 39.465 7.05784 39.4099 6.35289 39.3086C5.69556 39.2084 5.05878 39.022 4.46356 38.7556C3.8738 38.4914 3.33589 38.1449 2.87044 37.7295C2.39825 37.319 2.00513 36.8429 1.70666 36.32C1.4049 35.7938 1.19607 35.2297 1.08743 34.6474C0.970111 34.0217 0.906637 33.3891 0.897555 32.7549C0.890325 32.5421 0.880859 31.8333 0.880859 31.8333V8.51773C0.880859 8.51773 0.89094 7.81989 0.897612 7.61487C0.906308 6.98171 0.969413 6.35005 1.08638 5.72537C1.19522 5.1415 1.40421 4.57578 1.70614 4.0478C2.00351 3.52529 2.39445 3.04881 2.86379 2.63683C3.33261 2.22094 3.87224 1.87271 4.463 1.60484C5.05685 1.33928 5.69243 1.15421 6.34843 1.05584C7.0557 0.953463 7.77063 0.898112 8.48724 0.890253L9.51624 0.87793H126.712L127.754 0.890748C128.464 0.898216 129.172 0.953073 129.873 1.05485C130.536 1.15446 131.178 1.34081 131.778 1.6078C132.962 2.14763 133.925 3.00168 134.532 4.05026C134.83 4.5746 135.035 5.13571 135.143 5.71453C135.261 6.34434 135.327 6.98096 135.341 7.61931C135.344 7.90514 135.344 8.21217 135.344 8.51773C135.353 8.89622 135.353 9.25648 135.353 9.61969V30.7432C135.353 31.1099 135.353 31.4677 135.344 31.8284C135.344 32.1566 135.344 32.4573 135.34 32.7667C135.327 33.3937 135.261 34.019 135.145 34.6375C135.039 35.224 134.831 35.7925 134.529 36.323C134.229 36.8402 133.838 37.3122 133.371 37.7216C132.905 38.1393 132.366 38.4878 131.775 38.7537C131.176 39.0221 130.535 39.2092 129.873 39.3086C129.168 39.4105 128.455 39.4655 127.741 39.4732C127.407 39.4801 127.058 39.484 126.718 39.484L125.482 39.486L9.51568 39.484Z" fill="black"/>
<path d="M33.0941 20.4858C33.1049 19.6436 33.3286 18.8177 33.7444 18.0852C34.1602 17.3526 34.7545 16.7371 35.4721 16.296C35.0162 15.645 34.4148 15.1092 33.7157 14.7312C33.0166 14.3533 32.2389 14.1435 31.4446 14.1187C29.7501 13.9408 28.1073 15.1327 27.2438 15.1327C26.3636 15.1327 25.0341 14.1363 23.6025 14.1658C22.6764 14.1957 21.774 14.465 20.983 14.9474C20.1919 15.4298 19.5394 16.1089 19.0889 16.9185C17.1373 20.2974 18.593 25.2632 20.4624 27.9944C21.3978 29.3318 22.4909 30.8258 23.9213 30.7728C25.3209 30.7147 25.8437 29.8802 27.5332 29.8802C29.2071 29.8802 29.6975 30.7728 31.1569 30.7391C32.6588 30.7147 33.6051 29.3957 34.5076 28.0457C35.1797 27.0927 35.6968 26.0395 36.0399 24.925C35.1673 24.556 34.4226 23.9382 33.8988 23.1488C33.375 22.3594 33.0951 21.4332 33.0941 20.4858Z" fill="white"/>
<path d="M30.3366 12.3222C31.1556 11.3391 31.559 10.0755 31.4613 8.7998C30.2102 8.93121 29.0545 9.52916 28.2245 10.4745C27.8187 10.9363 27.5079 11.4736 27.3099 12.0556C27.1119 12.6377 27.0305 13.253 27.0704 13.8665C27.6962 13.8729 28.3153 13.7373 28.8811 13.4698C29.4468 13.2023 29.9445 12.8099 30.3366 12.3222Z" fill="white"/>
<path d="M50.7865 27.3862H46.01L44.863 30.7732H42.8398L47.364 18.2422H49.466L53.9902 30.7732H51.9326L50.7865 27.3862ZM46.5047 25.8233H50.2909L48.4244 20.3264H48.3722L46.5047 25.8233Z" fill="white"/>
<path d="M63.7602 26.2059C63.7602 29.0449 62.2407 30.869 59.9475 30.869C59.3667 30.8994 58.7889 30.7656 58.2806 30.4829C57.7722 30.2002 57.3537 29.7801 57.073 29.2706H57.0296V33.7958H55.1543V21.6373H56.9695V23.1569H57.004C57.2976 22.6498 57.7232 22.2319 58.2354 21.9475C58.7477 21.6631 59.3274 21.5228 59.9131 21.5417C62.2318 21.5417 63.7602 23.3747 63.7602 26.2059ZM61.8327 26.2059C61.8327 24.3562 60.8768 23.1401 59.4184 23.1401C57.9855 23.1401 57.0217 24.3818 57.0217 26.2059C57.0217 28.0467 57.9855 29.2795 59.4184 29.2795C60.8768 29.2795 61.8327 28.0723 61.8327 26.2059Z" fill="white"/>
<path d="M73.8169 26.2058C73.8169 29.0449 72.2973 30.869 70.0042 30.869C69.4233 30.8994 68.8456 30.7656 68.3372 30.4829C67.8288 30.2002 67.4103 29.78 67.1296 29.2706H67.0862V33.7957H65.2109V21.6373H67.0261V23.1569H67.0606C67.3542 22.6498 67.7798 22.2319 68.292 21.9475C68.8043 21.6631 69.3841 21.5228 69.9697 21.5417C72.2884 21.5417 73.8169 23.3746 73.8169 26.2058ZM71.8893 26.2058C71.8893 24.3562 70.9335 23.1401 69.475 23.1401C68.0422 23.1401 67.0784 24.3818 67.0784 26.2058C67.0784 28.0467 68.0422 29.2795 69.475 29.2795C70.9335 29.2795 71.8893 28.0723 71.8893 26.2058H71.8893Z" fill="white"/>
<path d="M80.4627 27.2817C80.6016 28.5243 81.8088 29.3402 83.4584 29.3402C85.0391 29.3402 86.1763 28.5243 86.1763 27.4038C86.1763 26.4312 85.4904 25.8488 83.8664 25.4497L82.2424 25.0585C79.9414 24.5027 78.8731 23.4266 78.8731 21.6803C78.8731 19.5183 80.7573 18.0332 83.4328 18.0332C86.0807 18.0332 87.8959 19.5183 87.957 21.6803H86.0639C85.9506 20.4298 84.9169 19.675 83.4062 19.675C81.8955 19.675 80.8617 20.4387 80.8617 21.5503C80.8617 22.4362 81.522 22.9575 83.1371 23.3566L84.5177 23.6956C87.0888 24.3036 88.157 25.3364 88.157 27.1693C88.157 29.5136 86.2896 30.982 83.3194 30.982C80.5405 30.982 78.6642 29.5481 78.543 27.2816L80.4627 27.2817Z" fill="white"/>
<path d="M92.2028 19.4746V21.6367H93.9401V23.1218H92.2028V28.1584C92.2028 28.9408 92.5507 29.3054 93.3144 29.3054C93.5206 29.3018 93.7265 29.2874 93.9313 29.262V30.7382C93.5879 30.8024 93.2389 30.8315 92.8896 30.825C91.04 30.825 90.3186 30.1302 90.3186 28.3584V23.1218H88.9902V21.6367H90.3186V19.4746H92.2028Z" fill="white"/>
<path d="M94.9473 26.2053C94.9473 23.3307 96.6403 21.5244 99.2803 21.5244C101.929 21.5244 103.614 23.3307 103.614 26.2053C103.614 29.0877 101.938 30.8862 99.2803 30.8862C96.6235 30.8862 94.9473 29.0877 94.9473 26.2053ZM101.703 26.2053C101.703 24.2334 100.8 23.0696 99.2803 23.0696C97.7607 23.0696 96.858 24.2423 96.858 26.2053C96.858 28.185 97.7607 29.34 99.2803 29.34C100.8 29.34 101.703 28.185 101.703 26.2053H101.703Z" fill="white"/>
<path d="M105.16 21.6372H106.949V23.1922H106.992C107.113 22.7066 107.398 22.2774 107.798 21.9768C108.198 21.6762 108.69 21.5225 109.19 21.5416C109.406 21.5409 109.621 21.5643 109.832 21.6116V23.3657C109.559 23.2823 109.275 23.244 108.99 23.2524C108.717 23.2413 108.446 23.2894 108.193 23.3932C107.941 23.497 107.715 23.6541 107.529 23.8538C107.343 24.0535 107.203 24.291 107.118 24.55C107.033 24.809 107.005 25.0834 107.035 25.3543V30.7733H105.16L105.16 21.6372Z" fill="white"/>
<path d="M118.478 28.0895C118.225 29.748 116.61 30.8862 114.544 30.8862C111.886 30.8862 110.236 29.1055 110.236 26.2486C110.236 23.383 111.895 21.5244 114.465 21.5244C116.993 21.5244 118.582 23.2608 118.582 26.0309V26.6734H112.129V26.7867C112.1 27.1229 112.142 27.4617 112.253 27.7804C112.364 28.0991 112.542 28.3905 112.774 28.6352C113.007 28.88 113.289 29.0725 113.601 29.2C113.914 29.3274 114.25 29.3869 114.587 29.3745C115.03 29.416 115.475 29.3134 115.855 29.0818C116.235 28.8503 116.53 28.5023 116.697 28.0895L118.478 28.0895ZM112.138 25.3627H116.706C116.723 25.0604 116.677 24.7579 116.571 24.4741C116.466 24.1903 116.302 23.9315 116.092 23.7137C115.882 23.496 115.628 23.3241 115.348 23.2089C115.068 23.0936 114.768 23.0375 114.465 23.044C114.159 23.0422 113.857 23.1008 113.574 23.2166C113.292 23.3324 113.035 23.503 112.818 23.7186C112.602 23.9342 112.431 24.1904 112.314 24.4726C112.197 24.7548 112.137 25.0573 112.138 25.3627V25.3627Z" fill="white"/>
<path d="M46.2706 8.81054C46.6637 8.78233 47.0583 8.84173 47.4257 8.98444C47.7931 9.12716 48.1243 9.34965 48.3953 9.63586C48.6663 9.92206 48.8705 10.2649 48.993 10.6395C49.1155 11.0141 49.1533 11.4113 49.1037 11.8024C49.1037 13.726 48.0641 14.8317 46.2706 14.8317H44.0957V8.81054H46.2706ZM45.0309 13.9802H46.1661C46.4471 13.9969 46.7282 13.9509 46.9891 13.8453C47.25 13.7398 47.4841 13.5773 47.6743 13.3699C47.8645 13.1625 48.006 12.9152 48.0886 12.6462C48.1712 12.3771 48.1928 12.0931 48.1518 11.8146C48.1898 11.5373 48.1661 11.255 48.0822 10.9879C47.9983 10.7208 47.8564 10.4756 47.6666 10.2698C47.4769 10.064 47.2439 9.90279 46.9845 9.7976C46.7251 9.69242 46.4456 9.64591 46.1661 9.66143H45.0309V13.9802Z" fill="white"/>
<path d="M50.1605 12.5578C50.132 12.2592 50.1661 11.9579 50.2608 11.6733C50.3555 11.3887 50.5086 11.127 50.7104 10.905C50.9122 10.683 51.1581 10.5056 51.4324 10.3843C51.7067 10.2629 52.0034 10.2002 52.3034 10.2002C52.6034 10.2002 52.9 10.2629 53.1743 10.3843C53.4487 10.5056 53.6946 10.683 53.8964 10.905C54.0981 11.127 54.2513 11.3887 54.346 11.6733C54.4406 11.9579 54.4748 12.2592 54.4462 12.5578C54.4753 12.8567 54.4416 13.1584 54.3472 13.4435C54.2527 13.7286 54.0997 13.9908 53.8978 14.2132C53.696 14.4357 53.4499 14.6134 53.1753 14.735C52.9007 14.8567 52.6037 14.9195 52.3034 14.9195C52.0031 14.9195 51.706 14.8567 51.4314 14.735C51.1568 14.6134 50.9107 14.4357 50.7089 14.2132C50.5071 13.9908 50.3541 13.7286 50.2596 13.4435C50.1652 13.1584 50.1314 12.8567 50.1605 12.5578ZM53.5239 12.5578C53.5239 11.5729 53.0814 10.9969 52.3049 10.9969C51.5254 10.9969 51.0869 11.5729 51.0869 12.5578C51.0869 13.5507 51.5254 14.1222 52.3049 14.1222C53.0814 14.1222 53.5239 13.5467 53.5239 12.5578H53.5239Z" fill="white"/>
<path d="M60.1432 14.831H59.2129L58.2738 11.4844H58.2028L57.2677 14.831H56.3463L55.0938 10.2871H56.0033L56.8173 13.7544H56.8843L57.8185 10.2871H58.6788L59.613 13.7544H59.684L60.494 10.2871H61.3908L60.1432 14.831Z" fill="white"/>
<path d="M62.4434 10.2875H63.3066V11.0093H63.3736C63.4873 10.7501 63.679 10.5327 63.9221 10.3876C64.1652 10.2425 64.4474 10.1768 64.7296 10.1998C64.9507 10.1832 65.1727 10.2165 65.3792 10.2973C65.5856 10.3781 65.7712 10.5044 65.9223 10.6667C66.0733 10.829 66.1859 11.0232 66.2517 11.2349C66.3175 11.4467 66.3348 11.6705 66.3024 11.8898V14.8313H65.4056V12.115C65.4056 11.3848 65.0883 11.0217 64.4251 11.0217C64.275 11.0147 64.1251 11.0402 63.9858 11.0966C63.8465 11.1529 63.721 11.2387 63.618 11.3481C63.5149 11.4574 63.4367 11.5878 63.3888 11.7302C63.3408 11.8726 63.3242 12.0237 63.3401 12.1731V14.8314H62.4434L62.4434 10.2875Z" fill="white"/>
<path d="M67.7324 8.51367H68.6292V14.8314H67.7324V8.51367Z" fill="white"/>
<path d="M69.8753 12.5579C69.8468 12.2593 69.881 11.958 69.9757 11.6733C70.0704 11.3887 70.2236 11.127 70.4254 10.905C70.6271 10.683 70.8731 10.5056 71.1474 10.3843C71.4218 10.2629 71.7185 10.2002 72.0185 10.2002C72.3184 10.2002 72.6151 10.2629 72.8895 10.3843C73.1638 10.5056 73.4098 10.683 73.6115 10.905C73.8133 11.127 73.9665 11.3887 74.0612 11.6733C74.1559 11.958 74.1901 12.2593 74.1615 12.5579C74.1906 12.8568 74.1568 13.1585 74.0624 13.4436C73.9679 13.7287 73.8148 13.9909 73.613 14.2133C73.4112 14.4357 73.165 14.6135 72.8904 14.7351C72.6158 14.8567 72.3188 14.9196 72.0185 14.9196C71.7181 14.9196 71.4211 14.8567 71.1465 14.7351C70.8719 14.6135 70.6257 14.4357 70.4239 14.2133C70.2221 13.9909 70.069 13.7287 69.9745 13.4436C69.8801 13.1585 69.8463 12.8568 69.8753 12.5579ZM73.2387 12.5579C73.2387 11.573 72.7962 10.997 72.0197 10.997C71.2402 10.997 70.8017 11.573 70.8017 12.5579C70.8017 13.5508 71.2402 14.1223 72.0197 14.1223C72.7962 14.1223 73.2387 13.5468 73.2387 12.5579H73.2387Z" fill="white"/>
<path d="M75.1055 13.5468C75.1055 12.7288 75.7145 12.2573 76.7955 12.1903L78.0263 12.1193V11.7271C78.0263 11.2472 77.709 10.9762 77.0961 10.9762C76.5955 10.9762 76.2486 11.16 76.1491 11.4813H75.2809C75.3725 10.7008 76.1067 10.2002 77.1375 10.2002C78.2766 10.2002 78.9192 10.7673 78.9192 11.7271V14.8318H78.0559V14.1932H77.9849C77.8409 14.4223 77.6387 14.609 77.3989 14.7344C77.1591 14.8597 76.8904 14.9192 76.6201 14.9067C76.4293 14.9265 76.2366 14.9062 76.0541 14.8469C75.8717 14.7877 75.7038 14.6909 75.5611 14.5628C75.4184 14.4346 75.3041 14.278 75.2256 14.103C75.1472 13.928 75.1062 13.7385 75.1055 13.5468ZM78.0263 13.1585V12.7786L76.9167 12.8496C76.291 12.8914 76.0071 13.1043 76.0071 13.5049C76.0071 13.9138 76.3619 14.1518 76.8497 14.1518C76.9927 14.1663 77.1371 14.1519 77.2743 14.1094C77.4115 14.0669 77.5388 13.9973 77.6486 13.9046C77.7584 13.8119 77.8484 13.6981 77.9133 13.5699C77.9782 13.4418 78.0166 13.3018 78.0263 13.1585Z" fill="white"/>
<path d="M80.0977 12.5575C80.0977 11.1217 80.8358 10.2121 81.9838 10.2121C82.2678 10.199 82.5496 10.267 82.7964 10.4082C83.0431 10.5494 83.2446 10.7579 83.3772 11.0093H83.4442V8.51367H84.341V14.8314H83.4817V14.1135H83.4107C83.2678 14.3632 83.0593 14.5691 82.8078 14.7088C82.5563 14.8486 82.2713 14.9169 81.9838 14.9063C80.8279 14.9063 80.0977 13.9967 80.0977 12.5575ZM81.024 12.5575C81.024 13.5212 81.4783 14.1012 82.2381 14.1012C82.9939 14.1012 83.461 13.5129 83.461 12.5614C83.461 11.6144 82.989 11.0177 82.2381 11.0177C81.4832 11.0177 81.024 11.6016 81.024 12.5575H81.024Z" fill="white"/>
<path d="M88.0512 12.5578C88.0226 12.2592 88.0567 11.9579 88.1514 11.6733C88.2461 11.3887 88.3993 11.127 88.601 10.905C88.8028 10.683 89.0487 10.5056 89.323 10.3843C89.5974 10.2629 89.894 10.2002 90.194 10.2002C90.494 10.2002 90.7906 10.2629 91.065 10.3843C91.3393 10.5056 91.5852 10.683 91.787 10.905C91.9887 11.127 92.1419 11.3887 92.2366 11.6733C92.3313 11.9579 92.3654 12.2592 92.3369 12.5578C92.366 12.8567 92.3322 13.1584 92.2378 13.4435C92.1433 13.7286 91.9903 13.9908 91.7885 14.2132C91.5867 14.4357 91.3405 14.6134 91.0659 14.735C90.7913 14.8567 90.4943 14.9195 90.194 14.9195C89.8937 14.9195 89.5967 14.8567 89.3221 14.735C89.0475 14.6134 88.8014 14.4357 88.5995 14.2132C88.3977 13.9908 88.2447 13.7286 88.1502 13.4435C88.0558 13.1584 88.022 12.8567 88.0512 12.5578ZM91.4145 12.5578C91.4145 11.5729 90.972 10.9969 90.1955 10.9969C89.416 10.9969 88.9775 11.5729 88.9775 12.5578C88.9775 13.5507 89.416 14.1222 90.1955 14.1222C90.972 14.1222 91.4145 13.5467 91.4145 12.5578Z" fill="white"/>
<path d="M93.541 10.2875H94.4043V11.0093H94.4713C94.585 10.7501 94.7767 10.5327 95.0198 10.3876C95.2628 10.2425 95.5451 10.1768 95.8273 10.1998C96.0484 10.1832 96.2704 10.2165 96.4768 10.2973C96.6833 10.3781 96.8689 10.5044 97.0199 10.6667C97.171 10.829 97.2836 11.0232 97.3494 11.2349C97.4152 11.4467 97.4325 11.6705 97.4 11.8898V14.8313H96.5033V12.115C96.5033 11.3848 96.186 11.0217 95.5228 11.0217C95.3726 11.0147 95.2228 11.0402 95.0835 11.0966C94.9442 11.1529 94.8187 11.2387 94.7156 11.3481C94.6126 11.4574 94.5344 11.5878 94.4864 11.7302C94.4385 11.8726 94.4219 12.0237 94.4378 12.1731V14.8314H93.541V10.2875Z" fill="white"/>
<path d="M102.467 9.15625V10.3082H103.451V11.0636H102.467V13.4001C102.467 13.8761 102.663 14.0845 103.109 14.0845C103.224 14.0841 103.338 14.0772 103.451 14.0638V14.8107C103.29 14.8396 103.127 14.8549 102.963 14.8566C101.966 14.8566 101.569 14.5057 101.569 13.6297V11.0635H100.848V10.3082H101.569V9.15625H102.467Z" fill="white"/>
<path d="M104.676 8.51367H105.565V11.0177H105.636C105.755 10.756 105.952 10.5375 106.2 10.3918C106.448 10.2461 106.734 10.1805 107.021 10.2037C107.241 10.1918 107.461 10.2285 107.665 10.3113C107.869 10.394 108.052 10.5209 108.202 10.6827C108.351 10.8445 108.463 11.0372 108.53 11.2473C108.596 11.4573 108.615 11.6794 108.586 11.8977V14.8314H107.688V12.1189C107.688 11.3931 107.35 11.0256 106.717 11.0256C106.563 11.0129 106.408 11.0341 106.262 11.0877C106.117 11.1412 105.986 11.2258 105.877 11.3355C105.768 11.4452 105.684 11.5774 105.632 11.7229C105.579 11.8683 105.559 12.0235 105.573 12.1776V14.8314H104.676L104.676 8.51367Z" fill="white"/>
<path d="M113.816 13.605C113.694 14.0203 113.43 14.3795 113.07 14.6198C112.71 14.8601 112.277 14.9662 111.847 14.9196C111.548 14.9275 111.25 14.8701 110.975 14.7515C110.7 14.6329 110.454 14.4559 110.254 14.2328C110.055 14.0096 109.906 13.7457 109.819 13.4593C109.731 13.1729 109.707 12.8709 109.748 12.5742C109.708 12.2766 109.733 11.974 109.82 11.6867C109.907 11.3995 110.055 11.1343 110.254 10.9092C110.452 10.6841 110.697 10.5043 110.971 10.382C111.245 10.2597 111.543 10.1977 111.843 10.2003C113.107 10.2003 113.87 11.0641 113.87 12.4909V12.8038H110.661V12.8541C110.647 13.0208 110.668 13.1887 110.723 13.3469C110.778 13.505 110.865 13.6501 110.979 13.7726C111.092 13.8952 111.231 13.9926 111.385 14.0586C111.538 14.1246 111.704 14.1577 111.872 14.1558C112.086 14.1816 112.303 14.143 112.496 14.0449C112.688 13.9468 112.847 13.7936 112.953 13.605L113.816 13.605ZM110.661 12.1406H112.956C112.968 11.9881 112.947 11.8349 112.896 11.6909C112.844 11.5469 112.763 11.4152 112.658 11.3044C112.553 11.1935 112.425 11.1059 112.284 11.0472C112.143 10.9885 111.991 10.96 111.838 10.9635C111.683 10.9616 111.529 10.9907 111.385 11.0491C111.242 11.1076 111.111 11.1943 111.001 11.304C110.892 11.4137 110.805 11.5442 110.747 11.6879C110.688 11.8316 110.659 11.9855 110.661 12.1406H110.661Z" fill="white"/>
</svg>
