<svg width="945" height="991" viewBox="0 0 945 991" fill="none" xmlns="http://www.w3.org/2000/svg">
<g opacity="0.5">
<path d="M682.377 771.351C679.449 771.351 677.062 773.738 677.062 776.666C677.062 779.594 679.449 781.981 682.377 781.981C685.305 781.981 687.692 779.594 687.692 776.666C687.692 773.729 685.305 771.351 682.377 771.351Z" fill="#F0AEAE"/>
<path d="M669.869 774.079C669.869 768.414 674.476 763.808 680.14 763.808C684.799 763.808 688.75 766.928 690 771.194C689.834 764.446 684.292 759 677.5 759C670.603 759 665 764.603 665 771.5C665 778.388 670.594 783.991 677.483 784C673.103 782.829 669.869 778.825 669.869 774.079Z" fill="#F0AEAE"/>
<path d="M680.14 765.241C675.271 765.241 671.302 769.201 671.302 774.079C671.302 778.886 675.157 782.802 679.939 782.916C677.439 781.937 675.664 779.507 675.664 776.666C675.664 772.969 678.671 769.953 682.378 769.953C685.559 769.953 688.225 772.173 688.916 775.154C688.96 774.804 688.977 774.446 688.977 774.079C688.977 769.21 685.009 765.241 680.14 765.241Z" fill="#F0AEAE"/>
<path d="M17.3772 696.351C14.4489 696.351 12.0625 698.738 12.0625 701.666C12.0625 704.594 14.4489 706.981 17.3772 706.981C20.3055 706.981 22.6919 704.594 22.6919 701.666C22.6919 698.729 20.3055 696.351 17.3772 696.351Z" fill="#F0AEAE"/>
<path d="M4.86888 699.079C4.86888 693.414 9.47552 688.808 15.1399 688.808C19.799 688.808 23.75 691.928 25 696.194C24.8339 689.446 19.292 684 12.5 684C5.60315 684 0 689.603 0 696.5C0 703.388 5.59441 708.991 12.4825 709C8.10315 707.829 4.86888 703.825 4.86888 699.079Z" fill="#F0AEAE"/>
<path d="M15.1401 690.241C10.2713 690.241 6.30273 694.201 6.30273 699.079C6.30273 703.886 10.1576 707.803 14.9391 707.916C12.4391 706.937 10.6646 704.507 10.6646 701.666C10.6646 697.969 13.6716 694.953 17.3779 694.953C20.5597 694.953 23.2258 697.173 23.9164 700.154C23.9601 699.804 23.9776 699.446 23.9776 699.079C23.9776 694.21 20.009 690.241 15.1401 690.241Z" fill="#F0AEAE"/>
<path d="M172.037 955.423C170.514 955.423 169.273 956.664 169.273 958.186C169.273 959.709 170.514 960.95 172.037 960.95C173.559 960.95 174.8 959.709 174.8 958.186C174.8 956.659 173.559 955.423 172.037 955.423Z" fill="#F0AEAE"/>
<path d="M165.532 956.841C165.532 953.895 167.927 951.5 170.873 951.5C173.295 951.5 175.35 953.123 176 955.341C175.914 951.832 173.032 949 169.5 949C165.914 949 163 951.914 163 955.5C163 959.082 165.909 961.995 169.491 962C167.214 961.391 165.532 959.309 165.532 956.841Z" fill="#F0AEAE"/>
<path d="M170.872 952.246C168.34 952.246 166.277 954.305 166.277 956.841C166.277 959.341 168.281 961.377 170.768 961.436C169.468 960.927 168.545 959.664 168.545 958.186C168.545 956.264 170.109 954.696 172.036 954.696C173.69 954.696 175.077 955.85 175.436 957.4C175.459 957.218 175.468 957.032 175.468 956.841C175.468 954.309 173.404 952.246 170.872 952.246Z" fill="#F0AEAE"/>
<path d="M265.732 900.917C264.092 900.917 262.756 902.253 262.756 903.893C262.756 905.533 264.092 906.869 265.732 906.869C267.372 906.869 268.708 905.533 268.708 903.893C268.708 902.248 267.372 900.917 265.732 900.917Z" fill="#AEF0D0"/>
<path d="M258.727 902.444C258.727 899.272 261.306 896.692 264.478 896.692C267.087 896.692 269.3 898.44 270 900.829C269.907 897.05 266.803 894 263 894C259.138 894 256 897.138 256 901C256 904.857 259.133 907.995 262.99 908C260.538 907.344 258.727 905.102 258.727 902.444Z" fill="#AEF0D0"/>
<path d="M264.478 897.495C261.752 897.495 259.529 899.713 259.529 902.444C259.529 905.136 261.688 907.329 264.366 907.393C262.966 906.845 261.972 905.484 261.972 903.893C261.972 901.822 263.656 900.134 265.732 900.134C267.513 900.134 269.006 901.377 269.393 903.046C269.418 902.85 269.427 902.65 269.427 902.444C269.427 899.718 267.205 897.495 264.478 897.495Z" fill="#AEF0D0"/>
<path d="M699.732 6.91681C698.092 6.91681 696.756 8.25317 696.756 9.89303C696.756 11.5329 698.092 12.8693 699.732 12.8693C701.372 12.8693 702.708 11.5329 702.708 9.89303C702.708 8.24828 701.372 6.91681 699.732 6.91681Z" fill="#CFE0FF"/>
<path d="M692.727 8.44406C692.727 5.27203 695.306 2.69231 698.478 2.69231C701.087 2.69231 703.3 4.43986 704 6.82867C703.907 3.04965 700.803 0 697 0C693.138 0 690 3.13776 690 7C690 10.8573 693.133 13.9951 696.99 14C694.538 13.3441 692.727 11.1021 692.727 8.44406Z" fill="#CFE0FF"/>
<path d="M698.478 3.49512C695.752 3.49512 693.529 5.7126 693.529 8.44407C693.529 11.1364 695.688 13.3294 698.366 13.393C696.966 12.8448 695.972 11.4839 695.972 9.89302C695.972 7.82239 697.656 6.13358 699.732 6.13358C701.513 6.13358 703.006 7.37694 703.393 9.04617C703.418 8.85036 703.427 8.64966 703.427 8.44407C703.427 5.71749 701.205 3.49512 698.478 3.49512Z" fill="#CFE0FF"/>
<path d="M440.379 978.351C437.451 978.351 435.065 980.738 435.065 983.666C435.065 986.594 437.451 988.981 440.379 988.981C443.308 988.981 445.694 986.594 445.694 983.666C445.694 980.729 443.308 978.351 440.379 978.351Z" fill="#E3D6FF"/>
<path d="M427.869 981.079C427.869 975.414 432.476 970.808 438.14 970.808C442.799 970.808 446.75 973.928 448 978.194C447.834 971.446 442.292 966 435.5 966C428.603 966 423 971.603 423 978.5C423 985.388 428.594 990.991 435.483 991C431.103 989.829 427.869 985.825 427.869 981.079Z" fill="#E3D6FF"/>
<path d="M438.14 972.241C433.271 972.241 429.303 976.201 429.303 981.079C429.303 985.886 433.158 989.803 437.939 989.916C435.439 988.937 433.665 986.507 433.665 983.666C433.665 979.969 436.672 976.953 440.378 976.953C443.56 976.953 446.226 979.173 446.916 982.154C446.96 981.804 446.978 981.446 446.978 981.079C446.978 976.21 443.009 972.241 438.14 972.241Z" fill="#E3D6FF"/>
<path d="M600.732 919.917C599.092 919.917 597.756 921.253 597.756 922.893C597.756 924.533 599.092 925.869 600.732 925.869C602.372 925.869 603.709 924.533 603.709 922.893C603.709 921.248 602.372 919.917 600.732 919.917Z" fill="#E3D6FF"/>
<path d="M593.727 921.444C593.727 918.272 596.306 915.692 599.478 915.692C602.087 915.692 604.3 917.44 605 919.829C604.907 916.05 601.803 913 598 913C594.138 913 591 916.138 591 920C591 923.857 594.133 926.995 597.99 927C595.538 926.344 593.727 924.102 593.727 921.444Z" fill="#E3D6FF"/>
<path d="M599.478 916.495C596.752 916.495 594.53 918.713 594.53 921.444C594.53 924.136 596.688 926.329 599.366 926.393C597.966 925.845 596.972 924.484 596.972 922.893C596.972 920.822 598.656 919.134 600.732 919.134C602.513 919.134 604.006 920.377 604.393 922.046C604.418 921.85 604.427 921.65 604.427 921.444C604.427 918.718 602.205 916.495 599.478 916.495Z" fill="#E3D6FF"/>
<path d="M940.732 720.917C939.092 720.917 937.756 722.253 937.756 723.893C937.756 725.533 939.092 726.869 940.732 726.869C942.372 726.869 943.709 725.533 943.709 723.893C943.709 722.248 942.372 720.917 940.732 720.917Z" fill="#E3D6FF"/>
<path d="M933.727 722.444C933.727 719.272 936.306 716.692 939.478 716.692C942.087 716.692 944.3 718.44 945 720.829C944.907 717.05 941.803 714 938 714C934.138 714 931 717.138 931 721C931 724.857 934.133 727.995 937.99 728C935.538 727.344 933.727 725.102 933.727 722.444Z" fill="#E3D6FF"/>
<path d="M939.478 717.495C936.752 717.495 934.53 719.713 934.53 722.444C934.53 725.136 936.688 727.329 939.366 727.393C937.966 726.845 936.972 725.484 936.972 723.893C936.972 721.822 938.656 720.134 940.732 720.134C942.513 720.134 944.006 721.377 944.393 723.046C944.418 722.85 944.427 722.65 944.427 722.444C944.427 719.718 942.205 717.495 939.478 717.495Z" fill="#E3D6FF"/>
</g>
</svg>
