<svg width="226" height="53" viewBox="0 0 226 53" fill="none" xmlns="http://www.w3.org/2000/svg">
<path d="M36.4044 25.873C30.2703 25.873 25.2715 30.8719 25.2715 37.006C25.2715 43.1401 30.2703 48.1389 36.4044 48.1389C42.5385 48.1389 47.5373 43.1401 47.5373 37.006C47.5373 30.8536 42.5385 25.873 36.4044 25.873Z" fill="#122D97"/>
<path d="M10.1991 31.586C10.1991 19.7206 19.8488 10.0709 31.7142 10.0709C41.4738 10.0709 49.7502 16.6078 52.3686 25.5434C52.0207 11.4076 40.4117 0 26.1843 0C11.7372 0 0 11.7372 0 26.1843C0 40.6132 11.7189 52.3503 26.1477 52.3686C16.974 49.915 10.1991 41.5287 10.1991 31.586Z" fill="#122D97"/>
<path d="M31.7133 13.0742C21.5142 13.0742 13.2012 21.369 13.2012 31.5863C13.2012 41.6572 21.2762 49.8604 31.2922 50.0985C26.0553 48.0477 22.3382 42.9573 22.3382 37.0063C22.3382 29.2609 28.6371 22.9437 36.4008 22.9437C43.066 22.9437 48.6507 27.5946 50.0973 33.8386C50.1888 33.1061 50.2254 32.3554 50.2254 31.5863C50.2254 21.3873 41.9124 13.0742 31.7133 13.0742Z" fill="#122D97"/>
<path d="M216.942 9.50798C219.101 9.50798 220.525 11.0067 220.525 13.1445C220.525 15.2824 219.101 16.7811 216.942 16.7811C214.761 16.7811 213.381 15.2824 213.381 13.1445C213.381 11.0067 214.761 9.50798 216.942 9.50798ZM216.942 17.6626C219.568 17.6626 221.438 15.7452 221.438 13.1445C221.438 10.5438 219.568 8.64844 216.942 8.64844C214.293 8.64844 212.424 10.5438 212.424 13.1445C212.424 15.7452 214.293 17.6626 216.942 17.6626ZM218.945 12.2189C218.945 11.3152 218.277 10.7422 217.276 10.7422H215.139V15.4807H216.297V13.7175H216.675L217.743 15.4807L219.146 15.4587L217.899 13.6294C218.545 13.431 218.945 12.9241 218.945 12.2189ZM217.209 11.7781C217.521 11.7781 217.788 11.9103 217.788 12.2629C217.788 12.6156 217.521 12.7698 217.209 12.7698H216.297V11.7781H217.209Z" fill="#122D97"/>
<path d="M74.2078 46.4504C69.1079 46.4504 66.5059 44.2647 66.5059 39.8934V17.4121H69.316V24.8018H74.2078V27.4038H69.316V39.373C69.316 42.4954 70.9813 44.0566 74.2078 44.0566V46.4504Z" fill="#122D97"/>
<path d="M95.5435 36.4579H76.4969C76.7051 38.5395 77.6418 40.3088 79.203 41.7659C80.7642 43.119 82.6376 43.8475 84.8233 43.8475C88.1539 43.8475 90.5477 42.2863 92.0048 39.1639H95.0231C94.1905 41.4537 92.9415 43.223 90.964 44.5761C89.0906 45.9291 87.009 46.5536 84.7192 46.6577C81.805 46.6577 79.3071 45.6169 77.0173 43.4312C74.8316 41.2455 73.6868 38.6435 73.5827 35.7293C73.4786 32.6069 74.6235 29.7968 76.9132 27.507C79.203 25.2172 81.9091 24.1764 85.1356 24.2805C87.9457 24.4887 90.4436 25.6336 92.5252 27.8192C94.5027 29.9008 95.5435 32.2947 95.5435 35.0007V36.4579ZM92.7334 33.8559C92.3171 31.8784 91.3803 30.3172 89.9232 29.0682C88.4661 27.8192 86.6967 27.1948 84.7192 27.1948C82.6376 27.1948 80.8683 27.8192 79.4112 28.9641C77.954 30.109 76.9132 31.7743 76.4969 33.8559H92.7334Z" fill="#122D97"/>
<path d="M100.851 46.0341H98.041V17.4121H100.851V46.0341Z" fill="#122D97"/>
<path d="M106.888 46.0341H104.078V17.4121H106.888V46.0341Z" fill="#122D97"/>
<path d="M131.973 36.4598H113.03C113.238 38.5414 114.175 40.3108 115.736 41.7679C117.297 43.1209 119.171 43.8495 121.357 43.8495C124.687 43.8495 127.081 42.2883 128.538 39.1659H131.556C130.724 41.4556 129.475 43.225 127.497 44.578C125.624 45.9311 123.542 46.5556 121.252 46.6596C118.338 46.6596 115.84 45.6188 113.551 43.4332C111.261 41.2475 110.22 38.6455 110.116 35.7313C110.012 32.6089 111.157 29.7987 113.446 27.5089C115.736 25.2192 118.442 24.1784 121.669 24.2825C124.479 24.4906 126.977 25.6355 129.058 27.8212C131.036 29.9028 132.077 32.2966 132.077 35.0027V36.4598H131.973ZM129.267 33.8578C128.85 31.8803 127.914 30.3191 126.456 29.0701C124.999 27.8212 123.23 27.1967 121.252 27.1967C119.171 27.1967 117.401 27.8212 115.944 28.9661C114.487 30.1109 113.446 31.7762 113.03 33.8578H129.267Z" fill="#122D97"/>
<path d="M142.902 27.2983C141.549 27.2983 140.508 27.7146 139.676 28.3391C138.843 28.9636 138.323 29.588 138.011 30.1084C137.49 30.9411 137.282 31.9819 137.282 33.3349V46.0327H134.264V24.9044H136.866V27.9228C137.49 26.7779 138.323 25.9452 139.468 25.3208C140.508 24.8004 141.653 24.4881 142.694 24.5922V27.2983H142.902Z" fill="#122D97"/>
<path d="M175.06 31.5667C175.06 35.7299 173.602 39.2686 170.688 42.1829C167.774 45.0971 164.235 46.6583 160.072 46.6583C156.013 46.6583 152.474 45.2012 149.456 42.391C146.438 39.5809 144.98 36.1462 144.98 32.0871C144.98 28.028 146.438 24.4893 149.352 21.471C152.266 18.5567 155.805 17.0996 159.864 17.0996C163.923 17.0996 167.566 18.4526 170.48 21.2628C173.602 24.073 175.06 27.5076 175.06 31.5667ZM172.353 31.6708C172.353 28.3402 171.105 25.5301 168.711 23.2403C166.317 20.9506 163.403 19.8057 160.072 19.8057C156.741 19.8057 153.931 20.9506 151.537 23.3444C149.144 25.7382 147.999 28.5484 147.999 31.879C147.999 35.1054 149.144 38.0197 151.537 40.3094C153.931 42.7033 156.741 43.8481 160.072 43.8481C163.403 43.8481 166.317 42.7033 168.711 40.3094C171.105 37.9156 172.353 35.0013 172.353 31.6708Z" fill="#122D97"/>
<path d="M196.502 46.0353H193.692V33.6498C193.692 31.8805 193.067 30.3193 191.714 29.0703C190.361 27.8214 188.904 27.0928 187.135 27.0928C185.365 27.0928 183.804 27.7173 182.555 29.0703C181.202 30.3193 180.578 31.8805 180.578 33.6498V46.0353H177.768V33.9621C177.768 31.256 178.704 28.9662 180.474 27.0928C182.243 25.2194 184.533 24.3867 187.239 24.3867C189.945 24.3867 192.131 25.3234 193.9 27.0928C195.669 28.8622 196.606 31.1519 196.606 33.9621V46.0353H196.502Z" fill="#122D97"/>
<path d="M219.443 29.1666L204.853 41.4095C206.35 42.8703 208.205 43.6236 210.338 43.7363C212.403 43.7693 214.307 43.1232 215.981 41.7182C218.532 39.5774 219.363 36.8427 218.472 33.5142L220.784 31.5741C221.618 33.8633 221.798 36.0216 221.153 38.3292C220.508 40.6368 219.395 42.3863 217.708 43.9378C215.475 45.8111 212.893 46.6194 209.734 46.4169C206.575 46.2144 204.105 44.8902 202.152 42.7246C200.065 40.3996 199.136 37.511 199.418 34.2852C199.7 31.0593 201.104 28.5225 203.643 26.5283C205.929 24.8815 208.579 24.1529 211.578 24.4892C214.431 24.8126 216.767 25.9774 218.507 28.0504L219.443 29.1666ZM215.618 28.9797C214.028 27.7324 212.307 27.1386 210.388 27.1184C208.469 27.0983 206.712 27.7573 205.197 29.0284C203.602 30.3664 202.648 31.9821 202.268 33.7957C201.888 35.6094 202.161 37.5541 203.18 39.4163L215.618 28.9797Z" fill="#122D97"/>
</svg>
