<svg width="34" height="35" viewBox="0 0 34 35" fill="none" xmlns="http://www.w3.org/2000/svg">
<path d="M20.1109 34.9524H13.9108C6.51322 34.9524 0.454773 28.9004 0.454773 21.4963V14.2854C0.454773 6.88779 6.50678 0.829346 13.9108 0.829346H20.6968C27.7725 0.829346 33.567 6.61738 33.567 13.6995V21.4963C33.567 28.9004 27.5085 34.9524 20.1109 34.9524Z" fill="#0B1F69"/>
<path d="M13.9751 26.6147C21.2697 26.6147 25.2614 20.3889 25.2614 14.9871C25.2614 14.8133 25.255 14.633 25.2485 14.4592C26.0211 13.8797 26.6972 13.1651 27.2251 12.341C26.5169 12.6629 25.7507 12.8882 24.9459 12.9848C25.7636 12.4762 26.3946 11.6778 26.6907 10.725C25.9246 11.195 25.0747 11.5362 24.1733 11.7165C23.4522 10.9246 22.4221 10.4224 21.2761 10.4224C19.0871 10.4224 17.3101 12.2508 17.3101 14.5107C17.3101 14.8326 17.3423 15.1416 17.4131 15.4442C14.1167 15.2704 11.1937 13.648 9.23647 11.1756C8.89524 11.7808 8.7021 12.4826 8.7021 13.2295C8.7021 14.6459 9.40387 15.9014 10.4662 16.6289C9.81592 16.6096 9.20428 16.4229 8.6699 16.1203C8.6699 16.1396 8.6699 16.1525 8.6699 16.1718C8.6699 18.1548 10.0348 19.803 11.8504 20.1764C11.5156 20.2665 11.168 20.318 10.8074 20.318C10.5499 20.318 10.3052 20.2923 10.0606 20.2472C10.5628 21.8697 12.0307 23.0543 13.7626 23.0865C12.4041 24.181 10.698 24.8377 8.8373 24.8377C8.51539 24.8377 8.19991 24.8184 7.89087 24.7798C9.65496 25.9387 11.7345 26.6147 13.9751 26.6147Z" fill="white"/>
</svg>
